<svg xmlns="http://www.w3.org/2000/svg" viewBox="0 0 244.33 161.06"><defs><style>.cls-1{fill:#651e40;}.cls-2{fill:#380913;}.cls-3{fill:#931831;}.cls-4{fill:#6d2025;}.cls-5{fill:#7e2239;}.cls-6{fill:#fc1e26;}.cls-7{fill:#3a0913;}.cls-8{fill:#941831;}.cls-9{fill:#6b2140;}.cls-10{fill:#fdaaa4;}.cls-11{fill:#fa1f26;}.cls-12{fill:#a62833;}.cls-13{fill:#6f2025;}.cls-14{fill:#fcfcfc;}.cls-15{fill:#fefefe;}.cls-16{fill:#fcaaa4;}.cls-17{fill:#702025;}.cls-18{fill:#8e0a24;}.cls-19{fill:#bc5e66;}.cls-20{fill:#971d31;}</style></defs><g id="Layer_2" data-name="Layer 2"><g id="Layer_1-2" data-name="Layer 1"><g id="_0G" data-name=" 0G"><path class="cls-1" d="M6.52,19.75C16,9.2,28.21,5.21,41.19,9.94c13.85,5,26.08,4.76,38.34-3.37,3-2,6.72-3.16,10.18-4.51C99.65-1.81,107.16-.24,113.84,7c5.58,6,7.08,16.87,3.23,24.84-1.5,3.11-3.42,6-5.15,9a6.22,6.22,0,0,1,1.24,4.35c-.72,3.54-1.57,7-6.11,7.38-2.73-1.23-2.5-3.59-2.26-6,1.37-4,2.44-8,1.11-12.23-.48-1.54-.1-3.24-.1-4.87,0-3.12,3.6-6.5.63-9.14s-5.46,1-8.13,2.08c-2.34.91-4-.62-5.82-1.5-7-3.3-11.25-.57-11.26,7.23,0,1.63.08,3.26.1,4.89,0,5-1.5,8.28-7.36,7.29-4.82-.82-7.37,1.8-8.93,5.94-1.41,3.73-3.13,7.26-6.39,9.82-7.85,6.15-16.41,3-18.33-6.77-.79-4,.13-7.87.72-11.78.46-3,1.17-5.94,1.4-9C43,21.4,41,19,34,18.82c-8.14-.24-16.29-.31-24.34,1.3A3.22,3.22,0,0,1,6.52,19.75Z"/><path class="cls-2" d="M9.72,19.61C19,15.13,28.79,17,38.39,17.28c4.28.12,6.43,3.67,6.1,7.91-.4,5.06-1.26,10.08-2,15.11-.1.68-.48,1.32-.6,2-1.2,6.92,1.41,13.84,5.66,15.09,5.71,1.68,12.31-2.39,14.84-9.75,2.34-6.8,4.93-12.29,13.78-8.74,2.46,1,3.22-1.06,3.2-3.17,0-3,.23-6.11-.32-9-.81-4.28,1.55-6.77,4.51-8.62,3.15-2,6.83-2,9.61.87,2.51,2.56,4.13,3.63,6.88,0a6.08,6.08,0,0,1,8.28-1.14c3,2,1.83,4.91.47,7.47a12.36,12.36,0,0,0-1,10.13c1.51,4.21.6,7.66-1.84,11-2.67-2.92-2.31-6.92-3.66-10.31C100.68,32,99.08,27,93.87,27.44c-4.65.4-7.66,4.53-8.23,9.18-.93,7.67-5.54,12-12.09,14.67-3.3,1.37-5.48,3.3-5.79,7-3,5.43-8.68,5.93-13.77,7.53a25.8,25.8,0,0,1-8.63.31,14.43,14.43,0,0,1-4.89-1.81c-2.47-1.76-4.8-3.64-5.28-6.93-1.87-4.35-2-9-2.18-13.6-.66-13.26-6.41-20.47-17.87-22.85C13.52,19.75,11.22,21.38,9.72,19.61Z"/><path class="cls-3" d="M184.24,50.33c14.16-3.25,28.85-4.6,41.27-13.51,6.06-4.34,15.16-.66,18.82,6.8-1.42,2.17.2,4.86-1.2,7v-.07c-4.12,4.26-9.65,3.87-14.4,2.92-8.9-1.79-17.2.17-25.42,2.52-10.72,3.07-21.53,5.91-31.84,10.28-3.93-1.6-2.68-5.09-3-8a9.45,9.45,0,0,1,.84-3.35c1.45-2.44,3.78-3.58,6.37-4.33A26.45,26.45,0,0,1,184.24,50.33Z"/><path class="cls-4" d="M171.59,66.07c.22-2.58,2.18-3.64,4.21-4,11.15-2,21.54-6.72,32.57-9.3a58.58,58.58,0,0,1,22.5-.89,29.8,29.8,0,0,0,12.3-1.28c-.18,4.93-3.55,6.46-7.66,7-2.16.29-4.6-.89-6.36,1.32a3,3,0,0,1-3,1.25c-8.76-2.79-16.87.29-25.09,2.73-8.87,2.63-17.45,6.31-26.69,7.63C171.8,70.08,170.3,68.94,171.59,66.07Z"/><path class="cls-5" d="M9.72,19.61c1.87.23,3.93-.35,5.47,1.31-2.93,0-5.85-.06-8.77-.11-.08,0-.25-.32-.23-.47a1.9,1.9,0,0,1,.31-.6Z"/><path class="cls-6" d="M19.52,156.8C8.73,144.5,9,129.67,9.82,114.69c0-.89,0-1.78,0-2.68-.64-1.35.29-1.79,1.27-2.21,7.18,1,8,7.4,10.4,12.37,2.93,6.15,6.08,8.43,10.86,7.25,2.21-.54,3.88-2.59,6.39-2.33,2,1.15,2.61,3.15,3.07,5.15,1.41,6.15,5.09,10.62,10.16,14.13a4.23,4.23,0,0,1,1.38,2.79C46.72,158.94,32.93,162.05,19.52,156.8Z"/><path class="cls-7" d="M93.83,155.57c-4.08,4.44-9.59,5.56-14.55,3.44-12.37-5.29-24.37-3.37-36.54.08a46.71,46.71,0,0,1-15,1.94c-3-.85-6.69-.46-8.22-4.23,6.15-.33,12.15,2.28,18.46.25,5.6-1.8,10.91-3.75,14.73-8.49,2.72-2.21,5.79-.84,8.61-.58,10.52,1,20-1.06,27.85-8.59,4.63-.29,4.6,3.07,4.24,6A37.77,37.77,0,0,0,93.83,155.57Z"/><path class="cls-8" d="M38.76,127.33c-6.24,7.54-15.57,5.46-18.93-4.6-1.64-4.93-3.18-10.2-8.95-12.21-3.34-2.47-6-5.42-7-9.6-.06-1.36-.11-2.72-.16-4.07l3-4.38c.81-1.12,1.57-2.36,3.23-1.25,2.61,4.62,5.79,8.91,8.47,13.45,4.6,7.8,10.93,12.29,19.77,13.48a2.77,2.77,0,0,1,1.21,1.38c.16,2.07-.42,4.16,0,6.24A2,2,0,0,1,38.76,127.33Z"/><path class="cls-9" d="M3.89,100.92c2.19,3.3,6.18,5.29,7,9.6-.35.49-.7,1-1,1.49-2.48,1.08-5.06,2.72-7.22-.38C-.09,107.75,2.06,104.33,3.89,100.92Z"/><path class="cls-10" d="M90.12,139.36c-9.89,13.58-23.58,11.69-37.42,9.2l-1.32-1.41c3.8-6.43,2.51-12.38-1.53-18.21-2.5-3.61-5.29-7.25-3.59-12.16,3.92-5.29,10.16-7.53,15.08-11.51,4.23-3.37,3.54-6.9.41-10.56A30.62,30.62,0,0,0,55.9,90c-4.65-3.89-7-8.67-5.71-14.84.7-3.31,4-7.63-3.11-7.84a3.69,3.69,0,0,1-2.42-1.52,2.42,2.42,0,0,1,0-1.07l9.79-.47c4.17-1.47,6.66.14,7.92,4.21.55,1.77,1.28,3.49,2,5.21,4.5,10.8,9.24,13,20.81,9.88,5.34-5.73,12.14-9.48,18.53-13.8,6.36,4.56,13.36,4.51,20.71,3.27,11.73-2,23.08-5.54,34.69-7.91,5.14-1,7.22-5.26,11-7.63.77,2.8-.6,6,1.49,8.54.16,2,1.44,3.23,2.79,4.46C164.32,75.27,153.5,77.84,143,81.36c-9.8,3.28-18.43,8.61-27.13,13.94-7.76,9.43-14.49,19.59-21.16,29.8-2.36,3.61-4.08,7.24-2.19,11.6C92.83,138.58,91.52,139,90.12,139.36Z"/><path class="cls-11" d="M91.7,137.1l10.2-11c3.14,8.85,1,17.11-2.86,25.16-1.88,1.25-2.43,4.13-5.22,4.28-3.84-1.39-3.11-4.46-2.65-7.37s1.88-6.2-1.06-8.84Z"/><path class="cls-12" d="M103.11,70.13c-1.81,4-3,7.93-9.16,7.54-3.73-.23-3.26,6.49-7.51,7.27-.13-7.14-3.85-11.25-10.2-14.42a16.22,16.22,0,0,1-9.3-13c-1.34-3.11-.65-5.22,2.76-6.41,8.06-2.81,14-7,14.79-16.86a10.26,10.26,0,0,1,10-9.14c4.72,0,7.26,4.28,8.81,8.49A37.28,37.28,0,0,1,106,46.41c.13,2-.59,4.23,1.55,5.68,1,3.59.19,7.13-.32,10.68C106.26,65.46,105.88,68.48,103.11,70.13Z"/><path class="cls-13" d="M66.94,57.55c4,6.58,8.76,12.31,16.22,15.18,6.64,2.56,4.09,7.63,3.28,12.21-11,4.56-18.6,1.61-23-8.94a46.25,46.25,0,0,1-3-7.79c-.77-3.58-2.8-4.47-6-3.91C58.52,61.91,64.11,62.24,66.94,57.55Z"/><path class="cls-14" d="M106,62.75C125.05,64,143.3,59,161.74,55.49c2.9-.54,5.72-1.78,8.75-.8l-.39,2.8c-.69,5.39-3.85,7.79-9.12,9-15.25,3.6-30.21,8.51-46,9.16-5,.21-9.18-1-11.83-5.6Z"/><path class="cls-15" d="M44.66,65.84l2.73.32c6,.44,5.58,4.12,4.15,8.29-1,6.09,1.22,11,5.56,15.19,5,4.52,7.79,9.78,5.56,16.71l-15.12,10c-1,.61-1.33,1.7-1.83,2.7-1.79,3.52-3.71,4.76-5.69.06-.55-1.31-2.16-1.55-3-2.59a6.7,6.7,0,0,1-1-2.79c.28-4,2.29-8.35-2.21-11.44C32.89,96.21,32.49,90.08,31.5,84c-.3-1.85-.63-3-2.6-3.21-3.23-2.57-7.32-4.08-9.53-7.88-.39-2-5-.82-3.24-4.06,1.33-2.4,3.41-4.37,6.64-4.35C30.06,64.58,37.42,64.31,44.66,65.84Z"/><path class="cls-16" d="M19.33,72.94c3.59,1.84,7.45,3.31,9.6,7.09,3.77,5.55,4.6,11.91,5,18.37-2.67.54-2.59.46-4.71-1.68-4.54-4.6-9.47-8.33-16.54-6.56-.88.88-1.8,1.7-3.2,1.19L6.73,92.47c-.54-3.93-4.23-6-5.59-9.49-1.15-3-2-5.62.38-8.42C3.74,72,6.4,71.32,9.64,71.82S16.11,72.58,19.33,72.94Z"/><path class="cls-17" d="M37.75,116.28l1,2.8c-8.53.22-15.29-2.8-19.48-10.59-3.11-5.78-9.31-9.82-9.71-17.14l2.91-1.55c3.71,0,4.69,3.32,6.43,5.54,2.86,3.65,5,7.85,8.34,11.15,2.52,2.76,5.87,4.28,9.1,6a3.28,3.28,0,0,1,1,1.48C37.52,114.75,37.61,115.5,37.75,116.28Z"/><path class="cls-18" d="M39,120.43c1.63,2,.51,3.77-.27,5.6C37,124.07,36.91,122.2,39,120.43Z"/><path class="cls-19" d="M34.57,102.4,36,110.49c-3.87,1.35-6.41-2-9.68-2.75C20.58,102.65,18,95.09,12.44,89.8c-.64-1.8-2.67-4.3,1.91-2.92C22,89.19,29.51,91.49,33.29,99.51,33.72,100.48,34.14,101.44,34.57,102.4Z"/><path class="cls-20" d="M26.36,107.75A18.39,18.39,0,0,1,36,110.5l.27,2.91C32.15,113,29.15,110.55,26.36,107.75Z"/></g></g></g></svg>