<svg id="Layer_1" data-name="Layer 1" xmlns="http://www.w3.org/2000/svg" viewBox="0 0 1366 768"><defs><style>.cls-1{fill:#c87a81;}.cls-2{fill:#a62833;}.cls-3{fill:#380913;}.cls-4{fill:#bd6068;}.cls-5{fill:#fa1e25;}.cls-6{fill:#651f40;}.cls-7{fill:#390c15;}.cls-8{fill:#f92128;}.cls-9{fill:#f82127;}.cls-10{fill:#3d1019;}.cls-11{fill:#a92e39;}.cls-12{fill:#7e3341;}.cls-13{fill:#f8f5f3;}.cls-14{fill:#c7787e;}.cls-15{fill:#651e40;}.cls-16{fill:#be626a;}.cls-17{fill:#fa1f25;}.cls-18{fill:#3a0a14;}.cls-19{fill:#fac9c2;}.cls-20{fill:#a72a35;}.cls-21{fill:#f9d1c4;}.cls-22{fill:#f8bdbc;}.cls-23{fill:#9e283d;}.cls-24{fill:#9e253a;}.cls-25{fill:#fdc7c9;}.cls-26{fill:#9e263a;}.cls-27{fill:#9c253a;}.cls-28{fill:#c5737a;}.cls-29{fill:#f1b8bd;}.cls-30{fill:#edbdb7;}.cls-31{fill:#e8c4b9;}.cls-32{fill:#c97c83;}.cls-33{fill:#b9171c;}.cls-34{fill:#fa857b;}.cls-35{fill:#f3d9da;}.cls-36{fill:#8c2a3f;}.cls-37{fill:#ac3741;}.cls-38{fill:#fcadae;}.cls-39{fill:#fbaaa3;}.cls-40{fill:#a82c37;}.cls-41{fill:#6e354c;}.cls-42{fill:#fb1e25;}.cls-43{fill:#6f2026;}.cls-44{fill:#641e3e;}.cls-45{fill:#672040;}.cls-46{fill:#fcaaa4;}.cls-47{fill:#fbd4c6;}.cls-48{fill:#fbacad;}.cls-49{fill:#fbadae;}.cls-50{fill:#6f2126;}.cls-51{fill:#faacad;}.cls-52{fill:#6e2126;}.cls-53{fill:#faacac;}.cls-54{fill:#6e2026;}.cls-55{fill:#fbacae;}.cls-56{fill:#f9837b;}.cls-57{fill:#921931;}.cls-58{fill:#ba5962;}.cls-59{fill:#faabab;}.cls-60{fill:#f5d0c2;}.cls-61{fill:#f9f3f2;}.cls-62{fill:#c26d74;}.cls-63{fill:#c36f76;}.cls-64{fill:#f0c9bc;}.cls-65{fill:#fac0bf;}.cls-66{fill:#fba2a2;}.cls-67{fill:#b61d21;}.cls-68{fill:#f9b5b9;}.cls-69{fill:#83272d;}.cls-70{fill:#5c0810;}.cls-71{fill:#fbbabf;}.cls-72{fill:#faa5a0;}.cls-73{fill:#fad9c9;}.cls-74{fill:#f2cdc1;}.cls-75{fill:#bb5c64;}.cls-76{fill:#faa7a6;}.cls-77{fill:#fbe5df;}.cls-78{fill:#fbd8d4;}.cls-79{fill:#fb9595;}.cls-80{fill:#ab353f;}.cls-81{fill:#f9bebf;}.cls-82{fill:#24020a;}.cls-83{fill:#fcddde;}.cls-84{fill:#823135;}.cls-85{fill:#6e2429;}.cls-86{fill:#451016;}.cls-87{fill:#d18a8d;}.cls-88{fill:#f5f5f5;}.cls-89{fill:#fe1e26;}.cls-90{fill:#fcd5c6;}.cls-91{fill:#390913;}.cls-92{fill:#f81f25;}.cls-93{fill:#f71f24;}.cls-94{fill:#bf646c;}.cls-95{fill:#f5282e;}.cls-96{fill:#42151b;}.cls-97{fill:#e1b3b4;}.cls-98{fill:#fa2128;}.cls-99{fill:#9c1d34;}.cls-100{fill:#931831;}.cls-101{fill:#9e2338;}.cls-102{fill:#fbadad;}.cls-103{fill:#f9847c;}.cls-104{fill:#faa9aa;}.cls-105{fill:#fa9b9d;}.cls-106{fill:#f48383;}.cls-107{fill:#fa2228;}.cls-108{fill:#ef292f;}.cls-109{fill:#fbd3cc;}.cls-110{fill:#b9555e;}.cls-111{fill:#fefefe;}.cls-112{fill:#fdfdfc;}.cls-113{fill:#fa252c;}.cls-114{fill:#faccbf;}.cls-115{fill:#fa272d;}.cls-116{fill:#f7827a;}.cls-117{fill:#fab6a7;}.cls-118{fill:#faece8;}.cls-119{fill:#f73135;}.cls-120{fill:#eb1c22;}.cls-121{fill:#fbd3c5;}.cls-122{fill:#fc9494;}.cls-123{fill:#9b2235;}.cls-124{fill:#fbe2de;}.cls-125{fill:#fa8486;}.cls-126{fill:#390a13;}.cls-127{fill:#3a0914;}.cls-128{fill:#52141b;}.cls-129{fill:#400c14;}.cls-130{fill:#b61d20;}.cls-131{fill:#fb9697;}.cls-132{fill:#400f18;}.cls-133{fill:#c26b72;}.cls-134{fill:#b02027;}.cls-135{fill:#bc5e66;}.cls-136{fill:#f8827a;}.cls-137{fill:#b51a1e;}.cls-138{fill:#ac8a9b;}.cls-139{fill:#f6cec1;}.cls-140{fill:#bc787f;}.cls-141{fill:#f4272c;}.cls-142{fill:#fadfd3;}.cls-143{fill:#fac2c2;}.cls-144{fill:#fbc1c0;}.cls-145{fill:#f91f25;}.cls-146{fill:#fa9698;}.cls-147{fill:#fefefd;}.cls-148{fill:#fbc3c4;}.cls-149{fill:#fad3c5;}.cls-150{fill:#fa9898;}.cls-151{fill:#f9887f;}.cls-152{fill:#aa333d;}.cls-153{fill:#faa8a9;}.cls-154{fill:#f0bab1;}.cls-155{fill:#fbc3c2;}.cls-156{fill:#f9bab8;}.cls-157{fill:#f9a9aa;}.cls-158{fill:#96354b;}.cls-159{fill:#98394d;}.cls-160{fill:#a13d50;}.cls-161{fill:#a73f51;}.cls-162{fill:#9c4452;}.cls-163{fill:#94364c;}.cls-164{fill:#3b0914;}.cls-165{fill:#9e3950;}.cls-166{fill:#280409;}.cls-167{fill:#491219;}.cls-168{fill:#9b3850;}.cls-169{fill:#fab0aa;}.cls-170{fill:#f9e1e1;}.cls-171{fill:#fba3a3;}.cls-172{fill:#e17872;}.cls-173{fill:#260305;}.cls-174{fill:#6e2025;}.cls-175{fill:#f92026;}.cls-176{fill:#f61f26;}.cls-177{fill:#f51f24;}.cls-178{fill:#c16970;}.cls-179{fill:#4a1119;}.cls-180{fill:#3d0a14;}.cls-181{fill:#550f1a;}.cls-182{fill:#47151e;}.cls-183{fill:#fbaeae;}.cls-184{fill:#fbc0c0;}.cls-185{fill:#c0666e;}.cls-186{fill:#fac2c1;}.cls-187{fill:#fbc1c1;}.cls-188{fill:#2d040b;}.cls-189{fill:#91324c;}.cls-190{fill:#b8535c;}.cls-191{fill:#fbbfbe;}.cls-192{fill:#faa8a8;}.cls-193{fill:#fa9093;}.cls-194{fill:#fac5c4;}.cls-195{fill:#fbbfbf;}.cls-196{fill:#faafb0;}.cls-197{fill:#faa2a1;}</style></defs><g id="_0G" data-name=" 0G"><path class="cls-1" d="M956.81,536.24c3.17.8,6.51.35,9.71,1,4.08.82,8.72.75,11.53,4.32,5.64,7.18,10.34,15,12.08,24.11,1.4,7.29-3.91,12.06-7.91,17.13a6.6,6.6,0,0,0-.93,1.88,11.19,11.19,0,0,0-.55,3.2,11.55,11.55,0,0,0,1.25,6c1.74,1.66.36,4.5,2.36,6,3.36-.43,6,2.48,9.33,2.07,4.23,1.13,8.36,2.64,12.51,4.09,18.71,4,37.55,7.43,56.49,10.13,34.3,4.32,69.14,6.28,103.59,2.8a82.17,82.17,0,0,0,11-3,117.24,117.24,0,0,0,16.2-9.73,194,194,0,0,0,26.24-27q4.47-6.06,8.57-12.39-2.64-4-5.2-8.07c-.75-1.19-1.9-2.06-3.48-1.06-3.82,4.65-6.8,10-11.3,14.07-2.23,2.21-3.67,5-5.85,7.21-2.75,2.55-4.61,5.86-7.19,8.55-3.23,2.66-4.65,8-10.32,7.11-19.56.14-39,2.17-58.56,1.37a19.24,19.24,0,0,0-5.56.42c-5.38,1.35-10.06-.11-14.53-3.11-12.36-8.31-24.81-16.48-37.18-24.78-.53-.37-1-.76-1.61-1.09.7,0,1.34.25,2,.25,8.82-.3,17.67.53,26.47-.57,9.38-1.94,19,0,28.38-1.23,5.33-1.77,10.85-.76,16.28-1.15a14.37,14.37,0,0,0,3.39-.55,9.89,9.89,0,0,0,2.08-.85c2.54-1.39,5.45-1.08,8.13-1.78,1.45-.33,4.07-.34,2.71-3.23,3.1.46,6.13,1.21,9.19,1.83a26.64,26.64,0,0,0,10.71-.1c2.6-1.81,5.71-.61,8.6-1.4,7.1-1.93,10.21-8.11,15-12.48,3.06-2.7,6.2-5.34,6.69-9.8-.27-3.3-2.22-5.72-4.22-8.13a6.46,6.46,0,0,0-2.64-1.62,120.27,120.27,0,0,1-22.48-7.08c-9.45-4.2-19.63-7.8-22.83-19.44a2.33,2.33,0,0,0-1.93-.61c-4.87,4.42-11.83,6.51-14.66,13.19.42,1.83,1.88,2.57,3.42,3.17a85.9,85.9,0,0,1,15.07,7.31c6.07,3.81,5.87,8-.4,11.52-4.55,2.55-9.55,3.71-14.55,4.8-24.56,5.37-49.49,5.44-74.4,4.37-9-.39-18.11-1.78-26.6-5.45-6.09.6-9-3.34-11.31-8-3,2.48-5.78,2.22-9.33.62-10.9-4.91-22-9.59-34.15-10.19-6.52,2.64-13,4.57-20.28,2.69-3.39-.88-7,.47-10.16,1.88-2.7,1.2-4.68,3.28-4.49,6.5S954.39,535.59,956.81,536.24Zm197.74,21.87A21.94,21.94,0,0,1,1151,558,31.59,31.59,0,0,1,1154.55,558.11Z"/><path class="cls-2" d="M669.21,500c12.34-9.31,22.4-21.12,34-31.18,3.14-2.71,6-5.74,9.13-8.46,1.39-1.21,1.35-2.14.19-3.32,3.15-3.45,7.38-5.46,11.06-8.19,4.46-3.33,2.15-4.6-1.13-6-3.76-1.58-7.76-1.12-11.69-1.21-4.63-.1-9.28.34-13.88-.59-3.13-1-6.36-.63-9.55-.76a175,175,0,0,1-35.48-10.07c-2.31-1.35-5.41-1.68-6.37-4.82-.57-2.54-.57-5,1.31-7.08,6.68-2.82,13.7-1.74,20.51-1.21,15.89,1.23,31.74,3,47.47,5.65,5.55,1.48,11.18,2.75,16.3,5.5a17.4,17.4,0,0,1,1.79,1c9.36,5.26,17.11,12.66,25.51,19.22,3.83,2.92,4,8,7,11.5,6.29,7.46,14.09,13.49,20.11,21.2.67.85,1.59,2.18,2.71.9,3.91-4.44,5.9.54,8.69,1.6a8.75,8.75,0,0,1,1.78,2.32c1.25,6,5.9,9.45,10.2,13.13,6.78,7.13,11.31,15.8,16.49,24a4.12,4.12,0,0,1,.65,4c-8.21,5.22-22.34,4.08-27.89-3.74-6.67-9.39-15.39-13.14-26.24-15-14.06-2.39-23.7-13.25-26.15-27.49-2.63-15.31-4.53-16.3-18.5-9.26-6.44,3.24-13.1,6-19.28,9.83-8.71,5.36-16.27,11.52-19.62,21.81-2,6.14-7,10.34-11.36,14.85-1.4,1-2.66.38-3.92-.33-3.24-3.7-8.21-5.75-10.25-10.62C663.41,503.39,666,501.41,669.21,500Z"/><path class="cls-3" d="M676.08,518.3c-.11-2.44,1.57-3.81,3.18-5.12a27.26,27.26,0,0,0,9-13.86c1.86-6.58,6.34-10.69,11.4-14.47,10.51-7.85,22.59-12.86,34.27-18.53,6-2.9,11.38,0,12.22,6.63C747.7,485.13,751,496,762.3,503c5,3.05,10.4,4.14,15.82,4.93,7.53,1.1,13.77,3.49,17.91,10.34,7.14,11.81,18.08,11.13,29.49,8.54,4.19,2.07,7.1,4.84,5.58,10.07-4.33,0-8.38,1.64-12.62,2.13-7.81,1.12-15.61,2.35-23.43,3.33-11,1.38-19.78-3.62-27.95-10.17a6.24,6.24,0,0,1-2.72-2.93c-9.3-13-18.45-26.22-28-39.12-6.14-8.33-10-8.1-16.84.25-1.29,1.18-3,1.72-4.46,2.53l-9.52,7.18c-1.74,1.61-3.24,3.6-5.91,3.75l.24.26-.19-.3a29.25,29.25,0,0,1-9.7,7.31l-1.35,1a18.06,18.06,0,0,1-5.7,4.53l-1.35.85c-.72,1.7-2.19,2.35-3.84,2.76a1.68,1.68,0,0,1-1.7-1.66A2.64,2.64,0,0,1,676.08,518.3Z"/><path class="cls-4" d="M887.36,556.19a46.75,46.75,0,0,1-12.64-8.58c.33-2.22,1.95-3.6,3.46-4.94,2.23-2-.12-2.52-.93-3.58.56-5.22,4.81-7.83,8.28-10.5,6.24-4.82,11.13-11.05,17.32-15.89.59-.46-2.58-1.45-2.24-3.38.33-2.59,2.08-4.53,3.09-6.81,2.53-5.68,1.71-11.06-1.33-16.28A12.34,12.34,0,0,1,906,480.9c6.38-3.64,13.47-2.13,20.26-2.71,1.71-.15,2.84,1.32,3.72,2.73,1.34,3,2.65,6.08,1.63,9.52-6.26,4.62-11.09,10.81-17.09,15.73-2.08,1.71-2.85,3.41-1.57,5.85-3.08,6.86-9.5,10.66-14.51,15.73-2.25,2.27-5,4-7.34,7.31,18-.33,35-2.37,52.16-2.64a4.16,4.16,0,0,1,1.66,1.14c-1,5.34-5.65,8.26-8.48,12.38-6.14,8.94-12.44,17.81-19.71,25.92a2.5,2.5,0,0,1-2.81-.59h0C904.07,568.09,895,563.39,887.36,556.19Z"/><path class="cls-3" d="M652.54,428.74a230,230,0,0,0,34.75,9.74c3.11,1.79,6.74-.32,9.87,1.3,6.27,0,12.54,0,18.81-.06,2.82,0,5.57.13,8.1,1.54,2.2,1.24,5.42,2,5.78,4.58.39,2.77-3.18,2.71-4.94,4-3.9,2.76-6.88,7.13-12.33,7.22-17.61-3-34-10.06-51.13-14.78-4.44-1.22-8.82-2.69-13.23-4-3.33-2.08-3.83-5.18-2.21-8.32C647.43,427.12,650.08,427.58,652.54,428.74Z"/><path class="cls-5" d="M831.27,535.92l-5.75-9.1a193.85,193.85,0,0,0-17.73-27c-3-3.93-6.88-7.25-7.93-12.41a3.35,3.35,0,0,1,.77-1.8c4.79-1.34,7.33,1.85,9.74,5,3.4,4.46,5.79,9.56,8.52,14.42,6.57,11.69,15.48,21.54,24.32,31.4,6.09,6.8,8.32,6.53,15.81,1,3.87-2.89,6.3-7.62,11.41-8.91a7.69,7.69,0,0,1,6.41,4.46c.33,2.25-1.06,3.72-2.37,5.23a49.87,49.87,0,0,1-4.81,4.38c-2.06,1.16-4.11,2.32-6.15,3.51l-9.75,6.9c-3.91,1.85-7.59,1.15-11.12-1-4.58-3.25-7.19-8-9.84-12.75A8.11,8.11,0,0,1,831.27,535.92Z"/><path class="cls-6" d="M578.62,408.19a7.8,7.8,0,0,1,5.34-.77c6.27.19,12.41,2.21,18.76,1.47a13.57,13.57,0,0,1,2,.38,28,28,0,0,0,6.85,1.16,11.53,11.53,0,0,1,2,.52,10.77,10.77,0,0,1,3.54,2.17,4.79,4.79,0,0,1,1.54,4.42c-1.47,5.46.09,10.43,2,15.4-2.62,4.14-7,2.71-10.75,3.47a3.92,3.92,0,0,1-3.61-1.9l-1.5-1.64c-4.08-2.3-7-6.07-11-8.53h0c-2.75-1.55-6.44-1.17-8.53-4.1l-1.59-1.33c-1.37-1.41-3.34-2.3-3.92-4.42Q579.22,411.35,578.62,408.19Z"/><path class="cls-6" d="M616.14,536a27.83,27.83,0,0,1-3.82-3.93c-3.14-4.82-1.72-7.88,3.94-8.74,2.73-.42,5.49-.63,8.24-.93,4.86-.79,9.67-1.84,14.53-2.6a.53.53,0,0,0,.76-.09h0a.56.56,0,0,0,.09-.17c1.79-1.15,3.57-2.35,5.87-2,3.08-.27,4.77,1.42,5.35,4.18.66,3.16,2.23,6,3,9.1-4.3,6.5-11,5-17.23,5.26-5-1-10.09-.75-15.14-.32C619.9,536.44,618,535.46,616.14,536Z"/><path class="cls-7" d="M637,534.89c5.75-.69,11.69-.59,16.79-4l.87-.56c3.91.09,8-2.8,11.73.66-.37,6.64-5.45,8.3-10.49,8.87-8,.9-15.95.82-23.92,3.15-6.06,1.76-11.3-2.92-15.86-7,.69-3.2,2.9-.44,4.24-1.08A47.7,47.7,0,0,1,637,534.89Z"/><path class="cls-1" d="M653.81,530.86c-3.34-1.44-3.67-4.47-3.95-7.51-.25-2.69-.83-5.11-4.11-5.53-.64-.17-.85-.36-.66-.57a.87.87,0,0,1,.61-.33c4.2-.95,7.64-3.32,10.94-5.93,1.76-2.28,3.81-4.05,6.93-4,2.94,3.71,7.72,5.58,10,9.93a4.81,4.81,0,0,1-3.42,3.08c-6.76,1.54-10.55,7.6-16.36,10.53Z"/><path class="cls-8" d="M645.25,437l-13.46-1.84c-3.35-1.4-7.64.86-10.43-2.71,5.81-8.66,16.48-10.78,24.67-4.91C645.91,430.75,647,434,645.25,437Z"/><path class="cls-9" d="M653.82,530.57c4.39-7.74,12-10.82,19.78-13.61l2.48,1.34,1.47,1.47c.79,1.69-.63,2-1.61,2.49l-1.3.82a30.21,30.21,0,0,1-6,6.11L666.41,531C662.25,529.43,657.91,534.22,653.82,530.57Z"/><path class="cls-10" d="M622.25,432.45c3.16,1,6.94-.18,9.54,2.76A20.16,20.16,0,0,0,623,440.8c-8.25,2.52-10.19,1.84-14-4.88,3.15-3.48,8.18-.08,11.44-3.12A1.32,1.32,0,0,1,622.25,432.45Z"/><path class="cls-11" d="M877.56,539l5.44.47c-2.7,3.49-5.12,6.16-8.28,8.13-1.13-.12-2.29-.19-2.65-1.58-2-4,1.34-5.3,3.55-7.2A2.28,2.28,0,0,1,877.56,539Z"/><path class="cls-4" d="M876.3,539.25c-1.16,2.42-4.31,3.59-4.23,6.78l-1.83-1.23c-.41-.82-1.73-1.27-1.07-2.54a7.7,7.7,0,0,1,4.14-4.59A3.15,3.15,0,0,1,876.3,539.25Z"/><path class="cls-12" d="M645.25,437c0-3.25.09-6.5.14-9.76-.36-1.19.24-1.6,1.32-1.65,1.17,2.48,4.57.79,5.83,3.11-6.55.51-7.14,1.81-4.32,9.46A3,3,0,0,1,645.25,437Z"/><path class="cls-13" d="M831.27,535.92c.79,1,1.9,1.75,1.53,3.24-4.74-3.31-9.56,1.39-14.32-.14C822.45,536.78,827,536.82,831.27,535.92Z"/><path class="cls-13" d="M842.64,551.91A22.38,22.38,0,0,0,853.76,553C849.78,555.47,846,555.85,842.64,551.91Z"/><path class="cls-14" d="M1252.41,474.54c3.83,2.81,7.54,5.78,11.42,8.51.28-.67.57-1.33.86-2a103.16,103.16,0,0,1,10.64-18.72c-4.43-3.22-8.78-6.67-14.65-7.14-6.74,1.67-10.53,6.27-12.52,12.65C1248.23,470.94,1250.14,472.87,1252.41,474.54Z"/><path class="cls-2" d="M1199.39,544.79a27.72,27.72,0,0,0,7-8.13c.37-1.32.52-2.85,1.64-3.74,13.15-10.53,4.7-23.22,3.52-35.16-.33-3.34-5.57-2.53-5.59-6.28,4.29-.83,4.74-3.43,3.76-7.23-1-4-1.7-7.69-7.11-7.63-4.06.05-7.66,1.39-11.28,2.91a4.23,4.23,0,0,1-2-.07c-4.06-6-11.2-8.23-16.08-13.24,3.94-8.4,8.09-16.73,9.67-26,3.13-3.68,7.47-5.69,11.44-8.21,1.17-.63,2.36-1.22,3.55-1.81,4.81-2.27,10-3.39,14.91-5.5,8.32-2.67,12.62-9.93,18.11-15.85,8.41-3.08,17.06-1.41,25.63-1.32a84.44,84.44,0,0,1,13.51,4.45c3.85,2.26,8.69,3.21,10.64,8a5.13,5.13,0,0,1-1.51,2.77c-4.23,3.41-9.27,5.28-14.11,7.57-13.33,6.3-23.76,15.37-28.81,29.75a50.42,50.42,0,0,1-7.52,13.36c-4.22,5.66-4.52,11.49-1.52,17.72a76.79,76.79,0,0,1,6.75,20.49c1.28,7.61-.12,14.54-5.26,20.23-6.22,6.87-14,12-21.08,18C1204.41,549,1200.28,549.54,1199.39,544.79Z"/><path class="cls-15" d="M1186.46,596.25,1116,598.93a13.34,13.34,0,0,1-8-2.18c-13-8.56-26.09-17.09-39.09-25.71-.64-.42-.79-1.56-1.17-2.37,2.42-2.3,5.47-1.26,8.27-1.53,6-.23,12.1.5,18.12-.45a24.5,24.5,0,0,1,8.3-.94H1106c6.34-.31,12.71.69,19-.61,3.35-1.34,6.86-.57,10.3-.78,3.19-.31,6.57.84,9.53-1.24h-.24c3.83-1.18,5.81,2.12,8.49,3.62s4.82,3.77,8.23,2.92c3.14-.15,6.3-.58,9.3.81a2.17,2.17,0,0,1,1,1.67c-1.84,3-4.72,2-7.39,2,5.34,5.82,14.09,7.73,18,15.33C1183,592.15,1187.11,592.71,1186.46,596.25Z"/><path class="cls-4" d="M1139,511.51c4.77,4.47,11.5,5.18,16.76,8.73,1.89,1.28,4.16,1.86,5.74,3.77,3.48,4.21,3.75,7.67-1.31,10.91-8.45,5.41-18.14,6.65-27.64,8.38-20.63,3.75-41.53,3.42-62.32,2.6-10.36-.4-21.32-.36-30.55-6.81a5.58,5.58,0,0,1,3.37-3.81c5.86-1.17,11-4.29,16.7-6a38.72,38.72,0,0,0,18.62-5.21c5-2.85,10.45-3.85,15.94-4.91,12.76-2.12,25.41-4.81,38-7.63C1134.57,511,1136.83,510,1139,511.51Z"/><path class="cls-16" d="M1030,530.77c-1.47,5.33-4.17,5.09-8.65,2.83-10.94-5.5-22.43-9.62-34.68-11.25-1.39-1.54-.69-3.08,0-4.64,2-3.77,5.6-5.68,9.11-7.7.8-.46-.09.26.48-.45.3-.37-.18-.82-.82-.79-2.23-.35-5.46.24-5.73-2.58-.21-2.12,2.78-2.7,4.68-3.41,5.82-2.17,11.83-3.8,17.67-5.9,2-.8,3.87.51,5.83.47,3.11-.46,5.59-2.64,8.68-3.16,26.87-3.42,53.49-2.82,79.69,4.77a18.71,18.71,0,0,1,3.92,1.34c2.89,3.83-1.12,4.12-2.87,4.83-5.07,2.06-10.22,4-15.36,5.84-6.57,3-13.23,1.54-19.83.26-8.92-1.73-16.74-1-23.46,6.42-4.61,5.09-12.47,6.13-17,11.74A4.35,4.35,0,0,1,1030,530.77Z"/><path class="cls-16" d="M988,518l-1.35,4.34c-6.36,2.78-12.65,5.66-19.92,3-1.6-.59-3.71-.15-5.51.21-3.89.77-9,1.93-8.57,6.33.34,3.38,5.52,3.15,8.94,3.07,11.56-.3,20.3,3.7,24.37,15.34a62.77,62.77,0,0,0,3.4,6.88c5,10,3.93,16.21-4,24.53-1.11,1.17-2,2.52-3,3.78-.55.53-1,.47-1.21-.29-3.54-5.54-6.62-11.44-13.52-13.81-2.27-.78-4.27-1.37-6.5-.3-1.84,0-3.7-.94-5.52.11s-3.82,1.92-5.13,3.41c-7.12,8.1-14.83,8.72-23.4,2.43a46.11,46.11,0,0,0-4.79-2.72c-1-3.47,1.63-5.55,3.23-7.85,5.92-8.49,11.88-16.94,17.75-25.45,1.49-2.16,3.8-4.37,1.47-7.38l-.15-.18c-1.53-2.71.52-4.14,2.22-5.81-2.9.9-6.36,1.37-7.32-1.51-.83-2.51,2.72-3,4.73-3.81,11-1.2,22.17.19,33.21-.81,2.7-1,5-2.72,7.57-4A3.07,3.07,0,0,1,988,518Z"/><path class="cls-4" d="M1206,491.85c5.91.25,8.15,3.69,8.42,9.22a29.72,29.72,0,0,0,1.44,8.87c4.39,11.69-.62,19.84-9.47,26.72l-4.36-7.41c3.35-1.22,3-2.87,1.21-5.55-7.64-11.1-15.41-22.12-23-33.27a5.06,5.06,0,0,1,0-4.14,3.77,3.77,0,0,1,1.67-1.39,16.14,16.14,0,0,1,11.75,1.23C1197.52,488.74,1202.62,488.51,1206,491.85Z"/><path class="cls-4" d="M1200.63,527.94c-14.48-1.87-27.53-7.6-39.68-15.36-4.18-2.68-7-6.8-6.58-12.33,5.37-.84,10.71-2,16.14-.16,4.58,1.56,6.28-2.9,9.26-4.69,2.48,0,3.63,1.82,4.85,3.5,5.44,7.55,9.81,15.8,15.35,23.29C1201.16,523.81,1202.29,525.81,1200.63,527.94Z"/><path class="cls-4" d="M1220.08,558.85c1.24-1.19,1.44.1,1.89.81l5.47,8.48c1.71-2.58,3.35-5.19,5-7.83l-3.7-5.39c-2.55-3.74-4.43-8.2-8.68-10.61-3,.15-4.39,2-5.13,4.6,0,3.64,1.91,6.61,3.35,9.74A1.44,1.44,0,0,0,1220.08,558.85Z"/><path class="cls-17" d="M1179.7,496c-1.79,5.57-5.13,7.63-11,5.52-2.81-1-5.86-2.4-9,.52-2,1.86-3.4-1.61-5.38-1.8a5.49,5.49,0,0,0-.89-.4c-1.76.13-3-1-4.32-1.87-4.39-3.37-9.57-5.6-13.66-9.4a6,6,0,0,1-.38-4.18,5.22,5.22,0,0,1,3.81-3.61c2.78-.42,4.84,1.19,7,2.54,10.58,6.69,21.26,11.94,33.11,2.59a2.2,2.2,0,0,1,2,0c0,1.37.09,2.74.13,4.11C1182.41,492.47,1182.24,494.53,1179.7,496Z"/><path class="cls-1" d="M1171.22,572.63l.12-1.2c-.65-3.4,1.2-6.06,2.58-8.87.86-1.82,2.53-2.73,4.19-3.65.68-4.88,4.16-.75,6.18-1.39,7.13-2.28,10.27-8.33,15.1-12.73l8.09,4.21a1.87,1.87,0,0,1,.59,1.77c-1,3.32-3.46,5.61-5.91,7.88a5,5,0,0,1-1.72,1.18q-15.45,4-17.62,19.85c-6,.48-3.82-4.72-5.22-7.5-1.63,1.67-2.64,4.54-5.66,3.67C1170.42,575.42,1170.08,574,1171.22,572.63Z"/><path class="cls-18" d="M1150.33,497l3.15,2.85c-3.81,5.12-9,8.49-14.43,11.65-14.62,4.36-29.59,7-44.62,9.38a3.49,3.49,0,0,1-1-3.11c1.09-3.54,4.23-3.91,7.16-4.53,6.1-1.28,12.28-2.08,18.4-3.35a57,57,0,0,0,23.32-10.09C1144.6,498.07,1146.85,495.61,1150.33,497Z"/><path class="cls-19" d="M1030,530.77a3.44,3.44,0,0,0,.24-1.1c.65-2.34,2.55-2.93,4.6-3.32,3-.28,5.38-2.19,7.94-3.6a11.52,11.52,0,0,1,2-.69c3.52-.78,7-1.89,10.67-.9,3.41,1.38,7.37-.08,10.63,2.05,1,3.71-2.06,3.3-4,3.61-2.93.46-6,.31-8.12,2.95-3.12,3.28-7.39,4.59-11.24,6.63l-3,2.69C1030.8,540.14,1030.07,539.52,1030,530.77Z"/><path class="cls-20" d="M1179.7,496c.49-2,1-4,1.46-5.95,10.46,12.14,18.42,26,27.84,39.24-2.73,1.82-4.81-.57-6.93,0l-1.44-1.31C1194.53,516.73,1188,505.76,1179.7,496Z"/><path class="cls-21" d="M1178.11,558.91c-.95,1.43-1.9,2.86-2.86,4.27-6.12.83-10.45,5.05-15.38,8.14-6.6.13-9.75-6.2-15.22-8.17,2.77-5.8,9.08-1.17,12.76-4.32a10.64,10.64,0,0,1,8.18-.14Z"/><path class="cls-22" d="M1105.53,567h-2.85c-2.16-1.59-5,.4-7.12-1.4,9.68-2.73,19.58-.82,29.36-1.39,3.49-1.21,7.07-.4,10.61-.51a1.12,1.12,0,0,1,1,1.24v0a1.15,1.15,0,0,1-.23.53l-10.65.34C1119,567.39,1112.15,565.39,1105.53,567Z"/><path class="cls-23" d="M1186.46,596.25c-.87-2.75-5.13-2.53-5.25-6,4.66-.64,9.28-1.39,13.33-4a2.47,2.47,0,0,1,2,1.93C1193.33,591.08,1192.62,597.05,1186.46,596.25Z"/><path class="cls-24" d="M1218.81,558.51c.42.12.84.23,1.27.32-2.55,5.59-6.62,10-11,14.21a2.76,2.76,0,0,1-2-1.95,26.11,26.11,0,0,1,9.86-12.8A2.2,2.2,0,0,1,1218.81,558.51Z"/><path class="cls-25" d="M1095.56,565.65c2.37.48,5.09-.83,7.12,1.4l-7.9.31c-6.06,1-12.16.22-18.23.45-3-.32-6.06.73-8.94-.7C1076.79,564.13,1086.25,566.34,1095.56,565.65Z"/><path class="cls-26" d="M1196.5,588.17l-1.63-1.79c.44-4.23,2.41-7.27,6.67-8.53a2.47,2.47,0,0,1,2,1.93Z"/><path class="cls-27" d="M1203.51,579.78l-1.62-1.71c.32-3.53,1.35-6.48,5.59-6.76.55.57,1.09,1.15,1.63,1.72Z"/><path class="cls-28" d="M1165.59,558.69l-8.18.14h-8.13C1154.73,558,1160.22,555.91,1165.59,558.69Z"/><path class="cls-29" d="M1136.28,564.35l-11.36-.09c5.48-2.5,11.28-.75,16.91-1.28C1140.77,566.63,1138.38,564.91,1136.28,564.35Z"/><path class="cls-30" d="M1136.28,564.35c1.91-.21,4.08.63,5.55-1.37l3.06.12c-1.75,4.82-5.7,1.84-8.64,2.45Z"/><path class="cls-31" d="M1067.61,567.11h8.52c.46.26.61.52.46.78s-.31.39-.47.39l-8.36.36C1067.13,568.21,1066.44,567.75,1067.61,567.11Z"/><path class="cls-32" d="M870.67,529.17c-4.36,3.79-9,7.32-13,11.42-5.19,5.28-9.5,3.17-13.63-1-12.26-12.41-23-25.92-31-41.52-2.74-5.32-5.43-10.93-12.32-12.16-1.56.39-2.65-1.32-4.2-1l-5.85-3.75c-1.43,1.39,1.51,3.74-1,4.63-1.9.66-3-.94-4-2.08q-10.95-11.54-21.84-23.14c-.85-3.76-.09-7.29,1.15-10.88,3.39-9.84,4.68-20.33,9-29.91,1.24-1.3,2.34-2.85,4.49-2.55,2.66,5.45-.38,10.44-1.84,15.27-2,6.62-2,11,3.59,16.85s10.37,10.73,18.3,12.06a8.07,8.07,0,0,1,2.6,1c9.75,5.87,19.35,7.24,28.73-.8a3.7,3.7,0,0,1,3.21-1,6,6,0,0,1,1.66,5.7c-3.14,4.71-8.35,6.68-12.8,9.66-4.71,2.57-9.6,2.09-14.69.42.39,2.17,2,3.22,2.66,4.81,1.47,4,4.07,7,7.18,9.89,7.59,7,14.69,14.51,22,21.78,1.34,1.38,2.53,2.88,3.79,4.31.78.83,1.75,1.47,2.49,2.31,4,4.56,8,7.33,12.82,1,.51-.67,1.66-.59,2.58-.57a23.34,23.34,0,0,1,10.16,7.4A2.06,2.06,0,0,1,870.67,529.17Z"/><path class="cls-33" d="M775.18,420.2q-5.73,20.21-11.47,40.4c-3-3.17-2.34-8.5-6.45-11-3.83-6.77-8.1-13.34-9.35-21.24l.1.11c-2.36-4.71-8-8.81-2.89-15l-.1.11a75.24,75.24,0,0,1,4.23-14.17l-.09.14a63.9,63.9,0,0,1,2.3-8.61l.29-1.41c.21-4.8,1.91-9.22,3.54-13.65,1.26-1,1.09-3.39,3.3-3.53a156.53,156.53,0,0,1,22.11,31.84A33.06,33.06,0,0,1,775.18,420.2Z"/><path class="cls-34" d="M628.65,416.29c5.83,2,12.05,1.24,18,2.5,0,2.28,0,4.56.08,6.84l-1.32,1.65c-8.67-2.55-16.43-1-23.15,5.17l-1.88.35c-4.7-3.27-4.86-7.94-3.67-12.81.55-2.27,1.4-4.35-.2-6.47.74-1.06,1.49-1.17,2.24,0v-.08C622,414.46,625.51,414.82,628.65,416.29Z"/><path class="cls-35" d="M800.57,487.6c2.23,4.19,6.26,7.33,7.22,12.28-4.94-3.38-10.45-6.34-9.83-13.71C799.65,485.15,799.94,486.69,800.57,487.6Z"/><path class="cls-36" d="M697.16,439.78c-3.34-.07-6.81.92-9.87-1.3C690.57,439,694.15,437.23,697.16,439.78Z"/><path class="cls-37" d="M800.57,487.6,798,486.17l-1.49-1.23c1.91-1.92,3-.08,4.2,1C800.64,486.47,800.6,487,800.57,487.6Z"/><path class="cls-14" d="M929.18,481.89c-6.15-3.76-12.64-.75-19-.88a22.39,22.39,0,0,0-4.74.88c-.22-.26-.45-.51-.68-.76-1.49-3.57.72-5.59,3.08-7.67,8-7.08,17.14-12.72,25.6-19.21,13.62-10.44,27.88-20,41.35-30.67,1.84-1.45,3.74-2.77,6.22-2.81a37.52,37.52,0,0,1,11.86,8.77c-.35,5.46-5.87,6.72-8.41,10.4a3.71,3.71,0,0,1-1.88.39c-1.92-.66-2.72-2.58-4.2-3.73-2.83-1.86-4.7-.28-6.4,1.79a56.2,56.2,0,0,0-5.71,8.48c.68.88-3.41.33-.55,1.94a5,5,0,0,1,2.43,4,4.5,4.5,0,0,1-1.36,3.83c-8.65,6.72-15.15,15.76-24.13,22.1C938.23,480,933.19,478.67,929.18,481.89Z"/><path class="cls-1" d="M943.33,523.82l-3.59,2.51,7.85.38c.38,3-3.29,4-3,6.73l-52.49,4.2c-1.34.11-3.06.58-3.83-.8-1.06-1.91.91-2.89,2-4,7.33-7.35,15.93-13.4,22.3-21.74a4.43,4.43,0,0,1,3.24-2.75c6.47-.85,13.07-.39,19.5-1.75,4.72,3,3.52,8.46,5.34,12.66C940.86,521.2,942.36,522.35,943.33,523.82Z"/><path class="cls-38" d="M939.22,521c-1.68-4.61-1.74-9.7-4.18-14.09-3.69-4.07-4-9.19-4.44-14.28a5.65,5.65,0,0,1,.17-1c.6-3.41-1.49-6.38-1.58-9.68s1.43-4.43,4.58-4.27,6.35,0,9.53,0a12.1,12.1,0,0,1,4.59-1.81,117.88,117.88,0,0,1,12.47-.15c3.51.16,6.3,1.38,7.58,4.94,1.41,5.38,3,10.72,4.4,16.12A21.89,21.89,0,0,1,973,500c1.36,5.21,1.35,9.88-4.87,12-4.73,2.12-9.32,4.52-14,6.85a19,19,0,0,1-1.78.81C948.08,520.73,944.11,525.38,939.22,521Z"/><path class="cls-39" d="M870.67,529.17c0-.38-.08-.76-.1-1.14,1.75-5.84,6.59-9.4,10.28-13.79,7.42-8.85,15.34-17.38,16.26-29.77,2.39-1.23,4.17-.43,5.55,1.68,7.14,3.78,4.5,10,3.33,15.37-.65,3-3,5.54-4.62,8.28-.48,3.09-2.31,5.34-4.42,7.5-4.82,4.91-9.85,9.6-14.79,14.38-1.54,1.48-3,3.81-5.76,1.81Z"/><path class="cls-17" d="M902.66,486.15l-5.51-1.52-.77-.62c-2.06-5-5.76-8.22-10.68-10.39-2.67-1.17-5.79-2.26-6-6.05a3.13,3.13,0,0,1,1.92-2.19,3.64,3.64,0,0,1,2-.37c7.84,2.4,13.15-.64,17.16-7.4,1.61-2.72,4.39-4.09,7.76-2.55,1.55,2.82-.2,5.83.51,8.7-.31,2.65-1.91,4.89-2.45,7.47-.66,3.52-3.06,6.84-1.12,10.63h0C905.53,484,905.56,486,902.66,486.15Z"/><path class="cls-20" d="M944.73,533.62c5-.24,4.14,2.26,2.27,5-5.45,8-11,15.86-16.5,23.79l-8.22,11.89-5.76-2.65A294.94,294.94,0,0,1,944.73,533.62Z"/><path class="cls-14" d="M876.4,533.49c10.09-6,16.94-15.48,25-23.69.91,1.81,3,.93,4.25,1.82-8.28,10.25-19.78,17.17-28.06,27.39a8.76,8.76,0,0,1-1.26.24c-1.21-.12-2.38-.32-3-1.58Z"/><path class="cls-40" d="M915.29,509.75l-2.77,1.4c-1.32-.46-5.22.25-2.79-2.38,5.87-6.37,12.63-11.93,19.11-17.73.27-.24,1.27.34,1.92.53h0c1.36,2.25.06,4.1-1.31,5.5C925,501.63,921.17,506.83,915.29,509.75Z"/><path class="cls-41" d="M637,534.89H620.37A22.94,22.94,0,0,1,637,534.89Z"/><path class="cls-3" d="M1207.52,550.32V549c4.75-5.36,10.33-9.75,16-14.13,10.32-8,10.78-18.77,7.23-30.21a81.18,81.18,0,0,0-4.93-12.21c-3.4-6.81-3.74-13.24,1.13-19.49a67.41,67.41,0,0,0,9.21-17.07c5.15-13.11,15.62-21,27.69-27.06,5-2.51,10-4.78,15.07-7.16,6.31-.91,8.56,3,9.72,8.21-6.14,8.22-14.59,13.86-22.37,20.26-1.93,1.58-3.7,3.36-5.54,5.05-4.67,3.29-8.74,7.15-11.36,12.34-.86,1.64-1,3.56-2,5.16-2,2.83-3.83,5.75-5.71,8.65-6.07,4.34-4.84,10.56-4.25,16.61.15,3.51-.3,7.05.87,10.47.58,3.39,1.11,6.78,1.58,10.19.93,6.73-1.82,12.06-6.7,16.47-4,3.59-7.63,7.83-13,9.62l-4.33,3.76a6.55,6.55,0,0,1-5.24,4.1A3.08,3.08,0,0,1,1207.52,550.32Z"/><path class="cls-42" d="M932.06,261.11c9.47,5.33,19.43,9.95,28.26,16.17,9.47,6.67,20.12,5.77,30.47,7.24,3.18.45,6.47.12,9.72.15,6.52.23,13.18-1.76,19.56,1.11,3.17,5.37,5.88,11,8.77,16.54,1.93,3.7,4.59,6.41,9.25,5.89a16.07,16.07,0,0,1,3.91-.45,5,5,0,0,1,1.8.88c1.58,1.46,3.6,2,5.54,2.76a3.33,3.33,0,0,1,2.49,3.69,3.42,3.42,0,0,1-3.3,3.06c-6.68.76-14.57,2.65-19.69-.55-4.47-2.78-8.85-7.53-12.75-11.91-.82-.92-.43-2.69-.49-4.07-.14-3.21.46-7.18-3.27-8.42-3.9-1.3-7.71.16-10.61,3.3a20.93,20.93,0,0,1-2.34,2.55c-12.26.56-24.44.13-36.37-3.09-7.07-1.91-12.31-6.52-16.28-12.31a63.27,63.27,0,0,0-16.33-16.78C929.21,264.45,929.21,262.36,932.06,261.11Z"/><path class="cls-42" d="M1247.12,290.39c6,9.71,15.91,13.65,25.8,17.68,15.46,6.29,30.81,12.85,46.35,18.94a19.55,19.55,0,0,1,11.3,10.56,22.77,22.77,0,0,1,1.39,10.11c-2.57,6.76-5.64,13-13.85,14.33-2-1.37-3.14-2.87-.84-5,6.38-5.85,3.84-13,3-20a1.79,1.79,0,0,0-1.89-1.68h0a1.93,1.93,0,0,0-.71.2c-2,.76-4,1.71-3.8,4.34.11,1.62.79,3.17,1,4.78.36,2.34.79,4.94-1.79,6.18-2.88,1.39-5.46.78-6.82-2.54a12.37,12.37,0,0,1,.51-3.42c2.17-9.91-1.19-14.24-11.42-15.07-8.75-.71-17.58-1.1-25.85-4.57a26.64,26.64,0,0,1-10.42-8.93,14.57,14.57,0,0,0-11.4-6.84,5.23,5.23,0,0,1-1.86-1.22C1240.56,299.44,1240.91,294.77,1247.12,290.39Z"/><path class="cls-14" d="M876.21,262.26c-7.67-6.67-18.33-7.28-25.85-1.53-2.54,1.95-5.18,3.78-7.77,5.67-3-3.29-3.13-6.17.68-9.15,3.21-2.5,5.71-5.82,8.76-8.55,4.2-4.13,9.2-3.76,14.3-2.46A46.55,46.55,0,0,1,877.14,251c4,2.22,7.86,2.38,11.88.09,3.65-2.08,7.7-3.23,11.63-4.63,7.28,1,10,7.39,14.2,12,1.3,1.91,3.38,3.31,3.83,5.79-2.64,7.08-6.14,13.6-12,18.57-4.19,1.13-8.55,1.5-12.61,3.16a4.46,4.46,0,0,1-6-1.79c-3.1-4.29-5.56-8.34-3.69-14.36C886.49,263,879.24,264.52,876.21,262.26Z"/><path class="cls-3" d="M1318.17,361.8a31.68,31.68,0,0,0,12.51-14.24,1.85,1.85,0,0,1,2.61-.15l.15.15c-1,11.28-5.75,21.41-10.38,31.47-8.66,18.83-19.49,36.28-34.47,50.87-2.83-3.23-5-7.24-9.72-8.21l1.47-1.43c2.71-4.26,8-5.63,10.79-9.83,6.91-6.13,5.63-14.82,6.88-22.62C1300,375.34,1306.68,366.76,1318.17,361.8Z"/><path class="cls-15" d="M835.54,311.21c1.5-6.06,3.77-11.82,7.94-16.52,3.52-4,7.66-6.76,13.16-3.2l.75.78c2,7.41-2.63,13.67-3.61,20.56.33,1.11-3.07,2.34.16,3.36a4,4,0,0,1,1.72,2c1.44,2.05-3.43,2.67-1.1,4.93.14,4.08-2.95,6-5.63,8a20.27,20.27,0,0,0-6.73,8.46,8.05,8.05,0,0,1-2.49,3c-7.84.93-11.19-1.5-11.69-9a4.62,4.62,0,0,0-2.14-3.88c.4-4.44,6.79-4,7-8.62q.55-.78,1.14-1.53a1.18,1.18,0,0,0,.36-1.09C835.72,316.22,834.18,313.48,835.54,311.21Z"/><path class="cls-43" d="M1208.9,277.38l-1.45,1.14a162.36,162.36,0,0,1-14.06,14.91c-2,1.8-3.83,4.23-7.1,2.59-1.44-6.3-5.79-11.39-7.35-17.65a4.43,4.43,0,0,1,2.06-3.43c4.33-3.52,5.34-9,8.07-13.52,1.62-2.67,2.48-5.93,6.3-7.59.69,4.3-1.77,7.3-2.52,10.72,2.93,1.39,3.37-1.53,4.8-2.67,1.7-1.35,3.24-5.24,4.51.75.91,4.3,3.17-3.65,5.52,1-1.45,4.62-6.53,8.23-9.41,13.68,5.37,1.06,8-5.44,12.93-4.71C1212,275.12,1209.44,275.73,1208.9,277.38Z"/><path class="cls-44" d="M1229.81,326.9c-.85-.7-2.33-1.29-2.47-2.11-1.32-7.87-6.44-13.49-10.76-19.76-4.86-7-2-14.6.62-21.82,1.41-1.46,1.47-4.58,3.75-4.6,2.6,0,3.49,2.81,4.35,4.84,1.89,4.43,4.15,8.76,4.72,13.65.87,1.73.91,3.72,1.75,5.46.39,2.17,2,3.86,2.34,6.08a18.53,18.53,0,0,0,2,5.88,11.7,11.7,0,0,1,.7,1.72c.52,1.88,1.13,3.74.68,5.73C1236.34,325.81,1234.12,328,1229.81,326.9Z"/><path class="cls-16" d="M1066.29,260.61c2.34-2.23,1.73-5.55,3-8.17,1.52-3.06,4.43-5.75,6.8-2.52,6.16,8.38,15.12,5.56,22.9,6.44,5.48.63,8.07,4,11.08,7.25,1.76,1.93-.07,3.28-1.81,4.22-2.49,2.41-5.67,2.23-8.57,1.67-10.17-2-20.4-.91-30.6-.93-3.56-1.11-3.22-4.11-3.34-6.89Z"/><path class="cls-45" d="M786.6,282.17c4.71,2.69,4.78,8.13,7.2,12.17,1.77,3,2.57,6.51,5.27,8.92a3.7,3.7,0,0,1,2.37,2.54,4,4,0,0,1-.52,2.59c-.58,2.37,1.88,2.79,2.71,4.25,3.31,8.12-.51,15.35-2.81,22.78-6.47,1.34-9.34-.18-11.74-6.12-1.94-4.78-2.31-10-2.58-14.91C785.92,303.68,784.91,292.9,786.6,282.17Z"/><path class="cls-3" d="M786.6,282.17c2.48,8.63,1.32,17.48,1.5,26.23a126.62,126.62,0,0,0,2.26,18.51c1,5.65,4.16,8.6,10.08,8.14a5.71,5.71,0,0,1,3.72.76c1.7,1.63,5,2.3,3.56,5.84l-.67.18c-17.77,4.76-20.93,2.61-21.54-16.34-.31-9.43-5.33-17.63-5.78-26.9a11.41,11.41,0,0,0,.06-8.35C780.67,286.37,781.24,282.25,786.6,282.17Z"/><path class="cls-46" d="M1020.27,273.32c1.4-3.66-4-7.36.05-11,10.12,1.41,20.48-.69,30.53,2,3.67,4,3.68,8.75,3.05,13.68-3.83,5.28-6.75,6.2-12.84,3.07-3.31-1.7-6.33-2.69-9.81-.93a11.55,11.55,0,0,1-6.54,0C1021,279.34,1021.2,276,1020.27,273.32Z"/><path class="cls-47" d="M1247.12,290.39c-5.41,5.94-3.19,12-.18,18-3.62,4.1-7,2.19-10.4-.38-1-1.09-1.82-2.26-1.45-3.86a1.84,1.84,0,0,0,.74,0c1.51-2.09-.14-4.52.66-6.68-1,1.72.82,4-1.08,5.57a98.7,98.7,0,0,0-6.2-20.43c-2-5-1.13-10.52.72-15.68.47-1.31,1-2.74,2.67-2.74a2.43,2.43,0,0,1,2.25,2.3C1236.24,275.89,1243,282.48,1247.12,290.39Z"/><path class="cls-48" d="M919.28,218.72c10.49-10.94,24.21-16,38.05-20.72,4.48-1.52,9.12-3.38,15.23-2.62-6.63,4.22-11.29,9.32-16.42,13.89a15.11,15.11,0,0,1-12.27,3.92c-8.61-1.13-15,1.85-18.81,9.79a1.46,1.46,0,0,1-1.62.52C921.51,222.38,919.81,221.05,919.28,218.72Z"/><path class="cls-49" d="M876.21,262.26c9.87-.81,12.43,1.63,9.14,10.39-2,5.24,3.63,6.66,3.48,10.53.78,1.22,1.39,3.06.82,3.91-4,6.05-4.66,13.84-10.1,19.08-5.36-2.83-8.54-10.46-7.8-18.11.18-1.9,2.22-3.78.26-5.79a2.19,2.19,0,0,1-.39-1.7c1.51-2.16,4.82-1.32,6.15-3.73a4.23,4.23,0,0,1,1.15-1,1.29,1.29,0,0,0,1.13-.28,9,9,0,0,1-1.24-.31,2.39,2.39,0,0,1-1.18-1.86C877.46,269.66,875.54,266.12,876.21,262.26Z"/><path class="cls-50" d="M1050.7,240.91c10.09,2.18,14.66,6.61,15.62,15.15-1.76,4.46-5.24,6.95-9.65,8.34-1.77,0-3.1-1.4-4.83-1.58-3.2-.38-6.59.4-9.51-1.63C1039.29,252.39,1042.3,245.1,1050.7,240.91Z"/><path class="cls-51" d="M901.56,246.81c-9.14,4.85-17.77,12.07-28.93,4-6.2-4.51-13.17-5.86-20.17-1.11-1.35.38-1.84-.12-1.47-1.46,1.75-4.86,5.92-4.22,9.76-4.25a8.41,8.41,0,0,1,3.42.28c14.25,6.53,25.2-.47,35.89-8.63C905.83,238.9,905.83,238.9,901.56,246.81Z"/><path class="cls-14" d="M923.75,223.12a11.39,11.39,0,0,0,1.31-.13c4.62,7.94,5.1,16.57,4.27,25.44-.29,3.09-.5,6.15-4.39,6.92-8.42-.91-11.36-7.44-14.31-14C915.29,235.51,918.25,228.4,923.75,223.12Z"/><path class="cls-52" d="M910.93,241.51c4.22,5.06,8,10.55,14,13.84l7.12,5.76c-.92,1.6-1.86,3.19-1,5.14-1.94,1.49-3.79.37-5.66-.19-4-2-7.27-5-11.45-6.6a70.44,70.44,0,0,0-12.35-12.65c-1.26-3.63,3.9-8.13-1.5-11.2-.29-1.54-.57-3.08-.86-4.67,3.19-1,2.89,2.69,4.84,3.09C907.47,235.48,910.08,237.68,910.93,241.51Z"/><path class="cls-53" d="M938.31,250.47c3.16-10.43,5.79-14.22,17.4-25.42.37.24,1.09.51,1.07.73-.7,10.34,4.16,15.86,14.3,17.63,3.76.65,6,4.12,8,7.4.88,1.47,1.89,2.56.2,4.18s-2.78.28-4.06-.71c-6.23-4.85-12.59-9.53-18.73-14.49-3.69-3-6.26-2.9-9,1.32C945.17,244.63,942.82,248.41,938.31,250.47Z"/><path class="cls-54" d="M1181,274.94a2.75,2.75,0,0,1-1.42,2.69c-1.28,3.56.47,6.76,1.32,10,2.55,9.74-1.93,17.18-12.17,19.82-2.71-1.72-4.09-4.35-5-7.28.14-4.27,5.44-5.12,6-9.11a4.57,4.57,0,0,1,1.71-2.21c1.21-8.1,3.15-15.94,8-22.77,2.26,1.51.14,4,1.33,5.78C1181,272.87,1179.27,274.07,1181,274.94Z"/><path class="cls-55" d="M910.93,241.51,904,234c3.43-6.75,8.78-11.58,15.24-15.31a9.15,9.15,0,0,1,4.47,4.4C920.49,230,917.39,236.9,910.93,241.51Z"/><path class="cls-28" d="M762.6,374.26a8.33,8.33,0,0,0,3.09,5.56,34.07,34.07,0,0,0,8,11.36c1.22.73,2.39.93,3.44-.3,1,.46,2.1,1.06,2.84-.47,8.19-17,18.72-32.68,29.09-48.42a2.37,2.37,0,0,1,1.84-.54c2.78,3.92-.72,6.55-2.43,9a347.9,347.9,0,0,0-23.68,39.29c-2.1,4-3.77,7.95-4,12.46a3.43,3.43,0,0,1-1.19,1.59l-21-30.71c.33-.89.85-1,1.57-.41Z"/><path class="cls-14" d="M986.77,256.64l2.67,1.39c2.28,2,3.74-.12,5.43-1.09,2-.11,4.21-.65,4.42,2.44-1,.26-2.82.44-1.32,1.88,1.26,1.2,3.21,1.73,4.92,2.39,2,.79,4.29,1.8,4,4.1s-2.94,2.55-5,2.84c-4,.58-20.18-6.46-21.82-9.61-1.45-2.8,1.09-4.11,2.46-5.82C984.44,254.29,985.55,255.63,986.77,256.64Z"/><path class="cls-56" d="M803.26,336.39c-1.09-.14-2.26-.08-2.82-1.34-.89-7.75,3.91-14.69,3.19-22.41l8.58,7.11c2.09,4.3,4.06,8.62,1.7,13.49C811,336.33,807.26,336.84,803.26,336.39Z"/><path class="cls-57" d="M812.81,333.27c1.11-4.56-1.19-9-.6-13.52,4,1.75,8.14,1.48,12.31,1.07,3.16-.93,6.35-.61,9.54-.2.41,5.9-3.74,7.4-8.25,8.56-3.14,3.13-7.41,3.64-11.35,4.94A2,2,0,0,1,812.81,333.27Z"/><path class="cls-58" d="M1024.45,279h7c3.75,2.47,5.64,5.34,2,9.42-4.66,1.05-9.41,2.83-13.37-1.68-6.47-1.37-13.26.48-19.6-2.05l1.62-.14a115.86,115.86,0,0,0,14.31-5.3A8.78,8.78,0,0,1,1024.45,279Z"/><path class="cls-51" d="M851,248.21l1.47,1.46c-2.14,2.37-3.93,5.3-6.52,7-3.94,2.58-4.48,5.72-3.35,9.74-3.3,2.4-6.48,4.82-7.47,9.18-.4,1.76-1.45,3.35-3.65,3.46-2.64,1-2.31-2.81-4.38-2.73-1.87-.24-4.06.67-5.38-1.51a22.8,22.8,0,0,0,13.89-12.6Z"/><path class="cls-59" d="M981.14,234.21c-2.93-5.77-6-11.5-8.75-17.35-.92-2-4-4.74.34-6.1,3.39-1.08,7-.88,8.73,3.38s.67,8.73.95,13.1c.12,1.85.06,3.72.08,5.58C983.09,234.3,982.38,234.5,981.14,234.21Z"/><path class="cls-51" d="M999.29,259.38c-1.54-1.91-3.69-1.21-5.65-1.34-.84-.09-1.06-.82-1.47-1.37-1.46-1.09-1.38-2.65-1.25-4.21a2,2,0,0,1,2.82-.14h0c9-2.7,14.51,4.66,21.54,7.6a2.8,2.8,0,0,1,1.49,2c-.09,1.4-1.48,1.38-2.61,1.64C1008.44,264.9,1004.08,261.4,999.29,259.38Z"/><path class="cls-60" d="M1050.7,240.91c-6.7,5-8.74,11.74-7.78,19.72-2.46,2.3-4.94,2.27-7.45.07a1.41,1.41,0,0,0,0-.95c-2.36-3.35-1.42-6.71,0-10.07C1039.83,245.56,1042.88,239.07,1050.7,240.91Z"/><path class="cls-61" d="M1035.47,260.7l7.45-.07,11.06.62a3.41,3.41,0,0,1-3.09,3.71h0c-7.88,0-15.75.07-23.62-.19-2.4-.08-5.14-.18-6.91-2.46C1024.89,257.25,1030.43,261.33,1035.47,260.7Z"/><path class="cls-62" d="M1171.4,288.86c-.08.91-.16,1.82-.23,2.73-2.71,1.22-5-.06-7.17-1.36-12-7.27-25.43-11-38.84-14.59-3.06-.83-6.49-1-8.59-3.94l.12-1.08c14.71.28,27.49,7.13,40.82,12.07C1162.25,284.45,1166.3,287.84,1171.4,288.86Z"/><path class="cls-63" d="M1068,267.83c9-2.86,18.24-1.49,27.3-1,4.28.25,8.63.83,13,1,2.13,2.95,6.27-.16,8.4,2.79h0c-2.67,2.55-6,2.15-9.17,1.82-12.14-1.27-24.21-3.61-36.5-1.82a4.57,4.57,0,0,1-2.64-.71,1.28,1.28,0,0,1-.66-1.68h0A1.36,1.36,0,0,1,1068,267.83Z"/><path class="cls-64" d="M1056.33,263.55l10-7.49v4.55l.07.17c-1.49,4.72-2.11,10.25-9.13,9.86C1055,268.52,1054.43,266.19,1056.33,263.55Z"/><path class="cls-65" d="M835.6,262.2c-2.64,9.94-5,12-13.89,12.6-.13-1.36-.3-3.55.95-3.61C829,270.87,831,264.79,835.6,262.2Z"/><path class="cls-66" d="M993.78,252.35l-2.86.11c-5.28-5-6.5-12.17-9.78-18.25l1.35-1.39C984.82,240.16,992.45,244.44,993.78,252.35Z"/><path class="cls-28" d="M872,280.42a9,9,0,0,1-.15,1.27c-.8,1.88-2.53,2.81-4,4-4,1.44-5.38,7.81-11.13,5.91l-.06-.11c5.71-7.51,13.37-12.77,21-18.08.46.48.92.95,1.39,1.42.44.29.62.6.52.94s-.22.54-.36.54l-.4-.11C877.29,278.85,874.08,278.74,872,280.42Z"/><path class="cls-67" d="M803.26,336.39l9.55-3.12a3.64,3.64,0,0,0,.7.38c1.7,2,1.5,4.16.62,6.4-.84,1.67-2.6,1.16-3.94,1.65a2.24,2.24,0,0,0-1.19.3,4.28,4.28,0,0,1-1.31-.33C807.64,338.7,804,338.8,803.26,336.39Z"/><path class="cls-62" d="M1024.45,279c-5.58-.75-10.17,2.24-15,4.13-2.41.94-4.72,1.71-7.31,1.42,4-3.83,9.78-3.79,14.45-6.28,2.28-1.23,4-2.12,3.69-4.92Z"/><path class="cls-68" d="M800.92,308.39l-.41-2.23c-.19-1.33-1.46-3.07,1.26-3.28,1.75,2.88,6.12-.35,7.81,3.29C806.75,307.66,803.4,306.41,800.92,308.39Z"/><path class="cls-69" d="M1333.44,347.54h-2.76c0-3.33-.08-6.67-.11-10C1333.73,340.26,1333.68,343.87,1333.44,347.54Z"/><path class="cls-70" d="M1035.42,249.68c.25,3.35,1,6.71,0,10.07a12.27,12.27,0,0,0-1.18-.35c-2.27-1.39-2.82-3.23-1.47-5.58A3.59,3.59,0,0,1,1035.42,249.68Z"/><path class="cls-71" d="M801.77,302.88l-1.26,3.27c-.48-1-1-1.93-1.45-2.89.72-2.19-.16-4.32-1.09-7.43C801.91,297.81,802.19,300.18,801.77,302.88Z"/><path class="cls-72" d="M827.09,276.31c2.29-.43,2.9,1.84,4.38,2.73a11,11,0,0,1-7.19,2.57C823,278.37,829.71,280.12,827.09,276.31Z"/><path class="cls-73" d="M1235.41,303.07c.11-2.41.23-4.81.34-7.21,0,2.78,4,5.67.08,8.32A1.44,1.44,0,0,1,1235.41,303.07Z"/><path class="cls-74" d="M1232.93,309.66l-1.82-6.71c-.43-1.44.27-1.81,1.55-1.64.26,1.18.59,2.31,1.84,2.85.59,1.71,1.34,3.42.26,5.22a1.17,1.17,0,0,1-1.59.46h0A1.08,1.08,0,0,1,1232.93,309.66Z"/><path class="cls-75" d="M834.06,320.62l-9.54.2c2.91-2.39,6.34-.78,9.5-1.24A2.8,2.8,0,0,1,834.06,320.62Z"/><path class="cls-76" d="M986.77,256.64l-4.22-1.48c.09-1.17.3-2.45,1.82-2.14C986.19,253.4,986.58,255,986.77,256.64Z"/><path class="cls-77" d="M798.2,280.38c.14-1.69.28-3.37.48-5.8,2.33,2.27,2.55,3.94.51,5.8C798.86,281.1,798.53,281.07,798.2,280.38Z"/><path class="cls-78" d="M798.2,280.38h1l-2.74,7c-.39.63-.78.63-1.19,0C795.31,284.68,796.83,282.56,798.2,280.38Z"/><path class="cls-79" d="M992.17,256.67l1.47,1.37c.06.77.13,1.55.19,2.33a5.27,5.27,0,0,1-4.39-2.34C990.55,258,991.61,257.82,992.17,256.67Z"/><path class="cls-80" d="M1234.05,309.66l.45-5.5h.59c.72.89,1.92,1.5,1.77,2.92.14,1.72.13,3.38-1.54,4.47C1234.18,311.39,1233.38,311,1234.05,309.66Z"/><path class="cls-81" d="M811.63,295.76c-.29.28-.69,1-1.13,1-1.19.08-1.37-.95-1.22-1.81.09-.5.69-1.25,1.11-1.29C811.63,293.55,811.56,294.62,811.63,295.76Z"/><path class="cls-82" d="M779.79,290.24a6.46,6.46,0,0,1-.06,8.35A16.09,16.09,0,0,1,779.79,290.24Z"/><path class="cls-83" d="M795.26,287.42h1.19c.12,2.12.24,4.25.4,7.06C794.25,291.93,795.1,289.62,795.26,287.42Z"/><path class="cls-75" d="M835.54,311.21c.1,2.5.46,5.05-1.16,7.28C834.47,316,833.33,313.35,835.54,311.21Z"/><path class="cls-84" d="M1032.79,253.82l1.47,5.58C1029.31,258.72,1031.56,256.14,1032.79,253.82Z"/><path class="cls-85" d="M1179.71,265.09c.27-1,1.12-1.94,1.85-1.14,1.62,1.78,1,3.76-.37,5.54C1179.57,268.41,1181,266.29,1179.71,265.09Z"/><path class="cls-86" d="M1179.71,265.09c1.65,1.08,1.11,2.89,1.48,4.4l-.48,2.38c-1.83-1.61-.77-3.88-1.33-5.78A1.64,1.64,0,0,1,1179.71,265.09Z"/><path class="cls-87" d="M1232.66,301.31c-.52.55-1,1.1-1.55,1.64-1.56-1.72-1.16-3.81-1.09-5.85Z"/><path class="cls-20" d="M1264.08,482.47a1.79,1.79,0,0,0-1.9,1.24,2.15,2.15,0,0,0,.39,2.3C1263.06,484.83,1263.57,483.65,1264.08,482.47Z"/><path class="cls-4" d="M1238.58,501.79q6.75,6.79,13.51,13.57c0-.12.07-.23.1-.35a296.15,296.15,0,0,1,11.09-30.69,2,2,0,0,1,.22-.52c.32-.73.63-1.46,1-2.2-1.35-1.1-2.69-2.2-4-3.37-3.88-3.41-9.75-4.74-11.14-10.74a7.14,7.14,0,0,0-2.88,4.34c1.89,4.61,5.54,7.1,10.15,8.44.32.09.49.07.49-.12.06-.93.57.94-.86.42-4.84.05-10.13-3.14-15.63-.37-6.53,4.23-6.54,10.36-5,16.95C1236.67,498.66,1237.24,500.45,1238.58,501.79Z"/><path class="cls-1" d="M1245.91,535s0,0,0-.05l-5.8-.61c-2.94-.29-6-1.29-8.77.71-4,2.93-8.06,5.85-11.26,9.74q5.7,8.52,11.39,17.06A243,243,0,0,0,1245.91,535Z"/><path class="cls-2" d="M1241.4,510.25c3.2,3.15,6.28,6.4,9.33,9.7q.72-2.48,1.46-4.94c.12-.4.25-.8.37-1.2l-17-16.62c-.12,3.81-.53,7.57,1.13,11.15C1239.05,507.14,1240.11,509,1241.4,510.25Z"/><path class="cls-88" d="M756.14,376.09c-.09-.67-.19-1.33-.29-2,.63-2.78,1.9-3.7,4.26-1.46l-1.57.41Z"/><path class="cls-16" d="M1230.28,410.38c-3.15,8-8.92,13.06-17.07,15.54-10.44-4.84-19.7-11.69-29.6-17.45a6.27,6.27,0,0,1-3.43-4.9c.86-5,5.26-6.71,8.72-9.25,10-7.35,17.22-16.11,15.5-29.58a.76.76,0,0,0-.42-.52c-.17-.05-.42.13-.65.27-5,6.92-12.72,7.71-20,8.14-11.06.64-19.59,5-26,13.93a7,7,0,0,1-2.69,2.18c-5.06.56-8-2.6-10.82-6.08-2.71-16.08-7.61-31.08-19.79-42.86-2.57-2.48-6.62-3.59-7.61-7.65,2.2-2.15,4.77-1.21,7.25-.83,8,1.22,15.28-.28,21.79-5.11,10.25-7.61,20.7-15,30.85-22.71,2-1.54,3.87-3.38,6.45-4,2.17-.18,3.9,1,5.72,1.86,3,1.82,5.88,3.92,8.93,5.72a11.67,11.67,0,0,1,1.55,1.14c4.25,5.58,9.67,10.06,14.4,15.18,3.67,3.85,7.85,7.23,11,11.6h0c1.51,2.61,4,4.44,5.59,7h0c2.09,2.89,3.61,6.19,6.3,8.66,5.35,10.43,12.46,20,15.8,31.44-.63,3.93-4.13,5.18-6.8,7.16a22.93,22.93,0,0,0-5.72,5.78c-1.21,1.71-2.89,3.08-3.65,5.12a25.09,25.09,0,0,1-1,2.53C1233.43,405.26,1233,408.52,1230.28,410.38Z"/><path class="cls-89" d="M1234,402l.51-2.72c2.21-1.54,3.27-.08,4.23,1.63.63-.64.48-1.6,1.06-2.3,1.32-1.59,3.92-1,4.8-2,1.61-1.86,2.75-3.44,5.41-2.2,0-.93-1.37-1.23-1.07-2.32,10.34-6.57,18.36-16.6,30.56-20.35,3-.37,7.29,1.54,6.62-4.54-.14-1.26,2.08-2.25,3.41-3.13a3.77,3.77,0,0,1,1.78-.33c3.34.76,3.79-1.31,3.75-3.87,2.38-4.43,7-6.86,9.78-10.91a1.79,1.79,0,0,1,1.76-.19c2.08.83,4.27,2.62,6.38.66,1.85-1.72.21-3.82-.15-5.8-.49-2.78-1.9-5.39,1-8.32a8.43,8.43,0,0,1,6.72-2.38c2.82.13.86,3.57,1.8,5.09,3.35,5.4-1.22,10.8.32,16.21.7,2.43-1.24,4-3.52,4-4.69.14-.62,2.34-.94,3.48-2.59,2.3-5.17,4.63-7.78,6.91-6.79,5.92-10.74,13-11.09,22.36-.29,7.76,0,16.11-7.66,21.39-2.15-1.83-1.86-4-1-6.2-.52.61,0-.56-.3-.19-3.88,5.54-8.65,7.25-14.52,4.59.71,1.67,3.3.8,5,1.83a2.46,2.46,0,0,1,1.22,3.26h0a1.51,1.51,0,0,1-.15.28c-.75,1.35-2,2.15-3.43,1.17a30,30,0,0,0-8.08-3.84c-4.5-.31-8.22-3-12.42-4.16-5-1.76-10.11-.92-15.11-.68S1234.81,407.07,1234,402Z"/><path class="cls-90" d="M1203.52,361.65c2.46-1.78,2.39-1.77,2.75.77,2,14.22-4.1,24.6-15.38,32.56-3.56,2.51-7.58,4.5-10.05,8.34-.29,3.32-2.2,6.12-3,9.28-1.46,4.36.44,8.19,1.79,12.15,1.71,5,5,9.58,4.42,15.24a47.17,47.17,0,0,1-10.18,26.47c-3.52,8.19-10.87,10.87-18.66,12.6a130.89,130.89,0,0,1-16.22,2.67l-2.83,2.85c-4.39,4.1-6.12.75-7.8-2.77-.27-2.77-.93-5.5-.8-8.31.47-9.55,8.23-15.71,17.61-13.9,3.4.65,6.64,2.13,10.19,2.13,5.89,0,10.38-2.53,13.1-7.68s-.06-8.86-3.14-12.59c-7.87-9.53-8.12-14-.57-23.26a20.27,20.27,0,0,0,4.73-13.39c.09-10.14,2.69-13.34,12.57-15.13,9.45-1.72,15.43-7,18.35-16C1201.71,369.74,1203.35,365.88,1203.52,361.65Z"/><path class="cls-32" d="M1139,481.73c3-2.6,6.89-3.12,10.42-3.38,9.85-.74,17.68-5.11,24.46-11.89,6.31,2.6,13.12,4.58,15.21,12.38-1.82,3.43-5,5.28-8.17,7.19l.09-.08c-10.77,10.89-21.89,7.33-33.12.85C1145,485.09,1142.57,482.38,1139,481.73Z"/><path class="cls-14" d="M1176.77,411.77c-.2-3.57,2.15-5.9,4.07-8.45,7.26,7.57,17,11.41,25.6,17,2.49,1.63,5.43,2.6,6.77,5.58L1198,431.64c-7.26-3-13.26-7.8-18.67-13.39C1180,415.51,1174.65,415.09,1176.77,411.77Z"/><path class="cls-91" d="M1206,491.85a22,22,0,0,1-12.71-4.44c-2.47-2.21-4.3-4.64-2.81-8.21,4.69-5.66,11.54-5.73,17-3.66s4.19,9.06,4.43,14C1212.1,493.25,1207.9,490.63,1206,491.85Z"/><path class="cls-14" d="M1176.77,411.77c1.14,1.8,5.26,2.1,2.84,5.68,2.67,5.4,8.78,6.88,12.57,11,1.27,1.39,3.91,1.85,3,4.64l-11.1,6.91c-2.64-6.55-5.38-13.07-7.86-19.68C1175.16,417.5,1174.67,414.49,1176.77,411.77Z"/><path class="cls-92" d="M1270.32,413.36c3-.39,5.43.92,7.72,2.59,1.12.83,2.25,1,2.87-.33s-.39-2.2-1.67-2.24c-3.34-.12-4.52-2.68-6.72-6,4.12,1.75,7.49,5,10.8,2.43,2.59-2,7.07-1.85,8.32-6.22v8.88c-3,3.79-7.08,5.85-11.3,7.79Z"/><path class="cls-93" d="M1234,402c4.3,7.66,11.67,5.34,18.24,5.66,2,.09,4.22-.58,5.7,1.5-9.22.15-18.51-1.38-27.62,1.19C1231.35,407.53,1231.69,404.36,1234,402Z"/><path class="cls-94" d="M1195.16,433.11c-4.89-5.24-10.8-9.2-16.49-13.45-1.06-.79-4.16-3.53.94-2.21,6,4.89,13,8.55,18.38,14.19Z"/><path class="cls-95" d="M1190.52,479.2c.94,2.74,1.87,5.48,2.81,8.21a29.26,29.26,0,0,0-12.39-1.38,14.6,14.6,0,0,1,8.17-7.19Z"/><path class="cls-47" d="M1207.48,571.31a22.92,22.92,0,0,0-5.59,6.76,34.44,34.44,0,0,0-7,8.31c-3.4,5.32-7.88,6.88-13.66,3.91-5.14-7.48-14-10.31-20.8-17,3.77-1.19,7.33-.64,10.81-.7.23,1.82.28,3.4,2.82,1.49,2.11-1.58,1.61-5,4.69-5.86,2.8,3.16-1.8,9.09,3.89,11.2,1.5-1.41,4.51-1.78,4.69-3.81.92-9.94,9.92-12.46,15.78-17.86a7.81,7.81,0,0,1,4-2c3.72.2,8.21-2.19,10.45,3.06Z"/><path class="cls-96" d="M1159.87,571.32c3.25-6.28,8-9.62,15.38-8.14l-3.91,8.25Z"/><path class="cls-29" d="M1105.53,567c6.56-2.67,13.37-.78,20.07-1.12C1119,567.65,1112.24,567,1105.53,567Z"/><path class="cls-97" d="M1076.12,568.31v-1.17l18.65.22C1088.62,568.77,1082.36,568.37,1076.12,568.31Z"/><path class="cls-98" d="M1052.65,529.21c1.21-3.48,4.1-4,7.22-4.11,2.27-.11,4.66.39,6.63-1.25,0-1-.61-1.32-1.47-1.44a67,67,0,0,1-12.17-.79c-1.56-.26-2.59-.8-1.82-2.64,5.55-4.42,12.34-5.49,18.88-5.21,7.28.31,14.67.5,21.92,1.78a4,4,0,0,1,2.35,2.67l.24,2.67a59.42,59.42,0,0,0-19.52,7.06c-4.83,2.7-10.15,3.13-15.57,2.7C1057.16,529.94,1054.42,531.84,1052.65,529.21Z"/><path class="cls-99" d="M1052.65,529.21c2.23.5,4.82-.7,6.69,1.44-5.3,2.67-10.34,6.09-16.67,5.74C1045,532.54,1049.52,531.87,1052.65,529.21Z"/><path class="cls-14" d="M1129.25,481.85c1.69,2.51,3.66,4.29,6.94,2.73.19,1.34.38,2.67.56,4a4.54,4.54,0,0,1-1.52,5c-7.22,4.83-14.79,8.8-23.92,8-11.59-2.1-23.15-4.41-34.78-6.26-12.24-1.94-24.63-1.32-36.87-.37-5.08.4-10.17.54-15.24.87-7.54,1.17-4.72-4.85-5.74-8.22.23-5-.85-9.55-4.79-13-3.88-5-9.75-8.31-12.52-14.31a4.85,4.85,0,0,1,.46-2.12c6.8-10.73,6.83-9.84,19.09-8.75,11.84,1.06,21.46,8.3,32.93,9.8,2.42,6.55,2.17,7.52-3.58,10.78,25.72,8.73,49,3.56,71.56-8a2.59,2.59,0,0,1,2.14.22C1126.36,468.53,1126,475.69,1129.25,481.85Z"/><path class="cls-14" d="M967.06,511.18c5.62-2.14,5.8-6.33,4.24-11.19,3.5.08,2.3-3.88,4.33-5.07a39,39,0,0,1,3-3.54c4.39-5.34,6.64-12.53,13.58-15.66,8.77,5.44,16.76,11.65,21.1,21.46-3.65,4.52-9.56,3.53-14.16,5.77-2.61,1.27-5.48,2-10.17,3.69l9,.42c-.48,3.41-3.41,2.63-5.52,3.25-4.87.18-9.77-.57-14.6.61-3.54.39-6.58,3.31-10.45,2.13a1.25,1.25,0,0,1-.46-1.71h0Z"/><path class="cls-100" d="M1111.31,501.57c6.49-2.21,13-4.47,19.47-6.61,3.2-1.06,4.2-4,6-6.37,5.1,1.88,9.23,5.33,13.58,8.42-1.24.56-2.73.85-3.68,1.73-11.28,10.43-25.48,13.07-39.9,15.41-4.29.7-9.4-.38-12.56,4.07l-1.32-1.66c-1.68-2-2.48-4.19-1.37-6.77C1097.53,505.67,1105,505,1111.31,501.57Z"/><path class="cls-1" d="M1091.5,509.79a10.74,10.74,0,0,1,1.37,6.77c-10.34,1.78-20.71-2.71-31,.17l-10.66,3c-1.69,2.59-5.07,2.15-7.18,4h-1.33c-2.22,1.63-4.94,2.39-7.06,4.17a8.46,8.46,0,0,0-5.38,1.71c.73-6.54,7.3-6.31,11.08-9.21a120.07,120.07,0,0,0,10.17-8.11c4.86-4.61,11.75-4.65,18.22-3.51C1076.94,510.13,1084.11,512.17,1091.5,509.79Z"/><path class="cls-101" d="M1013.26,497.18c-6.52-7.52-13.9-14.17-21.26-20.84-1.7-.79-3.7-1-5.06-2.47-4-3.82-7.93-7.71-11.73-11.72-1.82-1.93-4.37-3.75-2.8-7.09,3.32-1.72,5.17.82,7.07,2.64,5.49,5.24,10.76,10.69,16.15,16,5.47,5.74,11.18,11.24,16.77,16.87,1.51,1.62,3.13,3.13,4.58,4.81a4.77,4.77,0,0,1,1,4.52C1015.85,500,1015,497.85,1013.26,497.18Z"/><path class="cls-102" d="M967.08,512.54c3.48-.09,6-3.42,9.74-2.77,5-1.81,10.4.53,15.41-1.35,1.93-.27,4.11.49,5.67-1.36,4.63,1.59,1.87,2.94-.24,3.95-3.66,1.77-7.27,3.53-9.66,7l-2.64.22a2.46,2.46,0,0,1-3,.16c-1.3-.46,1.88-3.74-2.2-2.93s-8.7,1.2-12.84-1A1.49,1.49,0,0,1,967.08,512.54Z"/><path class="cls-103" d="M1018,499.93l-1.91-4.05c-1.32-3-3.83-5.64-2.36-9.32,2.73-4,4.85-3.41,6.49.85,1.65,2.68-2.08,8.06,4.21,8.4Z"/><path class="cls-104" d="M982.45,518.18l2.9.05c-1.15,2.38-3.58,3-5.65,4.18-8,1.4-16,.28-24,.65-2.26.27-3.45-.67-3.4-3a3.05,3.05,0,0,1,.78-1.86h0c2.82-.94,5.38-2.52,8.25-3.34C968.23,516.81,975.52,516.4,982.45,518.18Z"/><path class="cls-105" d="M953.09,518.18v1.41c0,.91-2.91,1.78,0,2.73l26.64.09c-5.22,2.78-10.84,1-16.25,1.26-6.69.34-13.41.12-20.12.15-2-.1-4.14.09-4.11-2.87C944.7,524.31,948.14,517.47,953.09,518.18Z"/><path class="cls-106" d="M1217.54,558.8c-3.44-3.31-7.73-.67-11.51-1.67-.13-2.91,1.39-4.27,4.17-4.45l5.58-4.22c.31,3.56,4.08,6.08,3,10A4.08,4.08,0,0,1,1217.54,558.8Z"/><path class="cls-107" d="M1203.54,559.05c-1.6,1.6-2.93,4.05-4.84,4.63-5.85,1.79-8.13,5.8-9,11.39-.61,3.91-3.27,5.23-7.07,4.39-.13-12.1,1.87-15,13-19.26,2.16-.82,4.2-2,6.29-2.94C1203.31,557,1204,557.53,1203.54,559.05Z"/><path class="cls-108" d="M1203.54,559.05c-.56-.59-1.11-1.19-1.67-1.79q2.84-3.46,5.65-6.94c.9.78,1.79,1.57,2.68,2.36l-4.17,4.45Z"/><path class="cls-80" d="M1044,523.76c1.34-3.23,4.7-2.83,7.18-4,3.36,2.47,7.22.6,10.78,1.24,2.34.43,5.25-1.29,6.9,1.78-4.55.38-9.09.7-13.62-.21C1051.34,521.57,1047.79,523.81,1044,523.76Z"/><path class="cls-109" d="M1055.23,522.55a54.94,54.94,0,0,1,13.62.21l-2.35,1.09C1062.78,523.1,1058.75,525.06,1055.23,522.55Z"/><path class="cls-110" d="M1035.6,528c1.47-2.88,4.13-3.75,7.06-4.17C1041.26,526.8,1038.47,527.46,1035.6,528Z"/><path class="cls-16" d="M810.19,341.7l3.29-1.32c5.44-3,10.75-1.68,14.59,2.25,4.54,4.64,9.73,5.83,15.67,5.83a12.64,12.64,0,0,1,5.23.91c4.73,5.13,1.1,9.69-.48,13.78,3.36-3.42,7.38-7.32,8.13-13.28a5.91,5.91,0,0,1,2.92-1.06,13.8,13.8,0,0,1,4.25.34c3.42,1.17,7,.54,10.52,1a12.64,12.64,0,0,1,2.11.39c2.78,1,5.68.71,8.55.77a24.37,24.37,0,0,1,5.65.58c6.16.82,12.36,1.29,18.52,2.06,2.28.28,4.64.2,6.43,2,1.33,2.17.67,4-1.07,5.58a5.34,5.34,0,0,0-2.06,4.9c.5,3.81-1.14,6.33-4.72,7.51-3.36,1.11-4.3,3.4-3.22,6.53,1.85,5.34.94,10.56-.3,15.81a7.74,7.74,0,0,1-.85,1.82c-4.43,2.68-9,4.74-11.94,9.8-2.09,3.62-10.74,2.21-11.65-1.72-1.42-6.11-4.49-6.79-9.56-4.76-1.71.69-3.65.38-5.49.38s-3.16-1.14-4.87-1a3.6,3.6,0,0,0-1.75,1.4c-.86,2.08.72,3,1.92,4.11,2,1.59,4.68-.36,6.57,1.45,1.35,2.32.11,5.66,3,7.37,1.42,1.12,2.86,2.12,4.8,1.19a5.29,5.29,0,0,1,3.59-.6c3.49,2.41,6.66,5.11,8.6,9a3.66,3.66,0,0,1-.43,1.92c-1.92,2.6-4,5.09-6,7.58-2.72,3.31-4.91,6.53-4,11.21a5.55,5.55,0,0,1-3,6.41c-12.53-3.9-22.6,2.65-33,7.73-2.2,1.08-4.22,3.05-7,1.48-4.26,4.05-9.68,6.63-14.85,8.67-4.93,1.94-9.82-2.8-14.87-4.14-1.9-.51-3.49-2.19-5.22-3.33-2.61-1.48-3.77-4.07-4.94-6.6-6.14-13.36-11.41-27-13.84-41.62-1-4,3.27-7.84.3-11.89-1.38-4.71,1.15-8.39,3.1-12.3,7.87-15.82,17.56-30.54,27.29-45.24C810.75,343.56,811.59,342.7,810.19,341.7Z"/><path class="cls-111" d="M838,514.16c-8.57-8.34-17.22-16.61-25.66-25.07-1.87-1.87-4-4-3.25-7.25,1.22-2,3.25-2.59,5.37-3,8.24-.06,15.83-1.76,21.33-8.62a12.14,12.14,0,0,1,3.22-2.07,11.32,11.32,0,0,0,5.91-3.77A6.83,6.83,0,0,1,848,462.5c2.27-.45,4.81.11,6.71-1.77a2.36,2.36,0,0,1,1.77-.12c-.75.56.77-.52.63.38-.06.39.65.59,1.12.43a5.59,5.59,0,0,1-.55-1.25c-.41-2.36-4.08-4.14-1.88-6.78s5.62-1.41,8.53-.91c5.43.93,7.33,5.13,8.68,9.77a8.47,8.47,0,0,1,.36,3,8.81,8.81,0,0,1-1.31,3.78c-1.52,4.89-2.32,9.13,4,11.83,4.62,2,3.63,6.78-.6,10.3-4.49,3.74-10,6.81-11.9,13A6.82,6.82,0,0,1,860.4,508c-3.59,2.18-8.19,1.83-11,6.38C846.38,519.11,841.76,516.86,838,514.16Z"/><path class="cls-112" d="M862.33,504.55c-.2-3.72-1-7.64,4.91-7.64,2.11,0,1.62-2.42,2.18-3.84.9-2.33,2.25-3.68,5.23-3.36,2.22.24,2.87-1.94,2.89-3.95,0-1.66-.13-3.05-2.14-3.83-6.55-2.56-7.85-6.78-4.56-14,1.55,1.39,1.93,3.45,3,5.12,3.39,5.23,8.34,7.8,14.41,8.42,3.25.33,6.46.7,9,3.09l-.08.1c1.06,8.12-1.48,15-6.94,21-6.66,7.36-13.1,14.92-19.64,22.39l-9.6-7.17c-2.34-3.39.4-5.61,2.06-7.82,5.21-6.94,10.56-13.77,15.57-21.26a105,105,0,0,1-10.27,10.61C866.72,503.93,865,505.83,862.33,504.55Z"/><path class="cls-39" d="M862.33,504.55c7.42-4,11.87-11.43,19.39-17.31-2.49,8.79-8.32,14.1-12.44,20.44-2.83,4.36-7.65,7.47-8.31,13.18-.67.16-1.73.09-2,.5-5.3,9.2-10,5.19-14.66-.58a20.4,20.4,0,0,0-3.12-2.6c6.93-2.36,12.25-7.35,18.32-11.13Z"/><path class="cls-113" d="M814.63,480.41l-5.55,1.43c-2.78-1.2-3.43-4-5.08-6.77,6.11-.68,12,2.74,17.5-.33,1.45-.68,1.78.23,2,1.37C821.82,480.24,817.49,478.82,814.63,480.41Z"/><path class="cls-114" d="M788.14,479.14c-6.39-2.21-9.21-8.09-13.65-13.06l5.15-1a10.34,10.34,0,0,1,3.31,3,5.76,5.76,0,0,1,1.07,2.47c.46.93.91,1.86,1.37,2.8C785.54,475.63,789.09,476.32,788.14,479.14Z"/><path class="cls-115" d="M823.05,476l-1.55-1.28,12.58-8.15.14-.14c2,.91,2.66,2.32,1.71,4.37C832.13,473.76,829,478.27,823.05,476Z"/><path class="cls-116" d="M781.05,413.43l-2.57,4.06-3.29,2.71q2.19-8.22,4.39-16.45l.12-1.65C785.53,405.24,779.53,409.78,781.05,413.43Z"/><path class="cls-117" d="M768.42,454.79l4,7.54C770,461.07,766.82,460.31,768.42,454.79Z"/><path class="cls-118" d="M788.14,479.14c-.13-2.31-4.37-2.66-2.75-5.8C787,475,791.05,475.39,788.14,479.14Z"/><path class="cls-119" d="M782.5,469.24c-1.93-.74-1.94-2.78-2.86-4.2h2.85C784,466.44,786.52,467.83,782.5,469.24Z"/><path class="cls-16" d="M782.5,469.24c2-1.4.45-2.8,0-4.2,3.83.91,3.37,3,1.53,5.5Z"/><path class="cls-120" d="M760.19,408c1.75-.19,2.65.71,2.45,1.95-.34,2-.4,4.48-2.4,5.43-1.55.74-2.53-.93-2.62-2.37A4.88,4.88,0,0,1,760.19,408Z"/><path class="cls-14" d="M905.42,470.44c-.24-2.62,1.3-4.5,2.66-6.46-.59-2.06.64-3.56,1.69-5,4.84-6.78,9.58-13.61,13.18-21.16A539.22,539.22,0,0,1,973.76,408c3.17-.64,6.09.61,9.11,1.13.67.13,1.32.31,2,.5,4.39,1.31,9.63-.22,13.17,3.92.8.45-1.2,1.41.31,1.71,2.37.49,4.44,1.41,5.57,3.74-2,5.64-5.39,9.91-11.65,11.14l-11.19-8.38c-.54-2,.84-2.17,2.19-2.4,3.81,2.7,3.74-.78,4.49-2.81C977,421,968.76,429,959.63,435.62c-16.74,12.1-33.59,24.05-50.09,36.49C907.83,473.34,904.6,476.41,905.42,470.44Z"/><path class="cls-121" d="M981,441.28q7.07,16.71,14.12,33.43c-5.6-5.41-11.18-10.84-16.82-16.21-1.59-1.51-2.76-3.86-5.6-3.32a1.2,1.2,0,0,1-1.57.4,5.55,5.55,0,0,1-1.11-1.44c-.57-3-4.07-4.41-4.12-7.67.08-6.07,4.84-9.15,8.54-12.7,1.79-1.72,3.77.25,5.07,2A52.73,52.73,0,0,0,981,441.28Z"/><path class="cls-16" d="M905.42,470.44c.28,1.58.6,2.69,2.55,1.27q38.5-28.09,77-56.13c1.84-1.34,3.4-3.64,5.83-.91a16.38,16.38,0,0,1-7,5.59,2.91,2.91,0,0,0-2.77,1.42c-11.45,8.28-23,16.48-34.33,24.88-12.67,9.35-25.16,19-37.87,28.28-2.6,1.9-3.65,4-3.35,7C903.32,478.07,903.67,474.26,905.42,470.44Z"/><path class="cls-4" d="M971.33,453.81a1.36,1.36,0,0,1,.36,1c-6.39,9.38-14.13,17.33-24.19,22.82h-4.2a138.46,138.46,0,0,1,20.09-19.83c1.86-1.45,3.66-2.85,3.78-5.46C969,451.53,970.13,452.79,971.33,453.81Z"/><path class="cls-4" d="M992.24,430.06a54.2,54.2,0,0,0,11.21-11.17c1.13-1.87-.31-3.68-.11-5.55,2.84-2.31,5.95-3.25,9.52-2,2,2.88,0,4.94-1.7,6.68-7,7.16-14.18,14.14-21.76,20.68-1.56,1.35-3.26,2.87-5.55,1.2h0C984.72,435,990.4,434.15,992.24,430.06Z"/><path class="cls-122" d="M944,467.08c-1.62-.4-3.28-.9-3.22-2.92a3,3,0,0,1,2.89-3.11h.11c1.79-.1,3.31.77,3.23,2.72C946.93,465.48,945.58,466.53,944,467.08Z"/><path class="cls-123" d="M971.33,453.81l-4.17-1.47c.54-2.17-6.45-2.69-1.27-5.87C967.89,448.78,971.66,449.78,971.33,453.81Z"/><path class="cls-124" d="M981,441.28c-1.3-1.62-3.6-3-1.49-5.51l3.21,3.88Z"/><path class="cls-4" d="M915.29,509.75l11.37-12c1.72-1.81,3.92-3.31,4.1-6.16,2.53,4.79,3.1,10.12,4.28,15.28-3.56,3.08-8,2.62-12.2,2.9C920.34,509.92,917.81,509.76,915.29,509.75Z"/><path class="cls-14" d="M947.5,477.64l24.18-22.81a2.78,2.78,0,0,1,1,.35c3.21,7.72,11,11.42,15.65,17.91-.41,5.87-4.25,10.19-8.54,12.77-4.49,2.69-9.32.09-12.71-4-1.47-3.75-4.38-4.46-8.07-4.21S951.34,477.65,947.5,477.64Z"/><path class="cls-1" d="M941,501.84c-.36-2.64,1.9-3,4.37-3.21,4.82-.49,9.82-.43,14.4-1.78,4.79-1.41,5.44,1.16,6.62,4.46,1.34,3.71.12,5.66-3.37,6.9-3.93,1.39-7.86,2.81-11.63,4.58-4.8,2.26-8.35,2.78-8.74-4.16C942.53,506.59,941.69,504.59,941,501.84Z"/><path class="cls-4" d="M967.09,481.82c11.15,4.44,11.15,4.44,21.25-8.73l3.66,3.25c-4.91,5-8.63,10.81-12.42,16.61-4.44-3.16-4.94,1.86-7.09,3.45a3.32,3.32,0,0,1-1.5,1C969.61,492.24,966.84,487.41,967.09,481.82Z"/><path class="cls-125" d="M951.12,484.09c4.41-.29,5.23,2.57,5,5.33-.4,4.47-4.71,2.12-7.06,3-3.2,1.23-4.09-2.31-4.15-4.72C944.75,482.59,949.61,485.82,951.12,484.09Z"/><path class="cls-105" d="M961.53,515.42c-2.76,1.09-5.2,3.14-8.45,2.76a41,41,0,0,1,14-7v2.76C965.54,515.7,963.82,516.61,961.53,515.42Z"/><path class="cls-75" d="M976.78,495.72c-1.8,1.46-1.32,5.84-5.48,4.27-.1-.86-.21-1.71-.31-2.57l.45-.36C973,495.63,974.48,494.07,976.78,495.72Z"/><path class="cls-32" d="M873.08,462.15c-2-3.55-.56-7.08.09-10.61.53-1.75,1.85-3.7,1.48-5.24-2.56-10.46,5.62-14.76,11.35-20.49,2.11-.88,3.8,1.83,6,.66a6,6,0,0,1,1.89,0c3.51,1.66,6.67,4.1,11,3.75,3.34-.27,4.45,1.86,4,4.95a33.59,33.59,0,0,1-.7,7c-.36,1.35-1.15,2.53-1.76,4.15,3.4-1.18,7.82-4.18,9.17,1,1.1,4.23-1.69,7.91-6.86,8.35-4.34-.5-6.81,2.08-8.57,5.49-3.29,6.38-8.2,8-14.78,5.53a14,14,0,0,0-3.41-.36c-1.33-.58-3.06-.37-3.89-1.94C876.91,462.44,874.51,463.38,873.08,462.15Z"/><path class="cls-126" d="M908.69,455.63c2.74-2.48,8.12-4.8,5-8.91s-5.51,1.94-8.44,2.95c-.37.13-.86-.07-2.23-.2l3.79-7c1.66-2.62.86-5.37.43-8.09,0-1.13,2.29-3.65-1.3-2.68-5.44,1.47-9.34-1-13.06-4.36-3.65-1.7-5-5.16-6.54-8.49a14.88,14.88,0,0,1-1.22-5.08c.26-2.22,1.76-3,3.75-3.33a33,33,0,0,1,6.51-.43c9.31-.7,17.17,1.79,23.73,9,5.38,5.9,5.37,12.44,4.5,19.47-2.27,10.27-10.11,17.15-15.52,25.52C905.56,461,908.19,458.39,908.69,455.63Z"/><path class="cls-1" d="M873.08,462.15c2.18-.12,5.19-2.84,5.81,1.87-.44,1.63,1.05,2.58,1.37,4,2.23,3.2,5.88,4.23,9.14,5.68,4.86,2.15,7.73,5.44,7.83,10.88-6.49-1.29-13.47-.6-19.3-4.61-2.47-1.7-5-3.35-5.91-6.5-.15-2.78,1.09-5.54.11-8.32v-2.83A6.1,6.1,0,0,1,873.08,462.15Z"/><path class="cls-2" d="M880.26,468c-1.11-1.09-4.08-1.54-1.37-4l3,2.28Z"/><path class="cls-4" d="M1245.91,535c2-5.48,3.67-11.11,5.33-16.72-1.51-1.62-3-3.25-4.53-4.87a68.56,68.56,0,0,0-7.37-7.29c-3.73-2.94-1.75,1.48-2.63,2.28.86,9.4,4.22,19.3-5.34,26.61,4.57.45,9.12,1.13,13.67,1.81C1245.33,536.17,1245.63,535.56,1245.91,535Z"/><path class="cls-28" d="M1246.44,471.87l12.23,9.3c-6.69,1.87-12.32-.66-18.08-.93Z"/><path class="cls-89" d="M999.24,298.56c.08-8.35,7.79-7.66,12-8,5-.43,6.82,4.73,6.24,10.09-.37,3.41-1.88,8.2,5.29,6.8,3.22-.62,2.72,4.57,5.27,5.94-2.77,3.79.09,3.43,2.52,3.42h16c1.55,0,3.65.36,3.93-1.81.29-2.35-1.79-2.39-3.37-2.31-3.18.17-4.86-1-4.6-4.37-.19-1.27.58-1.92,1.54-2.47a154.59,154.59,0,0,0,29.57-12.26c9.8,1.06,18.31,6.05,27.39,9.26,11.28,4,22.93,7.1,33.48,13,3.56,5,1.51,8.83-2.59,12.24-11.58,3.58-22.82,2.38-33.81-2.47-4-1.78-7.7-4.3-11.64-6.26-8.25-4.07-14.52-1.62-17.77,6.9-1.48,3.9-2.63,7.92-4.62,11.63-2.28,4.26-5.27,7.63-10.19,8.79-2.44.7-4.89-3.53-7.33,0a4.73,4.73,0,0,1-1.19,1.33c-1.93.66-4,1-5.62,2.44-7.08,4.25-10,11.3-12.43,18.61-1.34,1.74-1.26,4-2.1,5.91a2,2,0,0,1-1.44.95c-.69.17-1.52-1.8-2-.23-1.11,3.72-3.57,2.69-6,2.1a2.73,2.73,0,0,1-1.82-2c1.11-3.79-1.32-4.66-4.24-5.12-4.6-4.51-10.07-8.25-12.68-14.5,3.26-6.31,2.58-12.83,1-19.4,2.13-8.67,6-16.92,6.24-26C1004.75,305.76,999.79,303.07,999.24,298.56Z"/><path class="cls-91" d="M999.24,298.56c3.35,3,6.37,6.2,6.81,11-2.82,2.45-5.7.62-8.39-.12-7.27-2-14.51-4.08-21.77-6.11a17.29,17.29,0,0,1-2-.65c-8.81-2.62-17.79-4.88-24.94-11.2-4-3.31-7.45-7.28-11.27-10.82a17.58,17.58,0,0,1-1.38-1.35c-3.47-4.59-9.17-7.14-11.64-12.65a2.27,2.27,0,0,1,.5-1.81l5.86,1.41c6.28,1.68,10.55,6.12,13.5,11.39,8.32,14.87,21.72,19.25,37.5,19.3C987.8,297,993.64,296.49,999.24,298.56Z"/><path class="cls-3" d="M1043.93,306.83l-1.39,1.43a3.42,3.42,0,0,1-1.31.16c-3.78.35-6.14-1.91-8.35-4.48-1.91-3-3.3-6.19-3.18-9.8.08-2.48-.17-5.33,3.34-6a4.82,4.82,0,0,1,4.3,1.59c5.61,5.36,7.2,5.39,13.18.49,1.42-1.16,2.62-2.6,4.44-3.22a2,2,0,0,1,2.29,1.55C1055.11,296.35,1051.12,302.76,1043.93,306.83Z"/><path class="cls-127" d="M1034.33,288.76c-5.23,1.84-2.66,5.92-2.38,9.11.2,2.16,1.46,4.22,2.24,6.32.5,2.51,5,2,4.15,5.54-3.33,1.72-6.25,0-7.91-2.25a58.14,58.14,0,0,1-10.32-20.76l14.06.56a1,1,0,0,1,.38,1C1034.49,288.58,1034.42,288.76,1034.33,288.76Z"/><path class="cls-128" d="M1038.34,309.73c-.6-2.43-4.31-2.53-4.15-5.54l7,4.23A3,3,0,0,1,1038.34,309.73Z"/><path class="cls-91" d="M1306.56,348.81a1.39,1.39,0,0,0-1,.31c-1.7.79-3.19.06-4.58-.77-10.74-6.38-21.13-13.32-31.68-20a4,4,0,0,1-2.2-3.33c.33-1.11.8-2,2.19-1.33,8.4,2.75,17.09,3.59,25.84,4.21C1309.22,328.89,1313.28,336.4,1306.56,348.81Z"/><path class="cls-129" d="M1269.27,323.68l-1.55,1.39c-7.4-.07-12.82-4.74-18.79-8.14-1.24-2.71-1.94-5.46-.52-8.34,4.61-1.11,8.15.43,10.36,4.55C1261.24,317.74,1265.23,320.7,1269.27,323.68Z"/><path class="cls-130" d="M1248.41,308.59c.38,2.67.76,5.33,1.15,8-2.15,2.55-5.08,2-7.87,2a8.48,8.48,0,0,1-6.19-3.24v.13a3.53,3.53,0,0,1-.14-4.14c.09-1.54.18-3.09,1.45-4.23,3.11,2.33,6.45,2.94,10.08,1.32Z"/><path class="cls-131" d="M879,305.59c2.59-7.77,8.15-14.23,9.83-22.41,1.46,2.05,3.11,2.1,5.3,1A23.19,23.19,0,0,1,907,281.81c3.31-1.09,5.75,1.09,8.39,2.31,7.17,3.33,10.47,2.86,16.13-2.52,1.76-1.67,3.06-4.38,6.26-2.75V279c1.78,8.14-1.23,12.85-8.9,13.82-1.62.21-3.4,0-4.82.66-7.57,3.69-14.37,4.72-21.7-1.59-4-3.4-8.31.21-8.83,6.64-.44,5.48.82,11.39-4.5,15.43a7.56,7.56,0,0,1-1.89,1.09c-5.53,1.11-10.12.1-12.62-5.61C874.91,306.85,877.12,306.42,879,305.59Z"/><path class="cls-4" d="M937.73,278.85c-.44.11-1.1.07-1.3.35-8.81,12.48-18.95,9.66-29.48,2.61L918.11,264c3.07-1.47,5.18,0,7,2.31Z"/><path class="cls-132" d="M925.13,266.29l-7-2.31-4.2-4.52c5.2-1.24,7.86,2.84,11.25,5.38Z"/><path class="cls-3" d="M1280.31,372.74c-7.88,4.21-16.41,7.55-21.7,15.33-2.31,3.42-6.53,1.81-9.21,4-3.53,1.71-6.39,5.85-11.15,3,1.69-6.77,9-7.67,12.79-12.26a2.66,2.66,0,0,1,2.71-1.68c10-5.49,10.18-5.58,4.3-15-7.42-11.92-13.74-24.55-22.62-35.54-1-4.93,2.67-5.38,5.91-6.29,9,4.86,15.32,11.67,16.85,22.22,2,13.72,3.58,15.34,16.93,17.62a13.9,13.9,0,0,1,5.9,1.93C1284.6,368.62,1285.28,371,1280.31,372.74Z"/><path class="cls-133" d="M1253.75,381.19l-2.71,1.68c-2.44-10.67-9.16-19.27-13.92-28.81-.6-1.2-1.06-2.47-1.59-3.7-.42-.32-.56-.64-.42-.95s.29-.47.43-.47c6.29,7.43,9.89,16.43,14.48,24.84C1251.35,376.21,1252.52,378.72,1253.75,381.19Z"/><path class="cls-134" d="M1241.22,325.07c-2.14,1.63-5,2.53-5.79,5.55l-5.62-3.72c4-.28,5.54-3.37,7.3-6.24,2.18-.26,3.35,1.1,4.38,2.71A1.79,1.79,0,0,1,1241.22,325.07Z"/><path class="cls-133" d="M1197.79,308.39l4.19,1.4c3.07,4.78,8.49,7.46,11.19,12.57.42.32.56.63.42.94s-.28.47-.42.47A98.12,98.12,0,0,1,1197.79,308.39Z"/><path class="cls-62" d="M1213.17,323.77v-1.41c4.21,3.78,9.34,6.73,11.19,12.6A52.08,52.08,0,0,1,1213.17,323.77Z"/><path class="cls-62" d="M1235.54,348.94v1.42A10.79,10.79,0,0,1,1230,342C1233,343.33,1234.21,346.18,1235.54,348.94Z"/><path class="cls-133" d="M1230,342c-2.61-1.74-5.25-3.45-5.59-7C1227,336.7,1229.6,338.41,1230,342Z"/><path class="cls-2" d="M997.8,356l12.73,13.88c2.78.84,3.45,3.23,4.1,5.63l1.29,1.47c3.84,2.27,5.12,6.21,6.57,10a7.66,7.66,0,0,1-1.44,5.09,35.34,35.34,0,0,1-10.6,11c-6.26,3.9-12.44,2-15.64-4.68a34,34,0,0,1-2.9-10.75c-1-8.48-5.88-14-14-15.25-12.26-1.9-20.22-8.24-25-19.53-3.57-8.42-10.63-12-19.62-11.82a86.64,86.64,0,0,0-24,4.19c-5.11,1.6-10.12,3.52-15.25,5.06-9.73,2.91-18.84,2.22-26.67-5.05a13.68,13.68,0,0,0-8.22-4.9,4.88,4.88,0,0,1-1.59-1.1c-.78-5.81,2.09-12.53-4.22-17-.92-2.07,1.68-2.35,1.94-3.82,1-1.86,2.88-2.34,4.67-2.95a28.71,28.71,0,0,1,6.85-.69c6.84-1.84,13.82.47,20.68-.71l-.07-.08a10.92,10.92,0,0,1,5.61-2c10.74-.49,21.33-.2,30.49,6.61,1.9,1.41,5,1.92,4.43,5.37-9.74,2.68-19.9,3.1-29.72,5.29-1.56,0-3.13,0-4.29.05a42.56,42.56,0,0,0,13.93-1.51c8.3-.48,16.57-1.13,24.79-2.33,3.9-.26,7.86.58,11.73-.59a23,23,0,0,1,3.21-.2c16.13-2.48,27,6.92,37.62,16.76,2,1.88,4,3.87,5.88,5.85C993.39,350.18,996.6,352.31,997.8,356Z"/><path class="cls-126" d="M843.92,350.09c-6.76-.14-13.88.89-17.2-7.56-.76-1.93-3.78-1-5.76-1.35-2.47-.41-5-.55-7.48-.8v-6.73a28.92,28.92,0,0,1,12.3-4.46c2.42.33,5.83-1.08,3.92,4.23-1.81,5,1.9,7.86,10.12,8.73C842.88,343.94,845.55,345.91,843.92,350.09Z"/><path class="cls-135" d="M859.65,317l-4.39,1.5c-.46-.72-.91-1.44-1.37-2.15a2.85,2.85,0,0,1-1.37-2.43c-.27-7.74,5-14.45,4.18-22.28,5-.29,6.07-6.72,11.06-7,4.75,3.37,1.27,7.67,1.32,11.58-.19,2.86-2.5,4.3-4.1,6.26C861.56,306.64,858.44,311,859.65,317Z"/><path class="cls-136" d="M853.32,322.28c5.34,2,8.15,5.33,5.85,11.35a47.74,47.74,0,0,0-1.41,5.28,3.6,3.6,0,0,1-1.67,1.46c-3.55.95-7.17,1.62-10.77,2.31-2.44.47-4.75.38-4.76-3.08,1.19-4.22,4.07-7.11,7.36-9.84C850.29,327.79,853.6,326.26,853.32,322.28Z"/><path class="cls-137" d="M840.56,339.6c.92,2.42,2.53,1.89,4.52,1.39,3.79-1,7.53-2.62,11.61-1.76,2.1,2.81.51,5.46-.31,8.15a9.32,9.32,0,0,1-2.49,3.52,3.6,3.6,0,0,1-4.1-.25l-5.87-.56c-.43-3.12-2.78-5.26-4.07-7.95C840.08,341.3,840.32,340.45,840.56,339.6Z"/><path class="cls-138" d="M852.52,313.88c.45.81.91,1.62,1.37,2.43-1.67.14-3,2.21-5,1C849,314.89,851.36,315,852.52,313.88Z"/><path class="cls-3" d="M1020.24,390.93l1.35-4.3c-.12-4,.31-7.76,2.94-11h0c1.77-2-.84-5.19,1.84-7,1.84-8.34,5.09-15.71,13.42-19.59,1.65-1.54,3.9-.6,5.73-1.39h0c1.91-2.31,4.53-1.37,6.91-1.52,8.81-3.4,11.64-11.11,14.19-19.22,3.76-12,11.74-15.22,22.44-8.44,13.43,8.52,27.46,12.19,43.09,7.89,10.31-6.61,21.5-11.7,31.61-18.65a4.6,4.6,0,0,1,4.57-.83c3.66-1.18,6.21-3.85,8.85-6.44,3.29-3.21,4.11-6.6,2.59-11.22-1.19-3.61-5-7.75-.14-11.64,2.38,6.19,8.3,11,7.25,18.51l-3.08,3.7c-10,7.49-20.42,14.39-29.73,22.6-11,9.7-23.17,12.61-37.15,10.08-3.44,2.32-7.21,1.54-10.8.84-6.45-1.27-13-.48-19.46-1.27-3.27-.4-5.67,1.77-8,3.76-5,4.31-8.75,9.64-12.34,15.07-6.8,10.28-13.93,20.33-21.09,30.36-4.38,5.83-8.35,12-13.84,16.91-2,1.8-3.85,4.08-7.09,3.08C1020.87,398.63,1020.67,394.74,1020.24,390.93Z"/><path class="cls-139" d="M1241,323.67l-3.92-3c-1.64-1.45-1.66-3.39-1.61-5.36l5.75,1.36a5.61,5.61,0,0,1,1.09,5.25A3.37,3.37,0,0,1,1241,323.67Z"/><path class="cls-140" d="M1235.41,311.29c0,1.38.09,2.76.14,4.14a7.17,7.17,0,0,1-2.62-5.77,3.51,3.51,0,0,0,1.12,0C1234.5,310.21,1235,310.75,1235.41,311.29Z"/><path class="cls-54" d="M1034.33,288.76a14.55,14.55,0,0,0-.16-1.48c.13-3.11-1.65-5.59-2.73-8.3,3-2.77,5.65-3.62,9.25-.17s8.16,3.41,12.31.17c1.32-3.05,3.3-5.73,4.8-8.68,4.59-1.61,5.49-6.54,8.56-9.52,2,2,1.43,4.63,1.66,7.05l-.24,1.4c-.32,3.64-1.64,6.72-4.82,8.78-3.94,2-2.63,8.37-7.73,9.45a46.13,46.13,0,0,1-3.14,3.7C1045.17,298,1041.26,297.5,1034.33,288.76Z"/><path class="cls-141" d="M1057.8,270.3c.68,4.16-1,7-4.8,8.68q-1.08-7-2.15-14l3.12-3.71,2.36,2.3C1056.29,265.92,1056.4,268.25,1057.8,270.3Z"/><path class="cls-142" d="M1241.69,297c1.19,1.53,1,3,.24,4.6C1240.74,300.08,1240.93,298.63,1241.69,297Z"/><path class="cls-143" d="M867.79,295.81c-1.08-3.73,2.76-7.47,0-11.19a4.59,4.59,0,0,1,4.08-2.93c1.39.7,5.73-2.31,2.62,3.59-3.59,6.81-.23,14.22,4.54,20.31a3.93,3.93,0,0,1-4.07,2.68l-.93-.19C870.14,304.9,869.3,300.19,867.79,295.81Z"/><path class="cls-94" d="M872,280.42c1.41-2.78,4-3.63,6.79-4.22C879.48,282.37,874.73,279.77,872,280.42Z"/><path class="cls-144" d="M879.18,276.31a14.55,14.55,0,0,0-.16-1.48c1.38.21,3.29-.63,3.63,1.65.07.47-.63,1-1,1.57Z"/><path class="cls-16" d="M1062.46,278l5.32-8.78c16.43-4,32.58,1.78,48.91,1.4,5.52,3.7,12.16,4,18.29,5.67,12.76,3.54,24.44,9.45,36.19,15.29.2,4.87-5,5.2-7,8.27a104.58,104.58,0,0,1-29.37,16.75l-61.16-22.12c-10,.55-14.28-2.63-14.27-10.56C1060.29,281.89,1060.37,279.43,1062.46,278Z"/><path class="cls-145" d="M1134.85,316.61a208.34,208.34,0,0,1,29.37-16.75c1.68,2.17,3.84,4.06,4.06,7.07-11.77,7-22.74,15.55-36.18,19.48C1135.51,323.84,1133.56,319.77,1134.85,316.61Z"/><path class="cls-146" d="M1043.83,380.93c9.56-13.9,19-27.91,28.74-41.66,4.8-6.74,10.88-10.71,20.11-8.9,7.9,1.56,16.11,1.5,24.18,2.15,10.75,6.37,17.94,15.53,22.45,27.19,2.87,7.42,5.7,14.7,5.34,22.81-1.53,3.4-4.59,3-7.47,3a19.11,19.11,0,0,1-2-.22c-3.58-.63-7.15.72-10.74.14a17.22,17.22,0,0,1-1.89-.28c-3.72-.72-7.42-.14-11.14.16a4,4,0,0,1-3.3-1.73,1.9,1.9,0,0,1,.45-1.75c3.24-2,5.07-5.59,8.53-7.31,2.42-.86,5-.62,7.48-1.4.78-.25,2.08-.35,1.47-1.66-.38-.84-1.49-1-2.37-1.28-4.4-1.77-9-1.19-13.54-1.18-3.17,0-5.23,1.39-5.61,4.73a19.86,19.86,0,0,1-1.91,5.75,11,11,0,0,1-5,5.12,7.79,7.79,0,0,1-2,.59c-7.59-.1-15.34,2.06-22.74-1.4-1.52-3.15-.06-5.53,2-7.77,4-4.28,10.11-3.83,14.77-6.57-2.42-7.18-7.71-4.61-12.49-3.69-3,2.17-7.76,1.66-9,6.3-.91,1.82-2.73,3.3-2.1,5.69-.19,2.66-.46,5.3-2.14,7.54-2.44-1.28-4.82-.5-7.2.28a26.17,26.17,0,0,1-4.15-.12C1049.45,384.32,1044.22,387.24,1043.83,380.93Z"/><path class="cls-147" d="M1129.25,481.85c-6-5.37-6-12.44-5.56-19.62-2.24-4.52,1.1-7.8,2.52-11.51,1.84-3.22,4.9-5.23,7.56-7.64,1.77-1.49,4.52-2,4.75-5,.61-1.52,1.47-2.8,3.21-3.16,6,.78,2.64-3.52,3.1-5.73,1.18-5.32,3.07-10.47,3.52-15.94a23.59,23.59,0,0,1,.25-3.14,61.06,61.06,0,0,0,1.4-11.51,13.4,13.4,0,0,1,.4-2.08c1-3,1.29-6.24,3.93-8.42,6.29-10.72,15.31-16.63,28.05-17.18,8-.34,16.36-1,21.11-9.26,3.36,11-6.24,26.45-18.16,29.19-13.69,3.15-13.82,3.15-14,17.15-.07,4.58-2.08,7.79-5,11-7.22,8.12-7.26,13.22-.29,20.51,4.25,4.43,7.55,9,4.46,15.39-2.91,6-9.86,9.44-16.85,8.62a20.76,20.76,0,0,1-6-1.57c-11.46-5.25-20.2,5.39-18.15,15.48C1129.77,479,1131.2,480.49,1129.25,481.85Z"/><path class="cls-14" d="M1154.2,345.08c2.32,2.55,5.09,4.62,6.44,7.38,1.14,2.34-2.24,3.09-3.75,4.13-2.64,1.83-5.75,3-8.56,4.57-2.45,1.41-4.26,1.1-5.85-1.29s-1.62-4.17.71-6C1146.79,351.1,1150.3,348.21,1154.2,345.08Z"/><path class="cls-14" d="M1154.36,388.09c-.85,2.87-1.7,5.74-2.57,8.61-6.32-2.87-12.8-5.55-15.52-12.8,2.87,0,5.78.28,8.38-1.38C1148,384.23,1150.44,387.42,1154.36,388.09Z"/><path class="cls-93" d="M1238.25,395.13l11.15-3,2.49,2c-4,3.75-12,2.65-12.72,11.14-1.35-2.35-.9-5.94-4.7-5.94A6.46,6.46,0,0,1,1238.25,395.13Z"/><path class="cls-62" d="M1188,302.79c5.4-1.86,7.17,2.6,9.79,5.6C1193.83,307.75,1191.35,304.5,1188,302.79Z"/><path class="cls-42" d="M1241.36,322.47c1.12-.42,1.36-3.61,3.48-1,13.22,16.27,30.9,27.85,45.23,43-1,2.19-2.16,4-2.39,6.87-.46,5.53-4.74,1.27-7.37,1.43,2.36-2.13,4.06-4.31-.57-5.6a41.92,41.92,0,0,0-7.46-1.31c-9.34-.85-14.31-4.15-14.87-13.23-.76-12.35-7-20.57-16.19-27.53-.07-.47-.13-.93-.19-1.4A4.39,4.39,0,0,1,1241.36,322.47Z"/><path class="cls-42" d="M1291.45,364.28a10.08,10.08,0,0,1,4.25-4.13c2.44,2.33,1.09,4-1.06,5.32C1293.19,366.38,1291.64,367,1291.45,364.28Z"/><path class="cls-4" d="M1002,459.47l-1.32-1.51c-2-4.1,1.05-8.22,2.72-10,5-5.38,9-11.73,14.9-16.25a3.81,3.81,0,0,1,2.7-.48c2.69,6-2.57,8.09-5,11.42-.39-.09-.17,0,.06,0,10.24,1.16,17.52-1.9,21.77-12.33,2.29-5.63,6.67-10.59,10.65-15.49,4.75-5.83,8.46-12.26,9.75-19.85,1-5.61,4-8.26,9.83-6.6a4.6,4.6,0,0,1,1.66,1.2c1.9,5.59,1.85,10.95-2,15.77-2.22,2.74-2.42,5.94-2.44,9.23,0,6.45-2.5,11.18-9,13.39-3.08,1-5.82,2.78-6.75,6.48,12.66-10,27.56-17.47,35.94-32.4,3.51-6.27,6.58-12.85,11.67-18.11h0c2.62-1.29,5.15-1.66,7.39.78a6.86,6.86,0,0,1,1.14,3.15c-.16,5.79-1.69,11.42-6.4,14.81-6.41,4.6-8.91,10.94-10.57,18.08-1.85,7.92-5.85,14.61-14,16.68-11.53,2.91-17.74,10.09-20.07,21.3l-.8.71c-7.21.78-13.17-2.13-19.68-5-7.06-3.13-15.51-4.16-23.32-4C1007.79,450.44,1004.91,456.27,1002,459.47Z"/><path class="cls-4" d="M1122.23,462.38c-.42.78-.63,2-1.28,2.28-19.91,9.85-40.68,14.39-62.85,10a19.58,19.58,0,0,1-4.6-1.53,46.37,46.37,0,0,1-4.59-3c6.28-1.74,4.67-6.52,4.86-10.61h0c4.33-3.24,8.3-7.27,14.39-6.8.17,5.49,1.76,8.64,8.38,6.77,4.7-1.33,9.21.95,13,3.68,6,4.28,11.53,4.83,17.8.18C1111.77,460,1117.05,458.91,1122.23,462.38Z"/><path class="cls-148" d="M1122.23,462.38c-6.66-.64-12.88.15-18.15,4.91-4.12,3.71-8.27,1.84-12.11-.63-6.27-4-12-8.43-20.38-4.18-3.84,1.94-5.85-3.09-3.68-10.05,2.25-7.31,4.81-8.89,11.44-7a33,33,0,0,1,15,8.49c1.62,1.66,3,3.65,5.85,2.81a28.61,28.61,0,0,1,3.06-.47A63.29,63.29,0,0,0,1120,452c2.45-1,4.92-2.91,7.82-1.06q-2.05,5.64-4.1,11.27Z"/><path class="cls-149" d="M1013.17,486.05a127.82,127.82,0,0,1-11-25.32,65.25,65.25,0,0,1,12.44,12.68C1017,477.94,1015.94,482.09,1013.17,486.05Z"/><path class="cls-150" d="M1040.07,484.82c-2.29-1.16-6.73,1.73-6.71-2.64s4.43-3.06,7.21-3.08,7.37-1.08,7,3.24S1042.57,483.6,1040.07,484.82Z"/><path class="cls-151" d="M1013.17,486.05q.69-6.33,1.39-12.64c5.44,3.23,6.2,8.35,5.65,14-1.91-1.91-3.82-4-5.63.08-.5.58-.89.52-1.18-.18C1013.32,486.89,1013.24,486.47,1013.17,486.05Z"/><path class="cls-152" d="M976.78,495.72l-5.34,1.34c-.75-4.65,3.67-6.82,6-8.12,3.41-1.91,1.6,2.42,2.15,4Z"/><path class="cls-153" d="M992.23,508.42c-4.92,2.92-10.29.68-15.41,1.35C981.75,507,987.11,509.05,992.23,508.42Z"/><path class="cls-154" d="M1013.4,487.31c.4.05.79.11,1.18.18-.9,3.05,2.87,5.26,1.5,8.39a10.13,10.13,0,0,1-4.13-4.37C1013.68,490.54,1013,488.74,1013.4,487.31Z"/><path class="cls-155" d="M961.53,515.42l5.51-1.48c4.6,0,9.2.22,13.79,0,5.42-.27,2.73,2.21,1.62,4.24C975.2,519.37,968.15,519,961.53,515.42Z"/><path class="cls-156" d="M953.06,522.32,950,521.8l3.1-2.21C954.64,520.52,953.23,521.41,953.06,522.32Z"/><path class="cls-3" d="M1020.24,390.93c3.35,2.43,2.16,6.78,4.16,9.79-1.49,6-5.29,9.5-11.34,10.6l-9.89,3.2c-1.68,1.76-3.37,1.49-5,0-4.4-2.83-9.67-2.46-14.44-3.91,1.87-1.41,4-.56,4.74-.64-.71.22-2.89-.94-4.73.65l-9.42-1.68c-3.93-.14-6.8-2.26-9.67-4.73-11.91-10.21-21-22.79-29.65-35.63-4-5.92-8.12-10.61-16-9.7a3.73,3.73,0,0,1-3.56-1.78c-8.34-2.65-17.28-1.22-25.65-3.73-1.91-1.93-4.32-.51-6.45-.95-2.51-.18-5.06.44-7.51-.52l-.54.08-.49-.25c-3.75-1.79-7.9.24-11.69-1.24l-3.68-.14c-.95-1.77-5,.89-4.39-3.09.55-2.67,1.11-5.33,1.67-8l1.07-.32,1.65.29c2.36,2.21,3.8,6.28,8.33,4.18,8.19,7.71,17.3,8.35,27.64,4.6,12.39-4.49,24.89-8.83,38.43-8.79,9.56,0,16.88,3.58,20.61,12.51,4.59,11,11.91,17.39,24.23,18.82,8.82,1,13.81,7.69,15.1,16,1,6.26.4,14.18,7.92,16.47,8.24,2.52,12-5.13,16.8-10C1019.11,392.37,1019.66,391.63,1020.24,390.93Z"/><path class="cls-4" d="M915.42,357.1c9.61-1,16.34,2.22,21.62,11.08a142.38,142.38,0,0,0,26.08,32.52c3.47,3.17,7.45,5.48,11.15,8.24L923.6,438.46c.13-4.45-4.42-8.11-1.26-13.49,1.22-2.09-14.65-12.88-19-13.12-2.53-.14-5.06-.08-7.6-.1a9.22,9.22,0,0,0-6.89,0c-2.16-.17-3,.87-2.79,3-2.78-.05-5.12-3.86-8.23-.94-3.68.2-5.2-2.94-7.53-4.83a10.07,10.07,0,0,0-4.25-2.84,7.4,7.4,0,0,1-2.27-1.41,4.5,4.5,0,0,1-.93-1.56,2.27,2.27,0,0,1,.86-2.42c3.16-1.68,6.79-.67,10.24-2.33,3.28-1.58,7,1,7.26,5.1.14,2.64-.37,4.41,3.12,4.3,2.58-.08,6.15,1.9,7-1.94,1.45-6.53,6.62-6.75,11.44-7.91,1.31,3-.61,5.73-.69,7.31-.46,2.19,1.14,1.42.21,1.53-.19,0-.26-.2-.15-.66,3.49-15.09,9.81-29.1,16.76-42.85a196.44,196.44,0,0,0-13.41,31c-.42,1.3-.74,2.79-2.71,2.23,1.21-6.36,1.6-12.61-.88-18.88-1.26-3.19,1-4.49,3.93-5,4-.64,6.47-2.42,4.6-7.08-1-2.47-.89-4.51,2.64-4.8C915.1,360.62,915.23,358.73,915.42,357.1Z"/><path class="cls-62" d="M902.76,396.51c5.51-11.68,9-24.31,16.22-35.19.48-.73,1-1.44,2.65-3.85L900.7,410.4l-.82-.24q1.43-6.14,2.87-12.26C902.75,397.44,902.76,397,902.76,396.51Z"/><path class="cls-157" d="M849.79,350.65l4-.59c1.16-.46,2.26-.69,3,.68a5.45,5.45,0,0,1-.8,7c-3.65,3.34-6.71,7.28-10.62,10.57C846.67,362.25,850.71,357.07,849.79,350.65Z"/><path class="cls-110" d="M858,400.67l.82-1.41c2.58.32,3.36,2.67,4.79,4.27v-.08c1.51,2.46.12,3.36-2.07,3.82C859,405.81,854.21,405.51,858,400.67Z"/><path class="cls-158" d="M885.91,424.59a33.85,33.85,0,0,1-8.42-8.25,1.41,1.41,0,0,1-.42-1.15c0-.42.11-.63.2-.63,4.87-.47,6.37,3.81,9.07,6.41a4.53,4.53,0,0,1,.48,1.91A2.91,2.91,0,0,1,885.91,424.59Z"/><path class="cls-159" d="M877.66,414.51c-.06.61-.11,1.21-.17,1.82l-2.73.74a4.6,4.6,0,0,1-1.33-1.27c-1.12-2.17-3.19-3.83-3.58-6.41a2.62,2.62,0,0,1,.74-1.67l7,5.54a.82.82,0,0,1,.32.82C877.83,414.37,877.75,414.51,877.66,414.51Z"/><path class="cls-160" d="M860.68,406.6c1.85-.24,3-1.09,2.9-3.15l2.88,1.77a2,2,0,0,1,.66,1.49,1.73,1.73,0,0,1-1,1.27c-2.28-.46-4.66,2.73-6.88-.19A2.11,2.11,0,0,1,860.68,406.6Z"/><path class="cls-161" d="M869.2,416.08c-5.34-1.06-3.26-4.95-3.08-8.11l.28-.28c1.16-.49,1.78.21,2.33,1.06.61,2.15,1.69,4.22,1.07,6.57Z"/><path class="cls-162" d="M885.91,424.59l.08-1.53c3.41-.65,4,2.25,5.36,4.23-1.17,2.16-1.17,2.16-5.35-1.48C886,425.4,885.93,425,885.91,424.59Z"/><path class="cls-163" d="M860.68,406.6l-1.44,1.19c-5.26-4.38-5.31-4.66-1.22-7.12C855.75,404.06,859.08,404.94,860.68,406.6Z"/><path class="cls-164" d="M863.09,350.49c3.91.34,8-1.51,11.69,1.24C870.85,351.64,866.85,352.19,863.09,350.49Z"/><path class="cls-102" d="M844.78,356.66c-.78-1.91-1.14-3.45.5-4.55a2,2,0,0,1,1.73.22C847.48,354,846.81,355.33,844.78,356.66Z"/><path class="cls-165" d="M874.83,416.21a6.38,6.38,0,0,1-.07.87c-2.51,3.34-4.14,1.73-5.56-1h0C871.09,414.61,873,414.55,874.83,416.21Z"/><path class="cls-166" d="M884.54,351.75h6.16c.95,0,1,.6.36,1.14a3.71,3.71,0,0,1-1.29.43L884.6,353c-.47-.27-.63-.55-.5-.85S884.39,351.75,884.54,351.75Z"/><path class="cls-167" d="M884.54,351.75c0,.43.05.87.06,1.3-3,0-6,.49-8.78-1.15Z"/><path class="cls-168" d="M863.63,403.53l-4.78-4.27c2.34-2,3.12,1.29,4.83,1.42C863.67,401.63,863.65,402.58,863.63,403.53Z"/><path class="cls-164" d="M856.82,350.74l-3-.68,1.2-2.8,4.39,3.09Z"/><path class="cls-169" d="M837.06,471l-1.38-.36c.78-1.84-1-2.78-1.46-4.21,3.5-1.49,7-2.95,10.49-4.51,1.95-.87,3.51-1.23,3.57,1.71l-2.85,1.5c-1.49,2-3.83,2.77-5.88,4Z"/><path class="cls-63" d="M872.13,465.1c1.91,2.8,2,5.57-.11,8.32-.39-1.84-.79-3.68-1.18-5.52Z"/><path class="cls-170" d="M855.19,460.81c-1.07-.18-2.42-.16-2.12-1.78.07-.37,1.15-.89,1.63-.78,1.86.43.65,1.63.49,2.57Z"/><path class="cls-14" d="M998.12,414.52h5c1.1.53,3.16-.57,3.31,1.18s-1.65,2.45-3,3.19C1002,417.09,998,418.33,998.12,414.52Z"/><path class="cls-171" d="M965.38,423.58a2.08,2.08,0,0,1-2.27-1.87,1,1,0,0,1,0-.24c-.23-1.83.53-3.25,2.49-3.48a2.14,2.14,0,0,1,2.39,1.84V420C968.21,421.88,966.83,422.84,965.38,423.58Z"/><path class="cls-14" d="M983.82,420.26c1.42-3,4.27-4.24,7-5.59C989.12,417.31,989.55,422.65,983.82,420.26Z"/><path class="cls-14" d="M1013.06,411.32c4.15-3.14,8.77-5.77,11.34-10.6,6.71-2.38,10-8.44,14.26-13.38,1.79-2.07,3.45-4.27,5.17-6.41,1.52,4.78,6,1.27,8.55,3,2,3.11-.33,5.23-1.82,7.42-3.37,5-7.49,9.41-10.46,14.68a9.83,9.83,0,0,1-.93,1.68,11.18,11.18,0,0,1-1.23,1.43c-3.74,3.34-5.56,8.24-9.41,11.49a4.71,4.71,0,0,1-2-.29c-3.92-1.41-7.1.56-9.15,3.22-2.22,2.89,1.68,4.73,2.66,7.12.11.31.2.62.3.94-7.48,8.07-15.55,15.72-19.63,26.33l-16.82-18.09c8.16-4.32,14.28-11.1,20.43-17.66C1007.42,418.86,1012.67,416.94,1013.06,411.32Z"/><path class="cls-172" d="M891.35,427.29,886,423.06c0-.43-.09-.85-.13-1.28.1-1.31.33-2.56,1.71-3.2l5.3,8.74Z"/><path class="cls-173" d="M907.23,434.36c1.92,2.62,1.14,5.48.73,8.3,0,.08-.4.18-.59.14a1.87,1.87,0,0,1-.57-.35C907,439.75,906,437,907.23,434.36Z"/><path class="cls-16" d="M887.57,418.58c-.21,1.26-.41,2.52-1.71,3.2l-8.2-7.27a10.36,10.36,0,0,0-.07-1.25c4.06-6.95,6.08-1.77,8.44,1.42Z"/><path class="cls-62" d="M888.82,411.71a5,5,0,0,1,6.89,0Z"/><path class="cls-4" d="M991,349.16c-4.15-3.64-8.62-7-12.38-11-8.51-9.07-18.79-12.87-31.06-11.68a2.69,2.69,0,0,1,.6-3.18c8.26-8.32,16.4-16.81,27.33-21.77l30.61,8c.18,10-3.72,19-6.85,28.15C997.77,342.47,997,347.73,991,349.16Z"/><path class="cls-174" d="M1060.65,283.22c-.73,5.16,1.33,8.17,6.61,9.09a41.6,41.6,0,0,1,6.43,2.18c-8.81,6.78-18.94,10.41-29.76,12.34a91.07,91.07,0,0,0,12.68-18C1057.8,286.86,1057.2,283.58,1060.65,283.22Z"/><path class="cls-175" d="M991,349.16c3.9-3,5.12-7.91,8.25-11.46,5,4.39-1.23,10.56,2.33,15.34.33.43-3.48.6-3.73,3A24.13,24.13,0,0,1,991,349.16Z"/><path class="cls-176" d="M1024.53,375.66a17.44,17.44,0,0,1-2.94,11l-5.67-9.65c3.77.82,5-2,6-4.91Z"/><path class="cls-177" d="M1052.38,346.18c-2,1.77-4.52,1.41-6.91,1.52-.13-1.86-.16-4.77,1.5-4.72S1051.79,343.15,1052.38,346.18Z"/><path class="cls-176" d="M1014.63,375.51c-1.37-1.88-2.73-3.76-4.1-5.63,2.94-1.73,4.2.76,5.56,2.41S1014.88,374.3,1014.63,375.51Z"/><path class="cls-177" d="M1045.48,347.68c-1.64,1.59-3.71,1.36-5.73,1.39C1041.25,346.89,1043.11,346.26,1045.48,347.68Z"/><path class="cls-176" d="M1026.33,368.66c-1.06,2.21,0,5-1.84,7C1024.83,373.23,1023.09,370.29,1026.33,368.66Z"/><path class="cls-4" d="M944.7,326.6c-3.71,1.29-7.42,1.57-11.11-.05-2.32-.07-4.35-.7-5.53-2.93-10.36-7.92-22.07-11.08-35-9.94,10.12-4.81,19.16-12.35,31.46-11.44,6.81.5,13.52-.19,18.57-5.81,2-2.19,2.73-5.51,6-6.53,7.39,6.06,16.52,8.23,25.21,11.38C963.57,308.74,954.31,317.87,944.7,326.6Z"/><path class="cls-14" d="M949.06,289.9c-3.92,11-12.06,15.2-23.23,14.25-8.45-.72-16.05,1.12-22.35,7-3.08,2.86-7.38,0-10.42,2.55l-5.67.35c4.59-4,4.6-9.32,4.14-14.71-.36-4.27.62-8.4,4.54-10.06s8.22-.6,11.15,3.3,6.69,4.2,10.29,1.27a11.66,11.66,0,0,1,8.42-2.56c9.32.77,11.11-5.12,11.84-12.3Z"/><path class="cls-178" d="M944.7,326.6c8.67-9.82,17.42-19.57,29.57-25.32a1.13,1.13,0,0,1,1.17.28c-9.3,8.32-20.16,14.91-27.93,24.95Z"/><path class="cls-179" d="M1060.65,283.22l-4,5.62-1.39-1.38c1.82-3.09,3.84-5.94,4.46-9.74.5-3.07,2.09-2.49,2.78.29C1061.86,279.75,1061.25,281.48,1060.65,283.22Z"/><path class="cls-135" d="M887.46,314.11c-6.87,2-14,1.92-21,2.43,1.07-4.5,1.81-9.34,8.38-8.21l.09-.06C877.46,313.73,882.42,314,887.46,314.11Z"/><path class="cls-14" d="M874.84,308.33c-5.34.14-4.92,6.16-8.39,8.21l-6.8.41c-3.5-.61-2.65-2.52-2.06-5.12,1.5-6.66,7.14-10.48,10.2-16C871.09,299.45,872.41,304.2,874.84,308.33Z"/><path class="cls-180" d="M928.06,323.62l5.53,2.93c-8.6,3.26-17.63,2.68-26.56,2.88-3.41.37-7.07,2.43-9.85-1.44C907.39,325.94,917.46,322.94,928.06,323.62Z"/><path class="cls-164" d="M867.74,343.38c-4.52,4.91-5.41,4.46-8.33-4.18C862.86,339.24,865.94,340,867.74,343.38Z"/><path class="cls-181" d="M897.18,328c3,2.7,6.6.72,9.85,1.44-5.46,2.63-11.2.71-17.5,1.42C891.81,327.62,894.57,328,897.18,328Z"/><path class="cls-182" d="M1076.54,324.45c1.07,1.72.08,3-.34,5.39C1074.37,327.27,1074.75,326,1076.54,324.45Z"/><path class="cls-14" d="M1038.38,407.7v-1.38c5-5.4,9-11.61,13.3-17.61a15.72,15.72,0,0,1,4.86-4.78c2.43.05,5.12-1.34,7,1.34a6.91,6.91,0,0,1,4.8-1.68,18,18,0,0,1,5.07.38l23.66-.05c-7.63,18.35-19.08,33.58-35.89,44.57-4.92,3.22-9.16,7.52-15.62,9.9.7-7,4.78-10.76,10.1-12.2,6.37-1.72,7.85-5.81,7.81-11.33,0-4.46.07-8.45,3.84-12s1.18-8.86,1.78-13.35h0c-5.85-1.09-8.94,1.2-9.67,7.25-1.5,12.49-11.71,20.09-17.41,30.23a53.47,53.47,0,0,1-4.83,6.75c-2.41,3.05-1.72,8.77-5.77,9.7-5,1.14-10.4.27-15.49.27-1.28-5.24,6-7,4.32-12.1l-.11-.18c.12-3.54,3.26-1.69,4.79-2.72a3.81,3.81,0,0,0,2.57-2.76c.61-1.57,0-3.36.93-4.86,2.66-3.32,4.36-7.44,8.24-9.73C1039,411,1040.27,410.05,1038.38,407.7Z"/><path class="cls-14" d="M1150,413.25c.07,5.86-2.15,11.14-4.18,16.47a2.84,2.84,0,0,1-2.76,2.49c-5.1-2.76-8.71-6.87-8.38-12.77.13-2.45-1.16-1.93-2-2.36a15.71,15.71,0,0,1-5.71-4.81c-4.55-7-9-14-13.78-20.88-1.46-2.09-4.07-4.18-2.14-7.39,3.76,0,7.5-1.72,11.28-.15C1131.79,393.44,1141.12,403.14,1150,413.25Z"/><path class="cls-14" d="M1151.64,397.9c0,4.26,0,8.5-1.48,12.58-4,.92-5.07-2.9-7-4.73-6.35-6.07-12.32-12.54-18.48-18.82-.8-.82-1.62-1.69-1-3,3.75,1,7.48-1.76,11.24-.07C1139.58,389.62,1146.44,392.77,1151.64,397.9Z"/><path class="cls-183" d="M1101.34,379.66l1.39-5.56c6.54-5.49,14.78-4.12,22.33-5.56,1.84,1.15,5.16,1.44,4.82,4s-3.78,1.75-5.76,2.42c-2.26.77-4.9.41-7.38.54-4.35.4-7,2.93-8.46,6.84v.33a3,3,0,0,1-2.73.62C1103.71,382.62,1101.9,381.86,1101.34,379.66Z"/><path class="cls-48" d="M1091.48,370c-.22,2.53-2,2.69-4,2.69-4.31,0-8,1.83-11.42,4.15-3.87-1.41-6.62-3.26-2.48-7.31,1.12-1.1-1.6-1.63-.18-2.57,3.35-1.77,6.9-1.91,10.55-1.42C1086.87,366.38,1089.77,367.2,1091.48,370Z"/><path class="cls-94" d="M1105.5,382.45l2.8.25,2.7,1.3c3,7.74,9.29,13.43,13,20.72,1.23,2.4,3.66,4.17,3.81,7.14,1.24,3.45,1.16,3.64-1.76,3.84-4.27-7.44-9.34-14.38-13.91-21.64a12.37,12.37,0,0,0-8.1-5.94v-2.78A3.09,3.09,0,0,1,1105.5,382.45Z"/><path class="cls-184" d="M1073.34,368.53l1.73.81c-4.17,3.11-.71,5.21,1,7.53a8.06,8.06,0,0,0-2.63,7.1c-1.07,1.61-2.69,1.33-4.25,1.24-1.08-1-1.89-2.44-1.42-3.7,1.13-3,1.09-4.92-2.88-4.53-3.86-4.47,1.94-3.69,3-5.49C1068.86,369,1070.66,367.93,1073.34,368.53Z"/><path class="cls-185" d="M1123.68,383.92a304.46,304.46,0,0,0,26.48,26.56c0,.93-.09,1.85-.13,2.77-8.9-4.72-13.94-13.47-20.84-20.27-2.58-2.54-7.16-4.21-6.87-9.13Z"/><path class="cls-186" d="M1125.06,368.54c-7.11,3.18-15,3.25-22.33,5.56-.55-4.92,1.31-7.38,6.6-7S1120,366.63,1125.06,368.54Z"/><path class="cls-185" d="M1056.54,383.93c-4.4,6.09-8.85,12.15-13.17,18.3-1.32,1.87-2.19,4.1-5,4.09,2.07-6,7-10.06,10.35-15.14,1.54-2.31,3.32-4.38,3.65-7.24Z"/><path class="cls-185" d="M1091.48,370l-7-2.92c-2.36-2.24-6.73,1.63-8.37-2.76,5-2.43,9.91-2.21,14.38,1.26C1091.89,366.67,1093.85,368,1091.48,370Z"/><path class="cls-53" d="M1064.9,377l5.4-.5a19.78,19.78,0,0,0-1.1,8.73l-5.61.06C1063,382.35,1064.51,379.75,1064.9,377Z"/><path class="cls-187" d="M1108.28,382.37c-.16-7,2.11-8.81,8.46-6.84C1114.05,378,1113.41,383,1108.28,382.37Z"/><path class="cls-178" d="M1151.64,397.9c-6.13-4-13-7.21-16.72-14h1.35l15.52,12.8A1.57,1.57,0,0,1,1151.64,397.9Z"/><path class="cls-178" d="M1076.15,364.35c2.13,2.92,6.24-.16,8.37,2.76-3.73.47-7.76-1.43-11.18,1.42l-5.46,3c-2.14-.38-3.15-1.22-.68-2.62C1070.1,367.22,1073.16,365.84,1076.15,364.35Z"/><path class="cls-1" d="M1105.5,382.45a3,3,0,0,1-1.4,2.89,11.11,11.11,0,0,0-7-1.42l4.22-4.26Z"/><path class="cls-14" d="M1104.11,388.12c2.1-1.09,4.56-2.43,6.15.2,5.33,8.83,12.53,16.51,16.21,26.35-4.78,3.35-10.23,1.17-15.33,1.84-3.68.49-7.85-1-10.71,2.71a3.25,3.25,0,0,1-1.61,2c-3.82,1-5.91,3.95-8,6.92a39.75,39.75,0,0,0-4.31,5.54c6.81-4.75,16.81-5.23,19.68-15.28a47.51,47.51,0,0,0,19.39,1c4.91-.85,8.06.61,10.26,5a65.9,65.9,0,0,0,6.22,9.22,1.67,1.67,0,0,1-.4,2l-2.48,3.27a47.33,47.33,0,0,1-4.83,5.08l-6.56,7c-8.23,2.8-16,7.19-25.09,7-.91-2.5,1.43-4.17,1.63-6.38.11-1.2-.09-2.36-1.66-2.18-.71.07-.84.95-1,1.61a2.11,2.11,0,0,0-.13,2.75c.71,1.9-1.18,2.92-1.49,4.48-2.54,2.07-4.16.75-5.69-1.43-4.3-6.11-11-8.27-17.64-10.38-5.57-1.76-6,3.9-8.83,6-4.51,2.76-8.86,5.85-14.15,7,.9-12.84,4.73-18.5,16.4-22,9.73-2.9,15.37-8.71,17.26-18.72,1.25-6.63,3.34-12.77,10-16.64C1102.34,399.26,1103.55,393.59,1104.11,388.12Z"/><path class="cls-16" d="M1100.07,458.2c-2.17-2.19,1.37-2.74,1.25-4.34a1.91,1.91,0,0,1-.14-2.7h0l.14-.14c-.61-.91-1.94-2.24-1.7-2.67,1.09-1.92,3.17-1.57,5-1.37s2.24,1.51,2.15,3c-.2,3.22-2.47,5.42-4.09,7.92Z"/><path class="cls-188" d="M983.69,410.62c2.06-2.26,4.51-1.64,7-.49l-7,.48Z"/><path class="cls-14" d="M943,415.49c-.83,3.94-4,5-6.49,6.3-3,1.51-3-2-4-3.45-3.19-4.74-7.68-9.57-.14-14.49,1-.62,2.3-1.93,2.93-1C938.18,407,940.63,411.44,943,415.49Z"/><path class="cls-189" d="M868,409.61l-1.57-1.92.06-2.47c2-.28,3.27.81,4.13,2.5v1.53A2.08,2.08,0,0,1,868,409.61Z"/><path class="cls-190" d="M868,409.61l2.59-.36c1.15,2.49,4.45,3.66,4.27,7l-5.66-.09Z"/><path class="cls-102" d="M1028.77,421.55c.22,1.46,2,3-.15,4.35-1.17,1.23-1.44,3.07-2.8,4.18-1.57,1.74-4.2-.93-5.63,1.36-3.86-1.63-6.86-4.6-5.42-8.67s10.43-5.26,13.78-2.42c.43.19.61.43.53.73S1028.9,421.55,1028.77,421.55Z"/><path class="cls-191" d="M1002.79,440.52c-2.62-.51-3.94-1.64-3.46-3.92s.78-4.75,3.78-5c1.91-.16,3.44.85,2.71,2.84S1005.41,439.61,1002.79,440.52Z"/><path class="cls-94" d="M1028.77,421.55a5.4,5.4,0,0,1-.22-1.2c1.41-5.21,5.19-8.8,8.62-12.62a3,3,0,0,1-.15,4.12Z"/><path class="cls-192" d="M1037,411.85l.15-4.12a6.12,6.12,0,0,0,1.21,0c2,0,4.63-.16,3.9,2.91S1039.18,413.11,1037,411.85Z"/><path class="cls-16" d="M1069.15,389.52c.19-1.42.51-2.8,2.38-2.5.44.08,1.17,1,1.07,1.27-.64,1.66-2.21,1-3.46,1.21Z"/><path class="cls-193" d="M1025.82,430.08a4.06,4.06,0,0,1,2.8-4.18C1028.6,427.91,1028.63,430,1025.82,430.08Z"/><path class="cls-4" d="M1143.53,431.57l-1.9,2.6c-.89-.71-2.28-1.26-2.58-2.17-3.59-10.81-11.6-12-21.33-10.43-4.27.7-8.72.51-12.37-2.6-1.84.72-3.67,1-5.48-.11-.9-.09-2.23.16-2.63-.34-1.14-1.41.3-1.95,1.32-2.2a46.28,46.28,0,0,1,13.5-1.7c4.79.24,9.61.05,14.41.05,2.81.24.76-2,1.41-2.81,2.74,1.52,4.54,4.7,8.31,4.47.57,0,1.83,1.51,1.75,1.62C1132.8,425.4,1141.38,427.18,1143.53,431.57Z"/><path class="cls-194" d="M1099.87,418.86c1.85-1,3.69-1.63,5.48.11,2.13,4.31,1.36,7.35-3.63,8.78-6.07,1.75-10.33,7.68-17.92,8,1.72-3.72,3.16-6.68,6.19-8.56,3.63-1.33,6.2-4,8.51-6.89Z"/><path class="cls-195" d="M1092.27,438.25c4.49.53,9,.22,8.52,3.77-.43,3.27-4.91,5.4-8.29,6-2.62.47-7.36-1.77-6.8-4C1086.41,441.25,1089.25,437.52,1092.27,438.25Z"/><path class="cls-196" d="M1098.5,420.27c.06,5.87-3.41,7.38-8.51,6.89C1092,423.8,1093.4,419.76,1098.5,420.27Z"/><path class="cls-197" d="M1101.33,451v2.84c-1.25-.12-3.26.33-3.39-1.09C1097.69,450.4,1100,451.36,1101.33,451Z"/></g></svg>