<svg xmlns="http://www.w3.org/2000/svg" viewBox="0 0 136.04 109.87"><defs><style>.cls-1{fill:#961930;}.cls-2{fill:#f62324;}.cls-3{fill:#c97c83;}.cls-4{fill:#fad3c6;}.cls-5{fill:#aa313b;}.cls-6{fill:#aa333d;}.cls-7{fill:#a62833;}.cls-8{fill:#fad0c3;}.cls-9{fill:#b44a54;}.cls-10{fill:#ee252c;}.cls-11{fill:#e41e26;}.cls-12{fill:#f42a31;}.cls-13{fill:#f31b1b;}.cls-14{fill:#651e40;}.cls-15{fill:#fb1f26;}.cls-16{fill:#f4292e;}.cls-17{fill:#a72a35;}.cls-18{fill:#f3d9d7;}</style></defs><g id="Layer_2" data-name="Layer 2"><g id="_0G" data-name="0G"><path class="cls-1" d="M104,81.06c-8.78,8.6-17.73,17-26.27,25.89-3.41,3.53-6.14,3.75-10.24,1.25C46.84,95.63,26,83.36,5.38,70.78c-2.3-1.41-6.8-2-4.94-6.78,2.85-.68,4.86,1.14,7,2.42,9,5.34,17.94,10.78,26.93,16.13,10.43,6.39,20.91,12.69,31.5,18.81,2.14,1.24,4.15,3,6.91,2.81A68.28,68.28,0,0,0,86.07,90.7a9.77,9.77,0,0,1,2-2c3.23-1.92,5.7-4.69,8.25-7.37,8.28-8.65,17.4-16.49,25-25.79,3.18-9.09,4.44-18.57,6-28,1.17-5.51,2.33-11,3.21-16.56,1.54-2.63-.29-7.84,5.49-7.23q-.09,3.63-.19,7.26c.07,2.35,1.07,4.89-1.36,6.74-3.77,13.4-5.65,27.19-8.47,40.78,0,1.66-1.33,2.3-2.5,3a4.57,4.57,0,0,0-2.8,2.7c-.78,2-2.55,3.12-4.22,4.3a8.43,8.43,0,0,0-4.09,4.13,22,22,0,0,1-5.66,5.68A4.17,4.17,0,0,0,104,81.06Z"/><path class="cls-2" d="M130.52,2.78,133.39,0c1.47.83,2.77,1.78,2.58,3.75-4.4.75-1.69,5.49-4.12,7.35a2.21,2.21,0,0,1-2.46.6,2.25,2.25,0,0,1-1-1.39c-.19-1.16,0-2.38-.52-3.5Z"/><path class="cls-3" d="M34,83.74.44,64c12.62-16.74,29-29.87,43.19-45.12,1.73-1.86,4-3.13,6.19-1.68,7.7,5,16.17,8.85,23.25,14.84,4.1,5.71,4.1,5.71-4.35,9.56a5.74,5.74,0,0,1-1.63.93c-3.85-1.63-6.88-.68-9.73,2.42-1.44,1.58-3.31,4.46-6.13,1.4C49.39,42.3,45.84,40,41.8,40.49c-4.64.51-7.09,4.92-9.84,8.29-1.62,2,0,3.41,1.74,4.4,2.46,1.38,4.88,2.77,5.91,5.65C41.56,64,43,69.25,42.76,75,42.49,80.87,40.35,84.21,34,83.74Z"/><path class="cls-3" d="M67.66,40.9c.42-.76.93-2.2,1.23-2.16,6.6.95,5.27-2.93,4.18-6.7,5.9,1.48,10.29,5.74,15.53,8.43,2.2,1.13,4.61,1.87,6.93,2.79a3.42,3.42,0,0,1,.8,1.82c-.56,4.39-2.32,8.4-4,12.43a26.18,26.18,0,0,0-2.67,7.54c-3.53,10.81-7.8,21.35-11.59,32.06-1.17,3.31-3.13,6.2-4.92,9.18-11.83-4.05-21.36-12.24-32.28-18A73,73,0,0,1,34,83.74c7.6-5.44,8.84-10.42,5.17-19.92a30.08,30.08,0,0,1-1-5.41c1.45-1.56,3.34-1.82,5.32-1.81,1.47.17,3.26,1.36,4.32-.13C49.06,54.7,46,54.32,46,52.76c.84-3.3,2.14-6.2,6.06-6.73,2.86,1.47,3.64-1.47,4.61-2.69,3.17-4,6.45-4.52,10.44-1.49,1.24,2.27-.57,2.86-2,3.65-.92-.07.29.07-.63.1-.73,0-1.35-.68-2.1-.24a2.5,2.5,0,0,1,1.51,1.1C62.36,54.37,55.46,59,52,65.67a16.27,16.27,0,0,1-2.66,3.23c-3.4,3.7-3.5,6.62,1.39,9.32,4.06,2.24,7.95,4.81,12,7.09,3.17,1.77,5.24,1.18,6.63-2.12C73.45,73.55,77.64,64,81.75,54.33c1.24-2.91.41-4.72-2-6.51C76,45,71.59,43.37,67.66,40.9Z"/><path class="cls-4" d="M129.06,9.67l.18,1.4a7.6,7.6,0,0,1-.33,8.5c-2.33.35-2-1-1.44-2.72a40,40,0,0,0-7.7,14.06c-3.44,11.82-12.59,19-21.62,26.17a3.39,3.39,0,0,1-4.46.24c-.89-3.64.94-6.73,2-10,1.41-2.31,2.07-5.09,4.34-6.85,2.47-2.07,5.25-3.79,6.94-6.66,0-2.45,2.22-3.12,3.6-4.46l4.83-5.23c.83-3.42,3.71-5.19,6-7.43l2.37-2.38C124.57,11.68,125.81,9.53,129.06,9.67Z"/><path class="cls-5" d="M129.06,9.67l-5.3,4.66c-1.71-4.17,3.35-4.66,4.07-7.52C128.55,7.63,130.91,7.74,129.06,9.67Z"/><path class="cls-6" d="M121.39,16.71a25.63,25.63,0,0,1-6,7.42C114.48,19.31,118.43,18.41,121.39,16.71Z"/><path class="cls-7" d="M100,40.49q-1.48,3.72-3,7.44c-1.44-.62-.93-2.11-1.4-3.16,0-.51-.07-1-.1-1.51Z"/><path class="cls-8" d="M88.58,89.53l-1.45,1.29a1.33,1.33,0,0,1-1.9,0c-1.54-2.12-1.38-4.73-2-7.11.6-2.61.32-5.62,3.22-7.2,1,.39,1.53,1,.8,2a2.08,2.08,0,0,0,.66-1.4,14.82,14.82,0,0,1,2.23-5.83c4.14-5.49,9.58-9.48,15.38-13,7-4.2,11.63-9.71,12.23-18.28.37-5.38,2.39-10.46,5-15.18,1.06-1.94,1.87-5.11,5.45-3.7,1.51,3.74-1.36,7.15-.79,10.82-2,7-2.85,14.16-4.25,21.24-2.91,6.82-9.1,10.8-13.9,16C105,73.75,100.53,78,96.1,82.35A83.61,83.61,0,0,1,88.58,89.53Z"/><path class="cls-9" d="M87,76.74A14.14,14.14,0,0,0,84.51,84a22.75,22.75,0,0,1-.72,5.44c-.09.71-1.13,1.23-.58,2s-.51,0,.39-.37a1.9,1.9,0,0,1,1.92-.6l1.61.35c-2.89,6.76-8.78,10.8-14,15.47L88.49,64.2a2.35,2.35,0,0,1,2.9-.24c1.41,2.09.41,4-.4,5.94C89.46,72.06,89.29,75,87,76.74Z"/><path class="cls-10" d="M95.35,82.39c8.08-10.13,18.65-17.93,26.49-28.28a2.21,2.21,0,0,1,.19,3.21A320.36,320.36,0,0,1,96.94,82.49,1,1,0,0,1,95.35,82.39Z"/><path class="cls-11" d="M122,57.32c-.06-1.07-.12-2.14-.19-3.21,1.35-7.36,1.87-14.89,4.31-22,1.86-.8-.8-4.57,2.78-4.23C127.13,37.79,126.94,48.11,122,57.32Z"/><path class="cls-12" d="M128.93,27.85l-2.78,4.23q.7-5.59,1.43-11.19c-.31-.34-.37-.61-.18-.8a.67.67,0,0,1,.47-.24c2.15-2.66,1.34-5.79,1.37-8.78l2.61,0C131.93,16.87,130.17,22.31,128.93,27.85Z"/><path class="cls-13" d="M95.35,82.39l1.59.1c-2.38,2.83-4.27,6.24-8.36,7C90,86.33,92.79,84.48,95.35,82.39Z"/><path class="cls-14" d="M64.91,44.75l2.22-2.9a1.12,1.12,0,0,0,.53-1c7.19-.4,11.36,5.44,16.93,8.35,1.47.76.22,2.55-.31,3.76-4.83,11.08-9.78,22.11-14.5,33.24-1.53,3.62-3.19,3.73-6.27,1.69-5.22-3.47-10.6-6.75-16.13-9.69-3.81-2-4.46-3.67-1.61-7.31,6.27-8,12.06-16.43,18-24.67A1.24,1.24,0,0,1,64.91,44.75Z"/><path class="cls-15" d="M43.63,57.11a5.51,5.51,0,0,1-5.46,1.3c-.29-.35-.56-.73-.87-1.06-2.57-2.78-9.4-3.05-8.39-6.78,1.45-5.32,7-9,11.56-12.36C43.36,36.09,51.63,42,52.08,46l-5.43,7.08C46.41,55,45.76,56.62,43.63,57.11Z"/><path class="cls-16" d="M95.63,44.77c.47,1,.93,2.1,1.4,3.16-1.91,2.83-2.19,6.15-2.84,9.36.92,1.83.3,2.89-1.65,3.29-1.93-.56-2.36-1.74-1.41-3.48Z"/><path class="cls-17" d="M91.13,57.1c.14,1.21.3,2.41,1.61,3,1.25,2.1.36,3.34-1.65,4.13h-2.6A8.41,8.41,0,0,1,91.13,57.1Z"/><path class="cls-18" d="M82.66,89.13c.27,1.13.24,2.4,1.52,3-.35,2-1.81,3-3.65,3.9A9.91,9.91,0,0,1,82.66,89.13Z"/></g></g></svg>