<svg xmlns="http://www.w3.org/2000/svg" viewBox="0 0 135.77 152.11"><defs><style>.cls-1{fill:#651e3f;}.cls-2{fill:#f91f26;}.cls-3{fill:#f2857e;}.cls-4{fill:#a73146;}.cls-5{fill:#fefefe;}.cls-6{fill:#fa857f;}.cls-7{fill:#b7151c;}.cls-8{fill:#941a32;}.cls-9{fill:#fcd5c6;}.cls-10{fill:#f98680;}</style></defs><g id="Layer_2" data-name="Layer 2"><g id="_0G" data-name="0G"><path class="cls-1" d="M84,132.73l-.51-.32-.58.1c-4.25-1-8.79-.8-12.8-2.91l.11.06c-1.65-1.39-4.23.85-5.65-1.45l0,0c-2.94-.69-6-.32-8.92-.77-4.13-.61-8.09-2-12.22-2.64-3.3-.48-6.06.41-7.58,3.56-1.74,3.59,1.41,4.93,3.44,6.6,2.86,2.36,6,4.34,8.81,6.78,1.85,1.63,4.23,3.28,2.33,6.37L49,148c-2-.77-4.12-1.24-5.38-3.21-3.23-2.18-6.4-4.45-9.7-6.52-7.64-4.79-7.94-6-3.06-13.53.74-1.14,1.42-2.33,2.49-4.1-8.37-2-16.29-3.91-24.22-5.76-2.45-.57-5.13-.61-6.43-3.35-1.59-6.65,1.37-11.61,5.89-16,8.25-.42,15.36,4,23.19,5.51A136,136,0,0,1,45,104.69C61.23,109.85,77.76,114,94,119.26c1.53.49,3.14.74,4.41,1.87a6.19,6.19,0,0,1,1.11,2.11c.63,4.05,1.15,8.1-.85,12C93.32,137,88.67,134.84,84,132.73Z"/><path class="cls-2" d="M50.48,148.13c-1.72-6.6-8.7-7.71-12.55-12.06-1.88-2.13-7.22-2.34-4.86-6.93S38.53,121,44.63,123c3.74,1.23,7.6,2.08,11.41,3.1-1,9-.17,10.1,9.2,13.77,3.87,1.51,7.92,2.91,10.45,6.61l3.4,2.75c-6.16,3.27-12.79.83-19.15,1.58-3.59.51-6.59-1-9.55-2.75Z"/><path class="cls-3" d="M8.82,96.09c-3.05,4.76-5.4,9.8-6.12,15.48-2.27-1-3.29-3.1-2.36-5,2.52-5.07,2.29-11,5.4-15.84,1.14-.74.08-3.4,2.57-3,2.09-.68,1.27-4.29,4.18-4.15C13.93,88.59,11.58,92.4,8.82,96.09Z"/><path class="cls-4" d="M58.86,149.49l20.22-.28c.73.39,1.92.63,2.09,1.19.5,1.62-.86,1.7-2,1.71-3.35,0-6.7,0-10-.06-3.22-1.2-6.6-.17-9.87-.72A1.19,1.19,0,0,1,58.86,149.49Z"/><path class="cls-5" d="M126.3,90.8A211.49,211.49,0,0,1,116.16,120c-2,5.46-5.68,1.38-8.62,1.49a6.75,6.75,0,0,1-5.32-1.64C96.43,116,98.43,109.26,96.49,104a27.82,27.82,0,0,1-1.94-6.7C92,83.84,85.05,75,70.62,72.78c-9-1.38-14.38-8.92-12.92-17.72,2-12.36,6.6-24.1,10-36.11,6.69-.71,9.81,5.46,15,7.74a9.53,9.53,0,0,1,2.43,3c1,2.49,3.31,3.15,5.44,4.12a4.14,4.14,0,0,1,1.3,1.3c.7,2.5,2.72,3,4.92,3.28a20.83,20.83,0,0,1,6.08,4.31,7.61,7.61,0,0,0,5.8,3.9,2.91,2.91,0,0,1,1.28,1.36c1.14,3.65,4.4,5.29,7.26,7.06,2.63,1.62,5.68,1.9,6.71,6,.92,3.64,2.89-2,4.71-.43,2,.62,3.81,1.4,4.31,3.73a7.73,7.73,0,0,1,1.4,5.17,5.23,5.23,0,0,1-.89,2.76C124.93,76,126.67,83.82,126.3,90.8Z"/><path class="cls-6" d="M133,52.89l2.77,1.39,0,1.41c-1,2.33-1.66,4.65,0,7-.3,1.66-1.74,1.28-2.81,1.58l-4.36-3c-6.56-4.51-14.42-7.22-19.44-13.9l0,0c-2.57-1-5.14-1.91-6.89-4.22L96.42,39A10.63,10.63,0,0,1,91,34.77l0,0c-2.4-1.34-5.3-1.94-6.78-4.63l-1.93-2.2a3.72,3.72,0,0,1,2.9-2.56c1.84-.26,4.13-.76,5.34.57,7.78,8.58,19,12.57,27,20.72,3.57,3.62,8.36,4.75,12.4,7.36C131.07,54.75,132,53.45,133,52.89Z"/><path class="cls-7" d="M8.82,96.09q1.83-6.23,3.67-12.44c.54-1.39,1.09-2.77,1.64-4.16,3.49-13.25,8.09-26,15.29-37.81a1.34,1.34,0,0,0,.26-1.06c1-9.69,6.79-17.74,9.11-27A11.64,11.64,0,0,1,40.46,9a17.72,17.72,0,0,0,2-4.53c2.71-5,6.59-5.74,10.9-2.41C58.55,6,65.85,7.68,68,15.09a2.5,2.5,0,0,1-2,2.14c-4.66-.55-7.93-3.75-11.36-6.38-3.91-3-5.77-2.27-7.58,2.2Q35.57,41.13,24.31,69.26c-2.17,5.39-4.21,10.83-6.53,16.15-1.91,4.39-1.11,6.79,3.81,8.18,6.67,1.89,13.4,3.76,19.74,6.71,2.28,2.28,5.45,2.41,8.27,3.42a2,2,0,0,1,1.13,1.71c-1.78,2.14-3.88,1.4-6,.68C32.53,103.61,20.65,99.93,8.82,96.09Z"/><path class="cls-8" d="M99.31,136.89l-1.42-1.38.3-13.09c2.91.7,5.86,1.27,8.72,2.13,10.39,3.13,10.91,5.16,3.72,13.89C106.83,138.08,103.28,136,99.31,136.89Z"/><path class="cls-9" d="M98,103.25q0,7.73,0,15.46l-47.49-14-.4-.29-.49.08c-3-.64-6.11-1.14-8.89-2.65-7.48-2.46-14.92-5.1-22.48-7.29-4.13-1.2-4.9-2.84-3.23-6.93q16.14-39.4,31.79-79C48.19,5,49.56,5.09,52.2,7.06c4.49,3.33,9.1,6.48,13.67,9.71,1.17.56,3.34,0,2.82,2.48-1,11.82-6.8,22.42-8.85,34-1.74,9.92,2.14,16.09,12,17.9,14.6,2.68,21.84,10.32,24.75,26.05C96.94,99.25,97.5,101.24,98,103.25Z"/><path class="cls-10" d="M68.69,19.25l-2.83-2.48c.53-.54,1-1.09,1.58-1.64,1.22-1.36,3.29-2.12,4.38-1.21,4.73,3.9,10.85,6.34,13.61,12.4l-3.18,1.6Z"/></g></g></svg>