<svg xmlns="http://www.w3.org/2000/svg" viewBox="0 0 54.52 49.98"><defs><style>.cls-1{fill:#fbadae;}.cls-2{fill:#faa6a6;}.cls-3{fill:#f9a7a8;}.cls-4{fill:#f9a8a8;}.cls-5{fill:#f98386;}.cls-6{fill:#f9888b;}.cls-7{fill:#f9878b;}.cls-8{fill:#f9868a;}.cls-9{fill:#fa8588;}.cls-10{fill:#fb888b;}.cls-11{fill:#c7787e;}.cls-12{fill:#fa898a;}</style></defs><g id="Layer_2" data-name="Layer 2"><g id="_0G" data-name="0G"><path class="cls-1" d="M36.75,11.53C42.12,14.93,49,15.75,52.82,21.9c1.83,3,2.55,4.87.27,8-4.28,5.77-8.13,11.87-12,17.94-1.72,2.69-3,3.05-5.06.26-4.39-5.84-10.55-8.87-17.6-10.38a50.14,50.14,0,0,1-6.54-2.35A23,23,0,0,1,1.18,26.67c-4-5.59,3.28-7.47,4.45-11.46a19.05,19.05,0,0,1,2-3.67c.76-2.71,1.82-5.24,4.2-7,2.95.53,2.06-8,6.94-2.91,1.63,1.17,3.6,2,4,4.32a15.39,15.39,0,0,0,8.44,4.13c1.15,1.35,3.14-.08,4.28,1.29A4.65,4.65,0,0,0,36.75,11.53Z"/><path class="cls-2" d="M31.29,35.26c-1.87.91-3.73,1.92-6.27.68,3.64-6.63,9.71-11.56,12.12-18.79.49-1.44,1.77-1,2.93-.56,1.91.68,1.66,1.88,1,3.28A35.56,35.56,0,0,1,31.29,35.26Z"/><path class="cls-3" d="M31.29,35.26c2.24-5.79,6-10.59,9.8-15.39,2.61,5.48-1.94,8.57-4.16,12.44-.58,2.1-3.83,2.9-2.82,5.78C31.5,39.27,31.5,39.27,31.29,35.26Z"/><path class="cls-4" d="M29.84,18.45h1.37C29.86,24,25.83,28,22.73,32.5L21.5,31c-1.85-2.48.72-3.85,1.42-5.69.92-1.31,1.84-2.61,2.75-3.92C26.9,20.2,27.2,17.66,29.84,18.45Z"/><path class="cls-5" d="M22.73,32.5c1.78-5.32,5.92-9.2,8.48-14,.76-1.09,1.26-2.53,3.74-2.27C30.92,22,28.4,28.33,22.73,32.5Z"/><path class="cls-6" d="M18.73,28.24c-2,.44-2.58,3.21-5.66,3.13,3.2-4.54,6.13-8.69,9.92-14.08,0,5.42-4.28,7.31-4.29,11Z"/><path class="cls-7" d="M22.92,25.32c-.47,1.89-1,3.79-1.42,5.69l-3.95,2.34,1.18-5.11,0,0Z"/><path class="cls-8" d="M15.13,15.13c-.34-3.24,2.48-3.9,3.44-5.71C18.7,11.89,17.69,13.68,15.13,15.13Z"/><path class="cls-9" d="M15.29,6.2c.89,2.89-.5,4.36-3.28,5.09Z"/><path class="cls-10" d="M29.84,18.45,25.67,21.4c.15-2.93,2.2-4.69,4-6.71C31.14,16,29.51,17.26,29.84,18.45Z"/><path class="cls-11" d="M34.11,38.09c-2.77-3.74,1.49-4,2.82-5.78C37.15,34.8,35,36.11,34.11,38.09Z"/><path class="cls-12" d="M26.81,15a7.78,7.78,0,0,1-1.95,1.6c-.78.29-1.33-.39-.8-1.12a10.87,10.87,0,0,1,2-1.71Z"/></g></g></svg>