<svg xmlns="http://www.w3.org/2000/svg" viewBox="0 0 95.84 42.09"><defs><style>.cls-1{fill:#28a745;}.cls-2{fill:none;stroke:#da466a;stroke-miterlimit:3;stroke-width:0.84px;}</style></defs><g id="Layer_2" data-name="Layer 2"><g id="Layer_1-2" data-name="Layer 1"><path class="cls-1" d="M12.15,16l-1.32,2.41-2.2,4.08L8.05,2l-5.66.18s-.83,29.35-.56,29.41a15.81,15.81,0,0,0,5.62.37l1-.31L11.71,25l5,7.25c2.47,1.34,7.21.74,7.21.74l1-.31s.53-21.29-.15-30.15l-.7-.94-6.65-.23-.66.21s-.1,4.2-.1,4.63.23,16.19.23,16.19Z"/><path class="cls-1" d="M43,16.07c-.17,1.62-.29,7.27-1.2,7.32a5.58,5.58,0,0,1-.84.29c0-.06-4.32.31-4.75-.06l-.56-.74-.37-2.12s-.43-5,0-5.56c0,0,.84-.83,5.2-.83C42.27,14.37,43.13,14.44,43,16.07ZM50.48,2.51c-11.34-2.41-19,0-19,0L30.12,3.92c-1.83,12,1.54,25.74,1.54,25.74l.39,1.42c4.68,4.61,14.6,1.7,14.6,1.77s1.78-1.71,1.78-1.71c4.84-10.83,2.86-27.59,2.86-27.59Z"/><path class="cls-1" d="M66.87,16l-1.32,2.41-2.2,4.08L62.77,2l-5.66.18s-.83,29.35-.56,29.41a15.81,15.81,0,0,0,5.62.37l1-.31L66.44,25l5,7.25c2.47,1.34,7.21.74,7.21.74l1-.31s.53-21.29-.15-30.15l-.7-.94-6.65-.23-.66.21s-.1,4.2-.1,4.63.23,16.19.23,16.19Z"/><path class="cls-1" d="M84.59,2.27c-.49,9.9,1.73,31.13,1.73,31.13L90.94,33l1.56-1.23L95.84,1.48A37.07,37.07,0,0,0,84.59,2.27Zm8,36.78a.85.85,0,0,0-.11-.52c-.51-1.17-1.44-1.4-2.71-1.4-1.51,0-4,.66-4,2.41,0,1.58,1.75,2.55,3.15,2.55S92.63,40.59,92.63,39.05Z"/><path class="cls-2" d="M10.79,15.11,9.47,17.52,7.27,21.6,6.69,1.07,1,1.25S.21,30.6.47,30.66A15.86,15.86,0,0,0,6.1,31l1-.31,3.23-6.65,5,7.25c2.46,1.33,7.2.74,7.2.74l1-.31s.53-21.29-.14-30.15l-.7-.95L16.11.43l-.66.2s-.11,4.2-.11,4.64.23,16.18.23,16.18Zm30.84,0c-.16,1.63-.28,7.27-1.19,7.33a7,7,0,0,1-.84.29c0-.06-4.33.31-4.76-.06L34.28,22l-.37-2.12s-.43-5,0-5.56c0,0,.85-.83,5.21-.83C40.91,13.46,41.78,13.52,41.63,15.15ZM49.13,1.6c-11.35-2.41-19,0-19,0L28.76,3c-1.83,12,1.55,25.74,1.55,25.74l.39,1.42c4.67,4.61,14.6,1.71,14.6,1.78s1.77-1.72,1.77-1.72c4.84-10.83,2.86-27.59,2.86-27.59ZM65.51,15.11,64.2,17.52,62,21.6,61.42,1.07l-5.66.18s-.83,29.35-.56,29.41a15.81,15.81,0,0,0,5.62.37l1-.31,3.23-6.65,5,7.25c2.47,1.33,7.2.74,7.2.74l1-.31s.54-21.29-.14-30.15l-.7-.95L70.83.43l-.66.2s-.11,4.2-.11,4.64.23,16.18.23,16.18ZM83.24,1.36C82.74,11.26,85,32.49,85,32.49l4.61-.41,1.57-1.24L94.48.57A36.66,36.66,0,0,0,83.24,1.36Zm8,36.77a.9.9,0,0,0-.1-.51c-.52-1.18-1.45-1.4-2.72-1.4-1.5,0-4,.66-4,2.41,0,1.58,1.75,2.55,3.14,2.55C89.13,41.18,91.27,39.68,91.27,38.13Z"/></g></g></svg>