<svg xmlns="http://www.w3.org/2000/svg" viewBox="0 0 240.44 224.11"><defs><style>.cls-1{fill:#fb1f26;}.cls-2{fill:#c87a81;}.cls-3{fill:#69213f;}.cls-4{fill:#b9171c;}.cls-5{fill:#c97c83;}.cls-6{fill:#fa2027;}.cls-7{fill:#6a203d;}.cls-8{fill:#fce8e7;}.cls-9{fill:#380913;}.cls-10{fill:#a62833;}.cls-11{fill:#931831;}.cls-12{fill:#f8c8c1;}.cls-13{fill:#712227;}.cls-14{fill:#f88a81;}.cls-15{fill:#732f4b;}.cls-16{fill:#951d34;}.cls-17{fill:#652f36;}.cls-18{fill:#b8181d;}.cls-19{fill:#5c1837;}.cls-20{fill:#43121a;}.cls-21{fill:#f1dddb;}.cls-22{fill:#420a16;}.cls-23{fill:#4a1723;}.cls-24{fill:#2e060e;}.cls-25{fill:#46141f;}.cls-26{fill:#fa1f25;}.cls-27{fill:#f2837b;}.cls-28{fill:#702945;}.cls-29{fill:#bf646c;}</style></defs><g id="Layer_2" data-name="Layer 2"><g id="Layer_1-2" data-name="Layer 1"><g id="_0G" data-name=" 0G"><path class="cls-1" d="M219.29,32c0,5.75.83,11.61-1.76,17-1,2.2-2,4.73-5,5.3-5-2.75-3.75-7.52-3.7-11.79.07-6,.93-12.14-3.18-17.38-2.9-4.91-8-7.32-12.15-10.8-3.1-2.58-7.8-4.78-5.09-10.37,1.34.22,3.22,0,4,.74,8.48,9.13,20.81,14.31,26.74,26,.38.23.53.49.46.78S219.4,32,219.29,32Z"/><path class="cls-2" d="M163.12,11.09c5.8-1.3,12.17-.19,17.35-4.1,1.95,3.12,3.54,6.45,6.6,8.8,1.33,1,3,2.65.67,4.53-6.7,1-13.38,2.14-20.11,2.9C163.42,20.19,161.3,16.37,163.12,11.09Z"/><path class="cls-3" d="M163.12,11.09a39.63,39.63,0,0,0,4.33,11.26,1.35,1.35,0,0,1-.06,1.8c-2.61,1.47-4.93,3.91-8.4,2.51-1.63-4.72-4.7-9.16-2.78-14.55l2-1.07Z"/><path class="cls-4" d="M156.21,12.11c.53,4.82,4,9.07,2.8,14.23-.9,2-2.69,3-4.36,4.17-7.83,4.94-15.76,6.34-24.39,1.61-4.24-2.33-8.7-.22-12.84,1.27-3.72,1.33-7.26,3.13-11.06,4.31-9.7,3-15.15,1.43-21.59-6.35-7.24-8.73-15.46-12.18-26.45-11,10,7.41,19.82,14.77,31,20.1,1.84,1,3.7,2,5.55,2.94,9.67,6,19.9,11,29.78,16.62,4.73,2.7,10.16,3,15.46,3.77,7.12,1,14.2,2.21,21.37,2.9a15.35,15.35,0,0,1,2.13.39c2.32.84,5.14.54,6.81,2.89,7.83,1.91,16.08,1.38,23.79,4,2.9,4.31,2.34,8.83.81,13.41-1.9,2.62-5.07,2.16-7.65,3.17-12.24,1.5-24.08,1.12-35-6-7.82-5.09-16.63-5.58-25.62-3.79a20.84,20.84,0,0,0-2.06.41c-21.88,7.42-38.44-.09-51.84-17.84-11.34-15-26.24-20.13-44.47-14.07a11.54,11.54,0,0,1-3.44.62,6.38,6.38,0,0,1-2.35-.49c-9-10.3-9.59-22.09-6.22-34.6C22.9,5.06,32.56,1.53,43.75,1c3.17-.79,6.31-1.07,9.34.52a7.79,7.79,0,0,1,1,.8A2.14,2.14,0,0,1,54.79,4c.4-.7-.25-1-.53-1.53a1,1,0,0,1,0-1.41L54.34,1c5.13,1.65,10.88,1,15.59,4.17a2.11,2.11,0,0,1-2.9.58c-.16.28-.1.67,0,.64,1-.34,2.22-.15,2.85-1.28,12.67.59,24.93,3.7,36.94,7.23,11.77,3.47,23.2,3.06,34.94,1.06C146.5,12.63,151.38,12.53,156.21,12.11Z"/><path class="cls-5" d="M189.82,19.51c6.24-1.49,11,3.21,16.72,4,5.84,5,4.43,11.74,4.11,18.09-.22,4.44-.66,8.78,1.9,12.75-3.89.72-4.87-2.2-6.23-4.83-1.13-2.18-2.54-4.21-3.83-6.31a24.27,24.27,0,0,1-5.66-4.63c-4.94-3.57-6.37-8.8-6.83-14.49C189.39,22.56,188.54,21,189.82,19.51Z"/><path class="cls-2" d="M212.7,74.1c-1.37,3.22.1,5.33,2.71,7,4.61,3,8.78,6.23,8.23,12.63-.26,3,2.83,3.29,4.27,4.93-2,3.38-2.42,3.35-6.55-.48-2.28-6.11-7.56-7.41-13.16-8.25-2.85-.43-6.1.24-8.12-2.73-1.1-3.71-1.93-7.37,1.39-10.48C204.85,74.28,209.22,76.09,212.7,74.1Z"/><path class="cls-5" d="M221.79,97.64c2.1,0,3.38,4.81,6.12,1,3.85,2.53,5.39,6.84,8,10.32,2.54,1.59,3,4,2.82,6.76.1,2.23-1,4-2.21,5.74-1.4,2-2.85,3.07-4.67.12-4.12-6.7-8.45-13.27-12.69-19.9C218.83,99.59,219.2,97.9,221.79,97.64Z"/><path class="cls-6" d="M221.79,97.64l-2.61,4.08c-5.64-3.41-11.62-5.68-18.32-5.61-2-2.92-2.2-5.75.46-8.41,5.76-.09,11.36.45,16.68,3C221,92.22,222.88,94,221.79,97.64Z"/><path class="cls-7" d="M201.32,87.7c-.15,2.8-.31,5.6-.46,8.41h-.6l-.59-.1a5.46,5.46,0,0,1-1.07-1.44c-.64-2.11-.5-4.69-3.31-5.5A3.74,3.74,0,0,1,194,87.86q.06-6.93.14-13.87c2.7.19,6-1.24,7.3,2.71Z"/><path class="cls-8" d="M238.75,115.76c-2-1.83-2.15-4.4-2.82-6.76,1.82-1.06,1.38-2.94,1.66-4.56.47,1,.94,2.06,1.4,3.09.73,2.8,1.1,5.59-.26,8.33Z"/><path class="cls-5" d="M238.73,115.86c.09-2.78.18-5.55.26-8.33C240.79,110.37,241.13,113.16,238.73,115.86Z"/><path class="cls-9" d="M199.56,94.86c0,.4.08.79.11,1.19l-24.93.51-22.58-.09c-2.83.72-5.65,1.11-8.41-.28l-.43-.3-.47.25c-.45-.32-.66-.65-.61-1H142A29.53,29.53,0,0,1,129.79,95l-1.8-.43c-6.23,1.63-12-.44-17.84-2.17-3.28-1.17-6.58-2.3-9.93-3.27-4.71-1.35-9.43-2.68-14.09-4.21-6.39-3.1-14.19-3-19.52-8.5-3.21-2.67-8.06-1.89-10.94-5.25a44.62,44.62,0,0,1-8.57-3.26,2.56,2.56,0,0,1,.21,2.27c-2.19,2.39-5.39,2.46-8.16,3.5-7.23,2.7-8.32,6.72-3.06,12.36,3.87,4.15,7.49,8.26,6.72,14.5a19.7,19.7,0,0,0,0,10c0,7-2.3,13.67-2.16,20.7.11,5.37,1.92,9.38,6.51,12.22,2.75,1.7,5.38,3.63,8.19,5.24,5.48,3.14,9.49,7.57,10.95,13.76,2.07,8.8,7.58,13.92,15.93,16.74a35.87,35.87,0,0,1,13.42,8.5c2,1.89,4.24,3.68,4,6.88l1.73,1c8.32,10.48,19.16,17.57,31.08,23.19.49,1,1,2.07,1.43,3.14.14.37,0,.87-.18,2.2-11.08-6.68-24.19-9.29-31.55-21.17-1.77-2.84-4.75-4.93-7.18-7.37-4.76.63-6.66-4.06-10.29-5.53a44.37,44.37,0,0,1-6.61-4.14C47.62,160.63,21.43,132,7.34,94.11,1,77.11-2.95,59.87,2.75,41.8,4,41.54,4.56,42.3,5,43.23c2.35,9.63,3.52,10.26,13.21,7,1.52-.52,3-1.12,4.64-.69a7.16,7.16,0,0,1,2.26,1A3.59,3.59,0,0,1,25,48.82C44.4,40.73,61.15,45.49,74.42,62,81.65,71,89,80.46,101.81,82c8.26,1,16.16-1.44,24.1-2.94,9-1.7,17.82-2,25.6,3.18,11,7.35,23,7.84,35.47,7,2.1-1.84,4.71-.94,7.08-1.34l1.56.15h0C201.55,87.56,199.25,92,199.56,94.86Z"/><path class="cls-10" d="M41.62,100.55c.13-5.83-3.06-9.84-7.09-13.59C28,80.87,29.33,75.23,38,72.24c3-1,6.22-1.65,9.33-2.45,2.87-2,5.62-.16,8.42.24,3.67,2.63,9.77,1.33,11.53,7.09-2,6-1,12.19-1.3,18.29.18,8.94-.94,17.66-5.54,25.51-2.2,3.75.4,5.47,2.4,7.63-.35,2.76,1.24,5.24,1.17,8,2.19,8.29,6.88,15.13,12.51,21.41,3,1.61,5.1,4.23,7.19,6.82v.06a61.11,61.11,0,0,1,8.32,8l16.84,17.06c-1.2,3.13-4.2,4.42-6.79,6.13a2.67,2.67,0,0,1-3-1.8A38.5,38.5,0,0,0,79.79,180c-7.52-2.57-12.84-7-14.55-15.2-1.5-7.23-6-12-12.5-15.68-15.6-8.86-16.8-13.17-11.87-35.56.25-1.12.54-2.24.8-3.36A16.22,16.22,0,0,1,41.62,100.55Z"/><path class="cls-2" d="M101.35,195.59c1.74-2.93,4.66-4.28,7.55-5.68l2.6.17a7.42,7.42,0,0,0,1.44,1,29,29,0,0,0,9.92-.09,5.65,5.65,0,0,1,4.07,2c2.84,2,5.66,4.12,9.4,4.07,1.52.87,1.21,1.89.25,3a3.69,3.69,0,0,1-1.77.28,15.77,15.77,0,0,0-7,.35c-.85.09-1.57-.65-2.44-.35,1.29.14,2.42.87,3.72,1,2.32,1.08,5,1.72,6,4.54l3,2.37c5.38,2.86,6.06,7.25,4.07,12.51-3.83,2.19-6.24-2.61-9.75-2-5.08,1.54-8.3-2.53-12-4.49C112.44,210,105,204.57,101.35,195.59Z"/><path class="cls-2" d="M69.62,93.49c3.45-3,5.84-.12,8.47,1.52s4.47,5.29,8.88,3.63c1.93-.73,2.07,1.81,2.38,3.33.72,3.6,1.56,7.15,3.89,10.13-.36,3.6,1.84,7.48-1.18,10.78-2.93,2.21-5.61.82-8.28-.57-2-1.83-3-4.32-6.3-5-6.83-1.52-8.85-5.11-7.5-12.3C70.69,101,72,97.25,69.62,93.49Z"/><path class="cls-11" d="M23.44,50,17.1,52.55C7.89,56.21,4,53.37,4.17,43.19c-.33-4.53,1.64-8.6,2.52-12.89,2.14-5.8,4.24-11.64,9.65-15.39.36,10.61-.8,21.48,5.14,31.16.6,1,1.37,1.83,2,2.75.44.31.57.59.39.85S23.62,50,23.44,50Z"/><path class="cls-12" d="M100.51,87.62l9.6,3.16c1.33,4.75,6.28,6.27,9,10,2,2.78,4.18-1.36,6.5-1.6,2.4,1.75,4.79,3.52,7.22,5.24s3,3.86.89,6.32c-1.3,1.16-2.53,2.4-3.81,3.59l-1.54,3c-2.36,1.35-4.36.85-6.15-1.11-4.8-5.28-10.44-9.68-15.46-14.73-3.15-4.3-9-6.5-9.7-12.7C97.76,87.15,99,87.08,100.51,87.62Z"/><path class="cls-13" d="M64,136.52c0-2.33-7.08-3.38-1.21-6.75,2.21-2.05,4.76-.23,7.1-.64,3-1.37,1.43-4,1.76-6.17,3.76-5.55,7.37-.86,11,.14,2.82,2.1,3.32,5.39,4.31,8.43C81.08,138.68,72.67,140.5,64,136.52Z"/><path class="cls-14" d="M125.56,99.15c-4.25,7-6.11,7.16-9.56-.09-1.93-4-3.13,4.75-4.32-.22-.64-2.67-1.79-5.23-1.57-8.06L128,94.58C126.56,95.77,125,96.91,125.56,99.15Z"/><path class="cls-15" d="M107.5,100.32c5,4.7,10.34,9.15,15,14.21a8.08,8.08,0,0,0,5.84,2.8c-2.64,3.92-5.33,3.08-7.7-.15a35.58,35.58,0,0,0-8.64-8.41c-1.73-3-5-4.26-7.35-6.56a1.16,1.16,0,0,1-.47-1.49C105.15,99.53,106.39,100.47,107.5,100.32Z"/><path class="cls-16" d="M87,131.53c-4.13-.8-2.37-5.53-4.92-7.38-.33-1.38.34-2.09,1.61-2.38,2.94-.76,5.39,2.16,8.36,1.11C91.87,126.64,89.73,129.26,87,131.53Z"/><path class="cls-17" d="M6.69,30.27A36.2,36.2,0,0,1,4.16,43.16L2.72,41.81C3.62,37.82,4.36,33.77,6.69,30.27Z"/><path class="cls-18" d="M54.27,2.62A31.13,31.13,0,0,0,43.73,1.1a13.27,13.27,0,0,1,10.59,0V2.66Z"/><path class="cls-19" d="M129.86,114.3c.2-2.34,1.29-3.73,3.81-3.59C133.53,113.1,132.22,114.26,129.86,114.3Z"/><path class="cls-6" d="M189.82,19.51l1.48,4.08c1.57,4.58.88,7.5-4.84,6.06-3.79-1-7.29-.33-10.85.88-2.16.74-4.38,1.59-6.72.51-1.91-2.16-3-4.51-1.68-7.41.1-.42.18-.85.24-1.28,6.84-2.82,14-3.39,21.31-3.25Z"/><path class="cls-20" d="M167.21,23.63l2,6.88c-.58,1.18-1.89.83-2.8,1.33l-4.32.4c-2.32-1.49-5.28-1.48-7.48-3.24A6.21,6.21,0,0,1,159,26.34C162.11,26.56,163.87,22.71,167.21,23.63Z"/><path class="cls-9" d="M154.62,29c3.24-.64,6.52-1.39,7.48,3.24C142.32,40,122.43,47,100.62,43.11c-3.77-1.77-8,.67-11.72-1.25-13.23-4.92-23.16-15.08-35.37-22,9-5.29,25.81,1.13,31.9,9.13,7.1,9.35,11,10.27,22.09,6.46,4.38-1.51,8.67-3.27,13-5,4.85-1.93,9.12-1.58,13.78,1.39C141.49,36.51,148,31.5,154.62,29Z"/><path class="cls-21" d="M88.86,41.83a20.76,20.76,0,0,1,11.76,1.25c-2.29.86-5.09-.88-7.1,1.39C91.78,43.87,89.8,43.77,88.86,41.83Z"/><path class="cls-22" d="M23.44,50a6.17,6.17,0,0,1,.09-1.21h1.41c1,2.55,4.31,3.71,4.17,6.94A14.22,14.22,0,0,1,23.44,50Z"/><path class="cls-18" d="M69.85,5.16c-1.25,4.71-3.85.25-4,.37l4.06-.31Z"/><path class="cls-18" d="M54.28,2.61l3.47,3.73c-3.78.58-3.34-1.81-3.48-3.72Z"/><path class="cls-22" d="M30.5,57.16l25.17,14-8.36-1.39C41.56,65.78,34.52,63.49,30.5,57.16Z"/><path class="cls-23" d="M9.53,69.75a21.3,21.3,0,0,1,7.24,7.67C13.38,75.8,10.24,74,9.53,69.75Z"/><path class="cls-24" d="M41.62,100.55v9.73A8.18,8.18,0,0,1,41.62,100.55Z"/><path class="cls-25" d="M9.53,69.75c-1.65-.94-3.19-1.93-2.33-4.43C9.15,66.32,9.28,68,9.53,69.75Z"/><path class="cls-26" d="M83.69,121.77l-1.61,2.38c-2.46.23-4.19-1.51-6.26-2.31-2.54-1-3.37.08-2.94,2.56-6.31.61-.29,4.62-1.8,6.56l-8.3-1.19c-6.1-2.06-7.39-4.85-3.39-10.83,4.4-6.54,4.89-14.62,5-22.46,2.29,0,3.34-2.25,5.22-3,3.57.42,4.62,2.23,3.59,5.72-.9,3-1.87,6.25-1.81,9.37.07,3.57.65,8.15,6,7.15C82.91,114.67,83.68,117.55,83.69,121.77Z"/><path class="cls-27" d="M104.37,100.58c.09.54.17,1.08.26,1.63-9.41-2.93-16.31-8.32-18.12-18.64l14,4.06c-1.26.41-2.67.58-3.27,2.05C97.41,94.76,103.74,95.8,104.37,100.58Z"/><path class="cls-28" d="M104.37,100.58C102,98.4,99.51,96.27,97.15,94c-1.5-1.42-2.56-3,.1-4.36q5.11,5.32,10.25,10.64C106.62,102,105.42,100.63,104.37,100.58Z"/><path class="cls-29" d="M71.08,131a16.56,16.56,0,0,1-2.15-2.57c-1-1.89-3.09-4.22-1.11-6s3.06,1.92,5.06,2C75.12,127.37,74.71,129.6,71.08,131Z"/></g></g></g></svg>