<svg xmlns="http://www.w3.org/2000/svg" viewBox="0 0 1366 768"><defs><style>.cls-1{fill:#a62833;}.cls-2{fill:#132616;}.cls-3{fill:#42854c;}.cls-4{fill:#51b868;}.cls-5{fill:#267331;}.cls-6{fill:#5e9767;}.cls-7{fill:#7baa81;}.cls-8{fill:#5a9562;}.cls-9{fill:#152818;}.cls-10{fill:#357d3f;}.cls-11{fill:#44874e;}.cls-12{fill:#377e41;}.cls-13{fill:#6bc27f;}.cls-14{fill:#59040b;}.cls-15{fill:#69c17d;}.cls-16{fill:#78a87f;}.cls-17{fill:#49040c;}.cls-18{fill:#4ab563;}.cls-19{fill:#48b461;}.cls-20{fill:#57ba6e;}.cls-21{fill:#2eaa4b;}.cls-22{fill:#74a57b;}.cls-23{fill:#40844a;}.cls-24{fill:#6ba073;}.cls-25{fill:#3e8248;}.cls-26{fill:#c6cbc7;}.cls-27{fill:#dee1de;}.cls-28{fill:#c2c7c2;}.cls-29{fill:#56925e;}.cls-30{fill:#3a8044;}.cls-31{fill:#cdd1ce;}.cls-32{fill:#bfc4c0;}.cls-33{fill:#65161c;}.cls-34{fill:#63131a;}.cls-35{fill:#600e15;}.cls-36{fill:#4d8c56;}.cls-37{fill:#c5737a;}.cls-38{fill:#cb8289;}.cls-39{fill:#53b96a;}.cls-40{fill:#bdc2be;}.cls-41{fill:#518f5a;}.cls-42{fill:#c9cdc9;}.cls-43{fill:#cd878d;}.cls-44{fill:#54905c;}.cls-45{fill:#619969;}.cls-46{fill:#589360;}.cls-47{fill:#7cc98e;}.cls-48{fill:#5c9665;}.cls-49{fill:#287433;}.cls-50{fill:#3baf56;}.cls-51{fill:#3eb058;}.cls-52{fill:#2aa847;}.cls-53{fill:#7ac88c;}.cls-54{fill:#7eca8f;}.cls-55{fill:#73c686;}.cls-56{fill:#2a7635;}.cls-57{fill:#98d5a1;}.cls-58{fill:#90d29a;}.cls-59{fill:#93d39d;}.cls-60{fill:#2d7737;}.cls-61{fill:#75c788;}.cls-62{fill:#71c584;}.cls-63{fill:#7fcb8b;}.cls-64{fill:#63bf71;}.cls-65{fill:#96d4a0;}.cls-66{fill:#78c88a;}.cls-67{fill:#66c074;}.cls-68{fill:#317a3b;}.cls-69{fill:#44b25d;}.cls-70{fill:#2f4032;}.cls-71{fill:#a92e39;}.cls-72{fill:#aa333d;}.cls-73{fill:#28a745;}.cls-74{fill:#aa313b;}.cls-75{fill:#bbf2c3;}.cls-76{fill:#b44a54;}.cls-77{fill:#b9555e;}.cls-78{fill:#b2444e;}.cls-79{fill:#ad3943;}.cls-80{fill:#39ae54;}.cls-81{fill:#33ab4e;}.cls-82{fill:#8cd096;}.cls-83{fill:#478850;}.cls-84{fill:#986368;}.cls-85{fill:#8b4f54;}.cls-86{fill:#894d52;}.cls-87{fill:#90575c;}.cls-88{fill:#9f6d71;}.cls-89{fill:#91595e;}.cls-90{fill:#8c5257;}.cls-91{fill:#a97c80;}.cls-92{fill:#9a666a;}.cls-93{fill:#ae8487;}.cls-94{fill:#874a4f;}.cls-95{fill:#b48e91;}.cls-96{fill:#b1898c;}.cls-97{fill:#1a2d1d;}.cls-98{fill:#498952;}.cls-99{fill:#cff6d4;}.cls-100{fill:#c36f76;}.cls-101{fill:#344437;}.cls-102{fill:#def2e1;}.cls-103{fill:#9ed7a7;}.cls-104{fill:#e5e7e5;}.cls-105{fill:#cbcfcc;}.cls-106{fill:#182a1b;}.cls-107{fill:#a1d9aa;}.cls-108{fill:#af3e47;}.cls-109{fill:#bc5e66;}</style></defs><g id="LANDING"><path class="cls-1" d="M547.45,871.08c-35.36.37-67.16-28.5-67.13-68.36,0-36.49,29.12-68.38,69.87-67.71,37,.61,67.08,31.3,66.81,68.86C616.73,841,586,872.17,547.45,871.08Z"/></g><g id="SPACE"><path class="cls-2" d="M646.11,767.44a5.86,5.86,0,0,1,1.26,0l.91-.27c1.27-.35,2.54-.64,3.79-1.06.37-.12,2-.8,2.13-.85,1-.51,2.06-1.08,3-1.68.33-.2,2.06-1.34,2-1.24a32.11,32.11,0,0,0,2.49-2.31c.76-.77,1.5-1.57,2.19-2.41.06-.14,1.08-1.56,1.21-1.77,3.16-4.9,3.58-6,5.09-11.54.67-2.43,1.18-4.89,1.61-7.37.07-.37.09-.48.11-.48,0-.18,0-.46.07-.9.11-1.26.23-2.52.31-3.79a120.12,120.12,0,0,0-.08-15.76,125.36,125.36,0,0,0-2.38-14.85c-2.26-11.23-4.84-22.63-4.78-34.14-4.23-16.26-7.89-32.66-11.33-49.12a1193.4,1193.4,0,0,1-19-119.08c-2.46-23.34-4.81-46.71-5.39-70.11-.56-22.73-1.56-45.47-.66-68.28.87-22.28,1.78-44.54,3.17-66.79.8-12.73,2.16-25.4,3.59-38,1.76-15.63,4-31.23,6.4-46.8,4.8-30.49,10.53-60.77,17.9-90.75,1.23-5,3.09-10,2.78-15.28-1.53-4.91-6.66-2.48-10-4.64,4-1.84,8.23.15,11.41-2.54a12.34,12.34,0,0,0,2.9-9.13c-1.07-4.34-4.24-3.52-7.25-2.92-9.78,1.93-16.45-1.47-20.7-10.61-4.73-10.16,1.81-20.72,13-21.1,6.57-.22,12.21,1.54,16.33,7,1.94,2.58,4.18,3.31,6.6.5a19.49,19.49,0,0,0,2.54-6c2.22-7,8.68-29.16,11.73-36.19C696.71-.36,710.83-10.44,708-14c-.48-.6-2.84-1.77-7.56-4.1l-2.35-1.14H501.76c-3.26,2-6.48,2.71-9.78,0-.47-.39.2.12-.44,0q-252.09,0-504.21,0c-7.53,0-6.59-1-6.59,6.78q0,138.8,0,277.6c.24,2.93,2.48,2.93,4.46,2.77,2.66-.21,5.33-.55,8-.91,6-.8,12.47-1.8,18,.18,6.63,2.38,13.11,2.25,19.77,2.39a11.51,11.51,0,0,1,6.26,1.46c6.6,4.17,14.83,5.09,20.86,10.58,1.94,1.75,5,2.09,7.69,2,7.59-.28,13.93,2.7,20.09,6.81,6.33,4.22,13.3,7.13,21.08,7.4,3.27.11,5.56,1.7,7.81,4,5,5,10.41,9.66,18,10,4.34.18,8,2,11.82,3.85,7,3.32,13.45,7.61,20.53,10.57,5.6,2.34,11.2,4.63,16.16,8.07,8.41,5.83,18,9,27.52,12,11.17,3.47,18.27,13.52,15.83,23.43a29.85,29.85,0,0,0,0,8.23c1.77,4.27-.38,7.83-3,10.47-3.74,3.75-7.88,7.19-13.15,9-10.31,3.55-19,10.65-29.67,13.53-1.71.47-3,2.14-4.63,3-10.07,5.27-19,12.67-30,16.3a27.57,27.57,0,0,0-9,4.44c-2.23,1.82-3.6,3.83-.16,5.85,3.63,1,7.34.57,11,.57q194.66,0,389.3,0a66.54,66.54,0,0,1,7.06.13c1.24.12,2.91,0,2.7,2.12-2.75,2.43-6.18,2.13-9.52,2.13H336.43q-110.42,0-220.83,0c-2.5,0-5.14-.55-7.46.62-7.82,3.94-16.39,5.67-24.62,8.36-3.29,1.07-6.69,2.82-10.24,2.33-10.27-1.41-18.93,3.94-28,6.92s-17.92,6.47-26.84,9.83c-3.39,1.28-6.85,3.15-10.53,3.21-6.89.11-13.15,2.4-19.43,4.72-2.58.95-5.91,0-7.66,3.07a20.1,20.1,0,0,0-.12,3q0,138.27,0,276.55c0,1.48-.38,3,.49,4.43h659.9A17.25,17.25,0,0,1,646.11,767.44Z"/><path class="cls-3" d="M1105.47,747.68l-.08,0C1104.94,747.51,1105.37,747.36,1105.47,747.68Z"/><path class="cls-4" d="M937.63,763.71c-2.63-9.47-6.59-18.56-8.22-28.33a6,6,0,0,0-1-1.1,20.36,20.36,0,0,0-4.19-1.64c-9.34-2.59-15.84-9-21.51-16.33-7.87-10.08-13-21.63-17.05-33.71A95.22,95.22,0,0,1,880,658.7c-1-9.19-1-18.51,3-27.16,2.89-6.24,6.52-11.89,14.82-11.27a4.7,4.7,0,0,0,3.26-1.15l.5-.65q-2.18-10.59-4.34-21.18c-9-1.9-15.59-7-20.25-14.94a56.15,56.15,0,0,1-5.57-14.43c-2.76-10.35-4.77-20.93-.67-31.33,2.29-5.82,5.83-11.05,13.42-10.7a4,4,0,0,0,3.14-1.33c-.1-2.85,0-5.71-.34-8.52-2.77-22.94-3.89-46-5.11-69-2-2.84-5.13-2.11-7.88-2.12-25.35-.09-50.71,0-76.06-.05-9.74,0-19.48.09-29.22-.06-2.65,0-5.55.18-7.77-2.57,2.8-1.48,5.36-1.09,7.82-1.1,34.76,0,69.52,0,104.28-.07,2.89,0,6.18.87,8.29-2.26-.36-28.86-.89-57.72.08-86.58a1.8,1.8,0,0,0-.34-2.66c-2.93-4.36-2.32-8.93-.6-13.44.71-1.88,1.63-3.63,1.67-5.72.17-9.21,1.24-18.38,1.74-27.56A1088.45,1088.45,0,0,1,896.1,192.64c1.69-10.72,3.73-21.39,5.61-32.08a2.79,2.79,0,0,0-1.42-.83,8.07,8.07,0,0,0-3.45.57c-9.3,2.48-14.86.43-20.1-7.66-3.52-5.43-4.9-11.64-6.17-17.87-1.88-9.3-.66-18.7-1-28,.16-3.6-.19-6.85-4.8-7.37-4.09-.46-6.25,1.32-7.54,6.18-.68,2.58-1.12,5.26-2.66,7.55a8,8,0,0,0-.49,1.73c-1.42,4.5-3.26,8.82-6.48,12.35-3.58,3.93-9.94,3.93-12.08-.33-2.79-5.54-4.9-11.47-4-17.89,1.25-8.36.16-9.78-8.42-9.81-21.51,0-43,.22-64.53-.13-8.61-.14-16.52.12-21.26,8.77a1.27,1.27,0,0,1-.36.35c-4.36,3.9-7.67,3.08-9.91-2.29-.81-1.94-.72-4.28-2.93-5.64-5.3-3.24-16.26-.7-19.41,4.66a457.89,457.89,0,0,0-13,53.77c-6.11,34.63-12.4,69.24-15.89,104.32-2.29,23-4.86,46.1-5.19,69.11-.59,40.72-2.44,81.53,2.31,122.24,2.63,22.6,3.14,45.43,6.22,68,2.85,20.93,6.32,41.76,9.94,62.55,3.68,21.13,9,41.94,14,62.81,4.78,19.91,10.66,39.49,16.87,59q3.42,10.75,7,21.46a168.57,168.57,0,0,0,10.36,18.93,40.86,40.86,0,0,0,8.85,9.9c.88.5,1.76,1,2.66,1.45.39.19,3.16,1.47,3,1.45a75,75,0,0,0,8,2.63c10.28,2.79,19.91,3.71,30.33,4.5a9.88,9.88,0,0,0,0-3.12c-.13-1.87-1.13-4.28,2.18-4.36,2.47-.06,5.24-.43,5.54,3.27a7.22,7.22,0,0,0,2.26,4.75c3.85.2,7.68.49,11.49,1h1.81c1.57-1.8.33-3.46-.29-5.14s-1.62-3.44-1.24-5.81c3.66,3.17,2.71,8.48,6.57,10.95h19.17c1-2.07-.57-3.41-1.46-4.94A36.46,36.46,0,0,1,832.08,753c-.18-.82-.21-1.75.67-2.17s1.53.38,2,1c2.11,2.44,3,5.5,4.23,8.4,1.15,2.7.16,6.12,2.8,8.3h43.38c2.25-3,1-7.12,3.35-10.06.91-1.32,1.74-2.7,2.64-4.12,1,1,.44,2.58,1.41,3.51,4.53,3.64,8.31,8.25,13.79,10.67h32.28C938.8,766.83,938.08,765.32,937.63,763.71Z"/><path class="cls-5" d="M1389.66,102.23v300.4a14.28,14.28,0,0,1-4.76,3.61,90.4,90.4,0,0,1-35.69,7.52c-13.6,0-27.21.09-40.81,0-12.29-.1-23.68-2.78-34.31-9.68q-19-12.31-38.63-23.65a54.3,54.3,0,0,1-17.88-16.62c-6.74-9.81-13.84-19.38-20.77-29.06-6.31-8.82-9.16-19-11.41-29.32-4.94-22.65-8.31-45.49-7.66-68.77.17-6.37,1.41-12.66,1.11-19.06-.09-1.86.38-3.71,2.32-4.68,2.75,1.14,1.32,3.27,1.14,5,3.2-31.37,16.58-58.35,35.84-82.83,2.67-3.39,5.41-6.42,10.09-6.71,1.5-.1,2.62-.75,2.53-2.49-.33-6.27,4.45-9.49,8.22-13.09,2.69-2.57,5.35-5,7-8.42,1.64-3.68,4.81-4.29,8.35-4.31,12.26-.07,24.51,0,36.77,0q45.06,0,90.14,0C1384.17,100.1,1387.35,99.53,1389.66,102.23Z"/><path class="cls-5" d="M1226.22,768.54H1125.33a4,4,0,0,1-1.43-2.56c-.93-11.1.5-21.63,7-31.11,2-2.94,1.9-6.84,4.33-9.77,1.52-1.83,2.74-2.79,5-1.86,4.1,1.68,7.14-.15,9.63-3.17,1.32-1.59,2.6-3.54,4.72-3.4,5.12.35,9.9-1.19,14.82-2a7.08,7.08,0,0,1,4.46.47c8.27,4.32,17,8,24.2,14.05,1.55,1.3,3.16,2.52,5.38,2.28,6.9,5.46,10.9,13.25,16,20.13a56.24,56.24,0,0,1,5.92,11C1226.19,764.36,1228.06,766.27,1226.22,768.54Z"/><path class="cls-5" d="M1124.78,767.53l100.88.86a4.06,4.06,0,0,1,1.41,2.58c.83,11.11-.69,21.63-7.22,31-2,2.92-2,6.82-4.42,9.73-1.54,1.82-2.77,2.77-5,1.82-4.09-1.72-7.14.09-9.66,3.08-1.33,1.58-2.62,3.52-4.75,3.36-5.11-.39-9.91,1.11-14.83,1.88a7.06,7.06,0,0,1-4.45-.51c-8.24-4.4-16.89-8.1-24.09-14.26-1.53-1.31-3.13-2.55-5.36-2.32-6.85-5.53-10.78-13.35-15.86-20.27a57.4,57.4,0,0,1-5.83-11C1124.77,771.71,1122.91,769.78,1124.78,767.53Z"/><path class="cls-6" d="M1181.75,213c-1.76,13.47-2.77,27-1.8,40.57a410.43,410.43,0,0,0,7.74,53.14c3.44,16.7,12.73,30,22.6,43.23a78.71,78.71,0,0,1,4.66,6.56c7.11,11.82,17.17,20.17,29.25,26.74,11.78,6.4,23.15,13.62,34.38,21,8.58,5.61,18.07,7,27.83,7.26,18.63.49,37.27.8,55.88-.74,8-.66,15.16-4.14,22.58-6.76,1.58-.56,3-1.49,4.79-1.36v10.08c-11,2.4-21.76,5.34-33,6.57-18.58,2-37.12,2.36-55.67,0-4.32-.55-8.61-1.3-12.92-1.94-9.69-1.45-17.28-7-24.83-12.64l-31.39-23.51c-6-4.52-12.09-9-18-13.63a16.29,16.29,0,0,1-4.14-4.31c-8.2-14-17.32-27.49-23.94-42.4-6-13.52-8.49-27.81-9.94-42.36-1-10.15-2.25-20.29-2.72-30.47-.32-6.82.37-13.71.93-20.54,1.07-13,2.36-26,3.6-38.95.18-1.93-.86-3.18-2.11-4.33-2.34-2.15-2-4.4.44-5.81,3.76-2.17,4.67-6,6.17-9.43,3.21-7.38,6.16-14.86,10.05-21.92,1-1.83,2.06-3.46-1.05-4.69-2.43-1-5.61-2.89-4.73-5.67,1.06-3.37,4.92-4.78,8.16-6,1.56-.59,2.34.85,2.22,2.46-.12,1.45-1.15,2.85-.3,4.47,2.86-.74,2.77-3.64,4-5.44,4.69-6.75,9-13.72,14.15-20.18,1.64-2.07,4.69-4.22.8-7.19-.62-.47-.25-2.24-.34-3.41,3-3.63,6.86-1.91,10.47-1.8,2.84.15,5.68.34,8.26,1.74,2.18,2.64-.12,4.32-1.45,6.06-4.39,5.75-9.63,10.72-14.74,15.81-1.91,1.9-3.79,3.79-4,6.73-.1,1.17-.56,2.54-1.72,2.92-4.35,1.4-5.21,5.38-6.73,8.83-5.5,12.42-10.76,24.94-16.23,37.37-2.52,5.73-4.47,11.56-4.57,17.88-1.58,4.55-.57,9.34-1.38,14A3.08,3.08,0,0,1,1181.75,213Z"/><path class="cls-5" d="M1389.66,62.92V95.17c-1.7,2-4.05,2.14-6.43,2.14q-66.95.09-133.88,0c-1.83,0-3.72.11-5.37-1-2.46-4.08-2-5.3,2.66-7.57,2.15,3.28,5.31,3.67,8.93,3.44,4-.26,8-.09,12.31,0-1.73-3.38-5.25-6.6-1-10.37,2.5,2.1,5,4.28,8.19,1,7-3.7,14.4-6.2,21-10.9,7-5,15.65-6.66,24.47-5.18,1.67.28,3.18.87,4.68-.55,7.58-7.19,17.43-8.27,27-9.19a90.69,90.69,0,0,1,32.87,3A8.08,8.08,0,0,1,1389.66,62.92Z"/><path class="cls-2" d="M1267.54,82.06c-2.15,4.3-.77,7.26,3.51,9,.9.37,2.19.29,2.12,1.6s-1.28,1.38-2.27,1.39c-8.46,0-16.92,0-25.89,0l2.46-4.77c-.28-2.45,1.31-4,2.62-5.76,7.85-10.52,19-16.23,30.59-21.45,10.73-4.83,21.72-9,32.55-13.61,5.55-2.35,11.57-2.38,17.35-2.58,17.83-.6,35.57.49,53,4.71,2.38.57,4.49,1.31,6.07,3.21v9.08c-14.71-3.49-29.58-6.07-44.6-2.86-7,1.48-14.72,2-19.5,8.84-1.13,1.61-3,3.17-4.72.26-1-1.59-2.65-1.25-4.11-1.14a63.94,63.94,0,0,0-18.87,4.52c-.31.13-.77.23-.87.47-3.4,7.83-13.21,5-17.9,10.73-1.16,1.42-3,1.13-4.71.53C1271.83,84.36,1269.67,83.27,1267.54,82.06Z"/><path class="cls-6" d="M1389.66,53.84a238,238,0,0,0-46.36-5.93c-14.56-.32-28.76.63-42,7.7a144.45,144.45,0,0,1-19,8.06C1268.09,68.79,1257,78,1247.47,89.32c-2,1.45-4.45,2.59-4,5.74-4.17,3.15-11.94,3.17-16.19,0,7.88-3.8,13-10.91,19.66-16.24C1267.76,62,1290.48,49,1316.73,42.56c1-.24,2.58-.42,2.76-1,2.14-6.61,6.72-3.12,10.75-3,8.53.29,17.08.78,25.6.91,11.5.17,22.58,2.67,33.82,4.26Z"/><path class="cls-7" d="M1227.25,95.11l16.19,0,142.7,0c1.17,0,2.35.1,3.52.15v7.06c-45.51,0-91,.1-136.54-.28-4.14,0-4.63,3.84-7.71,4.16-3.66-1.16-7.63-1.38-10.88-3.72-2.88-.38-5.93.34-8.62-1.32-2.35-1.66-2.65-3.54-.61-5.67Z"/><path class="cls-6" d="M1082.27,768.54h31c-2.12-8.73-5.39-17-9.25-26.18-1,3,1.29,4.35.5,6.41a11.5,11.5,0,0,1-4.29-4.5,2.1,2.1,0,0,0-1.15-2c-5.16-3.17-19,1-20.06,6.83-1.18,6.45-2.16,13.47,2.79,19.26Z"/><path class="cls-6" d="M1109.25,757.79l-31.28-.44c.14,0,1.22,4.79,1.35,5.25.45,1.57.94,3.13,1.42,4.69a1.36,1.36,0,0,0,1,1.05,5.43,5.43,0,0,1,2.48,1.79c.68.88,1,2,1.57,2.9,1.19,1.78,2.35,3.57,3.37,5.46.89,1.65,1.28,3.64,2.89,4.78a9.24,9.24,0,0,0,2.38,1.11c3.29,1.09,6.75.39,10-.76,2.53-.92,5.39-2.34,6.86-4.72a4.53,4.53,0,0,0,.65-1.59C1113.24,770.8,1114.34,763.7,1109.25,757.79Z"/><path class="cls-8" d="M1228.49,772a16.57,16.57,0,0,0,.16-2.22c0-3.95-2.19-7.38-3.85-10.82q-2-4.14-4.34-8.1a101.15,101.15,0,0,0-10.36-14.56A98.94,98.94,0,0,0,1182,713.85q-2.77-1.5-5.63-2.85c-5.49-2.58-11.27-5.8-17.64-4.58-15.52,3-25.11,10.3-33.94,23.24a4.92,4.92,0,0,1-3.48,2.49c-2,.28-2.59,1.71-1.35,3.07,2.33,2.59,1.66,5.13.91,7.95s-2.61,6-2,8.5a125.68,125.68,0,0,1,2.42,16.88c.68,0,1.34,0,2,0,1.44-2.88.13-5.55.43-8.59.94-12.8,3.32-23.61,10.94-34.26,3.88-5.41,8.14-9.4,15-10.62a27.61,27.61,0,0,0,5.67-2.12c1.38-.59,2.78-1.4,4.36-1,10,2.3,19.64,4.64,28.57,10,5.1,3,9.29,7.36,14.64,10.07a168.92,168.92,0,0,1,11.45,15.45c6.72,10.59,13.27,20.31,12.66,33.12C1227.17,777.69,1228.1,774.87,1228.49,772Z"/><path class="cls-9" d="M1122.41,759.5c-.29-17.24,6.14-31.58,18.65-43.32a7.71,7.71,0,0,1,5-2c1.17-.08,2.59.19,3.47-.38,11.34-7.36,21.34,0,31.4,3.25a46.34,46.34,0,0,1,22,15.39c-.64,2.31-1.77,1.34-2.88.42-7.77-6.38-16.67-10.89-25.52-15.51a7.33,7.33,0,0,0-5.26-1c-4.74,1.16-9.23,3.29-14.43,2-3.48-.85-2.82,3.49-4.78,4.9-1.11.8-1,3.46-3.36,1.45a1.13,1.13,0,0,0-1.73.39c-1.21,4.28-3.07,1.13-4.63.42-1-.45-1.44-2-2.93-1.41,1.55,3.68-4.88,4.56-2.94,8.44.71,1.44,1.83,3.37-1.39,3.26-2-.06-1.77,1.74-2.35,2.79a45,45,0,0,0-5.46,27c.1,1,0,2,0,3h-1C1123.08,765.66,1123,762.53,1122.41,759.5Z"/><path class="cls-9" d="M1098.65,740.84a101.16,101.16,0,0,1-14.63-6.5c-5-2.53-6.93-1.42-7.13,4.33-.22,6.51.18,13.05,0,19.57a21.47,21.47,0,0,0,.4,4.86,8.14,8.14,0,0,0,1.78,4,3.54,3.54,0,0,0,2.31,1.11c.62,0,.47-.4.37-1s-.27-1-.37-1.49c-.17-.91-.35-1.81-.52-2.73a53.83,53.83,0,0,1-.77-5.35c-.42-4.75-2.21-10.48,5.75-11,.52,0,1-.86,1.45-1.33,4.16-4.11,7.31-4.37,12.84-1.08C1103.74,741.38,1099.45,741.1,1098.65,740.84Z"/><path class="cls-10" d="M885.21,768.54c-.79-4-.93-7.83,1.92-11.18,2.07-2.17,4.17-2.13,6.28-.06,5.46,2.44,9.34,6.71,13,11.24Z"/><path class="cls-11" d="M837.79,768.54c-4.33-4.87-7.29-10.4-7.86-17-.12-1.45-.38-3.26,1.38-4s3.31.4,4.3,1.8c4.06,5.73,6.88,11.89,6.22,19.16Z"/><path class="cls-12" d="M789,766.91l5.35.41q3.56.1,7.11.3c-.31-1.76-1.67-3.26-1.31-5.28.62-3.47-1.46-4.69-4.63-4.78-8.9-.26-8.9-.29-6.71,8.58C788.83,766.4,788.89,766.65,789,766.91Z"/><path class="cls-11" d="M813.58,768.54c-1.21-3.24-3.54-6-3.9-9.61-.17-1.71-1.25-4.09.8-5s2.94,1.43,4,2.88c2.56,3.5,3.15,7.66,4.13,11.69Z"/><path class="cls-5" d="M1122.41,759.5a24.05,24.05,0,0,1,1.91,9h-1C1123.24,765.51,1121.81,762.6,1122.41,759.5Z"/><path class="cls-6" d="M132.48,52.73C148.84,38.43,168,31,189.59,29.65c4.17-.26,8.38,0,12.57.07,17.68,3.37,24.78,17.48,31.78,31.55,1.48,3-.2,6.28-1.06,9.19-.8,2.71-3.92,2.86-6.19.81-4.79-4.36-8-4.56-13.11-.83a45.72,45.72,0,0,0-3.81,3.28c-2.16,2-3.08,3.78-.33,6.19s2.24,5-.19,7.44a22.58,22.58,0,0,1-5.57,4.29c-3.19,1.64-6.22,3.15-5.88,7.73.16,2.26-2.23,3.12-4.19,3.77-1.69.56-2.75,1.57-1.81,3.36.85,1.6,2.43,1,3.57.45,2.71-1.38,4.78-3.68,7.26-5.41,5.68-4,8.25-3.73,13.19,1.34-1.17-1.55-3.34-2.81-1.45-4.84,1.36-1.47,3.22-.9,4.6.17,4.91,3.79,11,4.9,16.48,7.38,2.77,1.25,4,3.24,5.13,5.78a100.64,100.64,0,0,1,4.89,13.06,3.25,3.25,0,0,1,.21.87c.69,1.55,1.62,3.3-.45,4.37-1.87,1-3.15-.54-4.26-1.79a31.53,31.53,0,0,1-3.55-5.48c-3.39-5.85-7-7.51-13.42-5.37-5.08,1.69-9.2,1-12.79-2.93-.56-.61-1.1-1.48-2-1.5-6.43-.12-13.67-.13-18.12,4.23-4.65,4.55-9.19,10.22-9.74,17.64a16.92,16.92,0,0,0,4.87,13.26c2.34,2.47,5.7,3.12,9.32,1.78,7.27-2.71,14,.5,16.34,7.78a20.89,20.89,0,0,0,2.81,5.82,11.72,11.72,0,0,1,2.28,9.06c-1.13,6.11.17,12,1.19,17.94,1,5.55,1.29,5.67,6.86,5.06,4.65-.5,6.79,1.59,4.68,5.25-5.66,9.81-12,19.33-23.85,22.46-6.82,1.81-14,1-21,.47-41.57-3.18-78.51-37.81-85.48-80.09a96.74,96.74,0,0,1,2-41.87c2.74.09,2.42,2.36,2.65,4a74.23,74.23,0,0,1,.23,8,16.78,16.78,0,0,0,2.9,9.9,19.79,19.79,0,0,1,4,9.15c.35,3.14,2.6,5.07,4.51,7.06,2.27,2.37,3,5,2,7.82-2.44,6.83-.06,12.7,3.78,17.91,5.15,7,9.39,14.26,11.9,22.57a36.09,36.09,0,0,0,10.79,16.51c-.13-6.78,1.2-13.67,6.43-19.36,3.7-4.05,4.35-9.27,5.4-14.31a2.9,2.9,0,0,0-1.77-2.87c-10.7-5.12-16.08-15.89-24.77-23.13-2.94-2.45-6.16-4.25-10-4.3-4.6,0-6.73-3.21-7.86-6.59-1.59-4.76-2.77-9.48-6-13.61-2.46-3.16-.12-11.61,3.27-13.69s5.62.3,7.77,2.14c5-7.31,9.22-15.41,19.86-16.1-.92-1.62-2.55-3.24-1.26-5.27,1.17-1.83,3.13-1.62,5-1.57,1.65,0,3.92,1.33,4.12-1.89.17-2.85-3-7.91-5.1-8-1.08,0-1.37.84-1.84,1.48-1.86,2.55-4,5.25-7.38,3-3.12-2.09-3.41-5.76-2.44-9.13,1.73-6,11.7-9.15,16.62-5.39.9.69,1.58,2,2.95,1a2.63,2.63,0,0,0,.81-3.17c-.45-1.6-1.3-2.78-3.14-2.65-1.54.1-2.81,1.09-4.27,1.45-3.65.91-6.71-.47-9.1-3S130.84,54.79,132.48,52.73Z"/><path class="cls-13" d="M-18.65,430.22l.06-36.62c3.67-3.64,8.44-2.56,12.45-1.87,8.89,1.52,17.39-.18,26-1.53a282.4,282.4,0,0,1,41.55-3.73c5.11-.05,10-2.12,14.95-1.82,10.29.62,20.4-2,30.61-1.21,11,.9,21.18-3.21,31.8-4.52a68.65,68.65,0,0,1,14-.75,33.63,33.63,0,0,0,11.52-.65c5.5-1.46,11-3.21,16.72-3.55,1.5-.09,3.38-.3,4.47-2.32-5.38-4.32-11.38-6.15-18.19-4.89-8.38,1.56-16.42.73-24-3.23a15.79,15.79,0,0,0-12.66-1.17,19,19,0,0,1-15.56-1.68,24.34,24.34,0,0,0-16.51-2.62c-9,1.55-18.17,3.12-27.48,1.35-3.88-.74-7.34-2.4-11-3.62-3.94-1.33-7.81-1.84-11.86-.63a26.92,26.92,0,0,1-16.37-.4c-9.2-3-18.44-3-27.85-1-5.62,1.19-11.39.52-17.1.43a6.71,6.71,0,0,1-5.54-3l0-38.5c1.93-1.92,4.3-1.81,6.6-1.13,5.54,1.65,11.44.85,16.9,2.4,10.68,3,21.6-.33,32.37,1.76,7.42,1.44,14.86,2.69,21.91,5.33,3.51,1.31,7.08,2.8,10.64,2.64,12.47-.59,24.17,3.32,36.22,5.16,14.73,2.24,28.92,5.61,42.32,12.14,2.52,1.23,5.18,1.1,7.89.59,6.81-1.28,12.61.49,18.41,4.55,8.44,5.9,18.44,7.76,28.64,8A47.76,47.76,0,0,1,220,357.72c6.51,2.59,7.36,4.25,6.61,11.56l-.33,8.93c-.56,2.77-2.73,3.48-5.07,4.2-16.15,4.95-32.27,10-48.54,14.57-3.52,1-6.61,3.19-9.94,4.74-9.57,4.48-20.11,3.3-30,5.86-1.45.38-3.07.32-4.38,1.05-9.11,5-19.28,6.56-29.17,9.05-2.81.71-5.61,1.27-8.44.57-7.43-1.85-14.22,0-20.9,3.18-7,3.35-14.14,6-22.24,4.74-3.32-.53-6.55,1.49-9.89,1.5-15.42,0-30.58,2.54-45.79,4.68C-11.69,432.85-15.47,432.63-18.65,430.22Z"/><path class="cls-3" d="M211.26,319l10,.06c8.8,3,15.26,9.56,22.43,15,10,7.54,20.81,11.69,33.52,11.24,8.18-.29,16.42-.69,24.6.42a13.9,13.9,0,0,1,5.28,1.48l111,.08c2,0,4,.07,6.05.11a3.64,3.64,0,0,1,.9,1.19,4.2,4.2,0,0,1,.12,1.58,8.27,8.27,0,0,1,.35-1.47,5.42,5.42,0,0,1,.67-1.34l3.22.16c2.54,1.72,1,4.37,1.49,6.47,0-.07.07-.28.07-.34-.25-2.23-.31-4.36,1.13-6.22l3.24,0c1.55,1.95,1.34,4.22,1.17,6.42,0-.07,0,.22,0,.22a1,1,0,0,0,0-.18c.59-2.16-.85-4.53.81-6.49l3.93,0c1.71,1.89.3,4.31,1,6.26,0-.1-.07-.38-.1-.46,0-2-.43-4,1.08-5.69h3.21c.88,1.23,1.77,1.33,2.67,0h3.3c.64.75,1.25.7,1.84-.06l9.42.11c2.67,2.6,1.78,6,1.8,9.06.11,14,.77,14.51,14.8,14.79,4.88.1,9.67.38,14.37-1.16a13.07,13.07,0,0,0,5.58-1.84,18.28,18.28,0,0,0,3.34-1.36,40.73,40.73,0,0,0,7.44-4.8c1.55-1.27,3.22-2.37,5.4-1.45,6.66,3.22,13,7,18.2,12.29,3.08,3.12,2.35,5.73-1.87,7.12-27,3.69-54.22,3.56-81.4,3.55q-101.6-.06-203.2-.05c-3.29,0-6.77.74-9.79-1.39-1.89-1.72-1.34-4-1.39-6.15-.24-9.39.42-18.79-.39-28.18l5.11-1.19c1.71-3-1.35-3.48-2.64-4.34-7.17-4.81-13.66-10.55-20.83-15.35-1.93-1.3-3.49-3.05-5.52-4.24C211.47,322,210.42,320.74,211.26,319Z"/><path class="cls-14" d="M-18.65,430.22C-3.21,430,11.94,427,27.23,425.6c6.9-.62,14-1.66,20.88-1.34,7.93.35,14.83-1.76,21.71-5.12s13.78-5.4,21.39-2.73a5.23,5.23,0,0,0,3.44.26c9.24-4,19.78-3,28.83-8.36,6.44-3.84,14.35-4.24,22-4.53,8.37-.32,15.95-3.33,23.16-7.35,4.3-2.41,9.11-3.42,13.73-4.77,9.61-2.82,19.7-4,28.64-9.08,4.69-2.65,10.85-.51,15.27-4.37,1.53,4.48-.31,9.9-4.57,13.12-4.77,3.59-9.31,7.41-15.43,8.91-6.87,1.69-11.77,7.47-18.65,9.52-10.64,3.17-19.45,9.95-28.68,15.76-5.88,3.71-12.51,5.42-18.62,8.43-2.49,1.22-5.4,1.91-6.68,4.81-1.94,3-5.05,2.26-7.8,2.27-20.33.11-40.67,0-61,.09-2.26,0-4.68-.59-6.77,1,.22,1.81,1.66,1.47,2.68,1.57,2.34.21,4.7.1,7.06.1q234.72,0,469.45.07c3.69,0,7.83-1.38,10.95,2-2,1.84-4.49,1-6.75,1q-211.3.06-422.59-.1c-6.47,0-11.9,2.11-17.68,4.16C90.53,454.8,80,459.41,68.4,459a19.11,19.11,0,0,0-10,2.58c-5.87,3.13-13,3.12-18.79,6.64-6,3.64-12.89,4.3-19.18,7-4.77,2-10,4.81-15.76,4-4.41-.6-8.14,1.81-12,3.19a28.37,28.37,0,0,1-11.29,1.82Q-18.62,457.25-18.65,430.22Z"/><path class="cls-14" d="M226.57,369.28c.59-5-1.93-7.54-6.43-9.33-8.44-3.36-17.33-3.48-26.12-4.63-7.93-1-15.73-3.14-22.14-8.48a15.81,15.81,0,0,0-14.15-3.33A19.33,19.33,0,0,1,145,342c-10.51-4.86-21.12-9.54-33.06-9.65a21.13,21.13,0,0,1-6.42-1.2c-13-4.35-26.63-4.79-40.13-5.89-5.72-.46-10.6-3.68-16.13-5.06-7.56-1.89-15.34-1.44-22.77-3.61-3.32-1-6.51,1.64-9.88,1.2-9.45-1.26-18.89-2.57-28.31-4-2.3-.37-4.53-1.2-6.92-1.05q0-23.1,0-46.19c8.63-1.22,17.43-3.4,26-1.72,9.33,1.84,18.52,3.28,28,2.87,2.28-.1,3.22,2.17,5,3.05,6,2.91,13.05,3.5,17.94,9,1.77,2,5.19,2.2,8.12,2,7.59-.48,14,2.48,20,6.75,6.22,4.38,13.1,7.32,20.89,7.33a9.37,9.37,0,0,1,7.62,3.19c5.72,6.7,12.33,11.44,21.76,11.2,2.32-.06,4.82,1.39,7,2.55,10.16,5.35,20.16,11,30.8,15.4A29,29,0,0,1,179.8,331c9.43,6.48,20.07,10.1,30.83,13.69C220.4,347.92,231,358.7,226.57,369.28Z"/><path class="cls-3" d="M184.9,223.35a54.33,54.33,0,0,1,7.54-.1c12.92,1.59,21.76-5.12,29.32-14.3,2.44-3,4.45-6.29,6.62-9.47.56-.82,1.26-1.75.41-2.71-.7-.78-1.56-.15-2.34.07-1,.26-1.92.6-2.89.87-4,1.12-6.5-.06-7-4.47-.81-7.24-3.4-14.38-1.31-21.8a3.69,3.69,0,0,0,.05-1c.05-3.13-6.92-16.68-9.53-18.38-3.05-2-5.82-3.21-9.63-.67-4.2,2.8-8.69.86-11.91-2.3-6.79-6.65-6.41-20.27.34-26.86.48-.46,1.18-.88,1.37-1.45,4.1-11.92,15.42-8.29,23.76-11,1.61-.52,2,1.19,2.71,2.37,2.38,4.14,5.69,5.07,10.13,3.06,6.38-2.9,13-.79,16.32,5.23,1.14,2,2.2,4.14,3.48,6.09.57.87,1,2.63,2.42,1.93.67-.34.63-2.07.91-3.17,3,1.89,3.67,5.56,6,8,1.07,1.12,1.86,2.61,3.58.92,2.38-2.34,5.13-4.36,6.67-7.46,2.41-4.84,1.83-6.44-3.24-8.6-2.46-1-3.9-3.12-5.41-5.12a2.07,2.07,0,0,1-.25-1.84,2.23,2.23,0,0,1,1.63-.63c3.89,5.65,10.82,4.85,16.06,7.6a7.79,7.79,0,0,1,4.41,6.58c.43,3.36,2.19,6.55,3.73,10.81,2.46-5.79,1.54-11.1,3.05-15.93.44-1.38.19-3.42,2-3.65s2.49,1.54,2.9,3c.86,3,3.47,4.82,5.05,7.34,1.49,2.35,1.54,4-1.27,5.12a6.1,6.1,0,0,0-3.93,4.22c-.47,1.56-2.47,2.15.82,4.09s4.27,7.26,1.91,11.8c1.08-3.06-6.78-1.19-2.52-6.23-6.22,9.25-14.11,16.74-16.52,27.49-.26,1.17-.91,2.33.34,3.17,1.07.72,1.85-.24,2.59-.88,1.32-1.13,3.13-2.4,4.47-1.57,1.62,1,.14,3.11-.15,4.58-1,4.8-4.54,8.22-7.57,11.66q-32.9,37.36-82.76,34.33A11.16,11.16,0,0,1,184.9,223.35Z"/><path class="cls-5" d="M238.35,381.32c4.2.05,8.4.13,12.6.13,77.46,0,154.93.17,232.4-.16,14.52-.07,29.14-.5,43.6-2.69,2.39-.37,5-.86,7.32.77.48,2.26-1.31,2.65-2.74,3.46a34.38,34.38,0,0,1-9.57,4.05,213.64,213.64,0,0,1-43.54,7c-27.35,1.49-54.69.48-82,.75-26.86.26-53.72.09-80.58,0a38.56,38.56,0,0,0-14.69,2.87c-8.54,2.72-16,7.59-23.65,12A140.31,140.31,0,0,1,255,420.32a10.22,10.22,0,0,1-3.46.43c-11.08,0-22.16,0-33.24-.06-.76-2.45.93-3.82,2.47-5,8.51-6.49,16.87-13.17,26-18.88a18.93,18.93,0,0,1,9.32-3.24c-3.57,1.64-7.75-1.8-11.82.26-3.34.31-4.48,5.34-8.59,4-.26-3,.07-6-2.36-8.46-.68-.7-.77-2.19-.78-3.32q-.06-13.79.06-27.57c0-1.89.61-3.67,2.78-4.3,2.07,1.07,1.67,3,1.68,4.8,0,5.78,0,11.56,0,17.33C237,378.08,236.49,380,238.35,381.32Z"/><path class="cls-15" d="M668.19,101.36l-6.58.09c-2.81-.08-5.61-.21-8.42-.22-2.15,0-4.26-.18-4.11-3,.14-2.54,2.11-3,4.31-3,3.3,0,6.61-.11,9.92-.17,2-2.11,4.5-2.13,7.1-1.81,12.5-.82,25,.14,37.51-.56,2.08-.15,4.35.95,6.21-.84,2.56-2.48,5.11-3.21,7.33.29,1.82-1.21,1.29-3,1.93-4.25,1.42-2.83,2.69-2.68,3.93.11,0,5.58,4,5.14,7.7,5.15a10.06,10.06,0,0,0,2.25.36c1.94.25,3.78-.73,5.72-.44,2.33,1,4.61-.72,6.93-.13q26.64,0,53.28,0a38.29,38.29,0,0,1,6.51.32c1.17.13,2.35,0,3.52.11a67,67,0,0,1,11.06-.32c3.83.11,7.39-.11,9.59-3.95a3,3,0,0,1,2.59-1.34,2.25,2.25,0,0,1,1.14,1c.33,3.46,2.15,4.61,5.66,4.38a65.11,65.11,0,0,1,12.48.19c2.71,0,2.62-1.86,2.75-3.77.15-2.24-.75-4.71,1.2-6.63,2.66-.3,2.75,1.83,3.11,3.48,1.45,6.66,1.41,6.67,7.79,6.42a21.27,21.27,0,0,1,2.38.46c1.45,0,2.88,0,4.33.11,12.71-.89,25.43-.39,38.15-.3,4.7,0,9.39-.27,14.08-.12,2.21.07,4.39.12,6,2,3.19.08,6.37.23,9.56.23h272.18c2.68,0,5.37.05,8.06.08.13,1.9-.4,3.87.61,5.67l-10.82.3c-1.34-.05-2.68-.15-4-.15q-134.93,0-269.85,0c-1.51,0-3,.1-4.53.15a6.77,6.77,0,0,1-3.43,1.44c-6.22,1-12.47.49-18.71.4-14.21.56-28.45-.49-42.64.67-.44.9-1.66-1.73-1.75.35-.07,1.52.24,3.1-2,3.06-.43-2.45,1.25-5.89-3.52-6.13-4-.2-5.48,1.43-6,5.29-.34,2.64-.58,5.63-2.77,7.75-2.31-2.1-1.44-4.43-.74-6.93.48-1.67,1.86-4.22-1.86-4.26-4.2.55-8.4.18-12.6.27-5.37.13-6.5,1-6.71,6.44-.22,5.86,1.86,11.18,4.45,16.31a4.9,4.9,0,0,0,6,1.4l1.19-.65a17.53,17.53,0,0,0,5-7.2c1.33-2.18,1.91-5.12,5.25-5.34-.9,6-4,11-8,15.29s-12.49,2.25-14.49-3c-2.57-6.75-5-13.54-2.86-21,.81-2.79-.43-4.35-3.67-4.35q-39.29.11-78.59,0a6,6,0,0,0-5.1,2.63,56.2,56.2,0,0,1-5.69,6.35c-5.26,5-9.6,3.73-12-3.14-.69-2,.44-5.46-2.94-5.64-4.65-.26-9.41-1-14,.51-.91.3-1.31,2.18-1.95,3.34.41-3-.82-4.13-3.91-4.09C691.2,101.35,679.7,101.32,668.19,101.36Z"/><path class="cls-16" d="M548.17,445.91q-68.85.06-137.7.12l-349.07.1-4,0c-2.45,0-4.51-.65-4.4-3.56.1-2.72,2-3.64,4.49-3.64q10.33,0,20.68,0l55.48-.14c6.89.05,13.78.15,20.67.15H541.52c1,0,2,0,3,0C549.78,439.13,550.89,441.28,548.17,445.91Z"/><path class="cls-3" d="M132.48,52.73c.7,2.09-2.37,4.86.77,6.34,3,1.4,6,3.29,9.53.25,2.5-2.17,5.21-1,6.68,1.73s2,5.93-1,8.19c-1.79,1.36-4.3,1.36-5-1.07-1.38-4.52-4.27-2.59-6.81-2-3.58.79-6.83,2.43-7.77,6.25-.4,1.63.39,3.63.9,5.39.71,2.42,2.29,2.69,4.21,1.23a10.66,10.66,0,0,0,1.32-1.51c1.55-1.77,3-6.57,3.71-5.42,2,3.14,7.16,3.62,6.84,8.39-.07,1.12.59,2.27.73,3.43.51,4.23-.63,5.23-4.65,4.16-.16,0-.32-.11-.48-.15-1.84-.49-4.42-2-5.18.49-.71,2.31,1.84,3.5,4.59,4.56-13,1.16-19.65,9.2-23.72,20.52-1.44-3.15-2.67-6.86-6.34-6.3-3.24.48-3.32,4.28-3.87,7s-2.59,6.55,3.11,6.41c-.47,3.81,2.51,6.86,2.38,10.58a8.39,8.39,0,0,0,2.51,6.37c.68.71,1.42,1.73,2.53,1.17,3.81-1.91,7.16.18,9.85,1.94,4.42,2.91,9.39,5.87,11.68,10.82,2.38,5.14,6.64,7.78,10.91,10.69,1.52,1,3.09,2,4.62,3.06,3.4,2.33,5.1,5,2.94,9.33-1.27,2.51-1.79,5.4-2.68,8.11-.25.79-.4,2-.92,2.24-4.67,1.75-4.58,6.22-6.26,9.86-2.33,5-3.14,9.44,1.11,14-6.77-2.87-11.83-7.59-14.56-14.11-4.4-10.49-8.33-21-15.54-30.22-3.67-4.69-5.94-10.95-2.62-17.51,1.31-2.6.3-5.33-1.61-7.47-4.79-5.37-6.76-12.27-10.15-18.4-1.66-3-2-6.32-2.06-9.75s.89-6.71-.73-9.9a86.43,86.43,0,0,1,18.35-36.13C123.59,60.71,127,55.59,132.48,52.73Z"/><path class="cls-5" d="M585.34,731.25c-9.32.33-16.34-3.12-22.57-8.58a2.88,2.88,0,0,0-.79-.62c-8.45-3.54-10.08-9.28-5.93-17.25.9-1.74,0-3.89-.72-5.84-2.13-5.5-1.43-7.83,3.73-10.82a26.91,26.91,0,0,0,8.11-7.32c5.65-7.4,15.39-8.57,23.94-4.53,7.67,3.63,11.28,11.24,17.73,15.93a4.89,4.89,0,0,1,1.89,5c-2.08,8.88-1.43,18.36-5.9,26.7-1.06,2-2.44,3.79-4.7,4.28C595,729.31,590.15,732.31,585.34,731.25Z"/><path class="cls-3" d="M245.47,124.43c-2.33-5-6.33-9.09-7.39-14.7a3,3,0,0,0-.17-.47c-1.54-3.55-5.16-1.33-7.61-2.67-1.89-1-2.24-6-6.09-2.71-1.77,1.51-2.16-.62-3.06-1.34-1.86-1.47-2.86-4.25-6.33-4-.14,2.66,2.47,3.44,3.32,5.2,1.56,3.21-1.26,3.25-3.49,4.54.14-3.32.47-6.16-3.05-7.41-3.24-1.15-5.35.45-7.78,2.09-2.92,2-5,5.05-8.36,6.35-1.74.67-3.48,1.37-5.09-.4-1.41-1.54-1.46-3.34-1.14-5.19.36-2.12,2-2.37,3.8-2.5,2.72-.21,5.14-.74,2.45-4.14-1.29-1.63,0-2.15.94-3.16,3.33-3.39,8.33-4.13,11.6-7.78,2.12-2.35,2.74-3.74-.29-5.31-4.43-2.29-3.64-4.54-.46-7.51,4.46-4.18,8.62-8.46,15.58-7.44,2.36.35,4.34.54,4.65,3.43.12,1,.54,2,1.74,2.15a2.52,2.52,0,0,0,2.64-1.95c.62-2.19,2-4.35.88-6.77-5.43-11.7-12.07-22.46-23.5-29.35-2.28-1.37-4.73-2.45-7.1-3.67,13.41.05,25.7,4.29,37.55,10.13,1.95.95,1.88,1.08-.36,3.68,4.13,1.15,7.66,3.31,11.59,5.81-2.14.21-3.86-.15-4.88,2.12-1.1,2.45.14,6.91-4.8,6.66,1.06,4.8-3.3,4.79-5.73,6.53-1.64,1.18-.77,2.72-.24,4.11C242.15,86.69,244.2,105.49,245.47,124.43Z"/><path class="cls-5" d="M199.8,587.89c1.17.33,2.64.3,3.31,1,3.84,4.06,9.14,6.25,13,10.22,6.68,6.92,6.64,15.49,0,25.61-3.46,5.25-7.95,8.41-14.77,6.87-2.23-.51-4.67-.16-7-.18-10.05-.08-16.65-7.9-15.1-17.88a46,46,0,0,0,.75-5.45c.13-3.66-.6-7.77,2.51-10.37C187.55,593.45,193.17,589.81,199.8,587.89Z"/><path class="cls-5" d="M307.13,347.13c-12.41,0-24.82.21-37.22,0a36.44,36.44,0,0,1-19-5.89A250,250,0,0,1,221.3,319c9.4,0,18.82-.39,28.2.05,6.7.31,12.89,3,18.79,6.24,12.47,6.82,25,13.55,37.48,20.35C306.32,346,306.68,346.63,307.13,347.13Z"/><path class="cls-3" d="M301.12,397.54a15.61,15.61,0,0,1,12-5.08c45.57.11,91.13.05,136.7.07,23.69,0,47.27-.93,70.39-6.82a13.58,13.58,0,0,1,3-.13c-1.28,3.45-4.9,2.86-7.39,4.18-1.55.83-3.66.38-4.93,2a152,152,0,0,1-42.6,5.8Q384.7,397.66,301.12,397.54Z"/><path class="cls-5" d="M665.37,86.17c-1.42-3.33-4.12-1.28-5.48-.62-7.19,3.49-15.74-1.17-20.75-7.91a18.32,18.32,0,0,1-.88-21.12c3.94-6.26,15.18-8.92,23.16-5.38,3.67,1.63,7.34,3.32,8.84,7.56.74,2.08,1.89,1.19,3,.26,1.77,1.42,1.47,3.32,1,5.09-1.77,6.12-3.4,12.29-5.38,18.35C668.28,84.05,667.81,86.1,665.37,86.17Z"/><path class="cls-14" d="M490.9,358.21l-.09.06,0,0a1.69,1.69,0,0,0-.29.54,1.3,1.3,0,0,1,.18-.48l.1-.07,0,0,.11,0Zm-1.07,0-.11,0,0,0-.1.07a1.3,1.3,0,0,0-.18.48,1.69,1.69,0,0,1,.29-.54l0,0,.09-.06Zm4.93,13.15a36.42,36.42,0,0,1-12.76,2,38.11,38.11,0,0,0,13.62-2A8.43,8.43,0,0,1,494.76,371.38Zm5.06-2a4.5,4.5,0,0,1-3.66,2,4.81,4.81,0,0,0,4.67-2C500.49,369.41,500.16,369.4,499.82,369.39Z"/><path class="cls-1" d="M516.83,359.91l-1.18,1.14c-3.8,2.54-6.94,6.09-11.51,7.44a4.09,4.09,0,0,1-3.31.9,3.27,3.27,0,0,0,2.3-.9c4.57-1.35,7.71-4.9,11.51-7.44l1.18-1.14a52.1,52.1,0,0,0-14-5.64c-3.89-1.58-7.8-3.16-12.11-3.16a.73.73,0,0,0-.89-.14c-8.14-2.83-16.71-2.41-25.08-3.41v-.12c8.69,1.16,17.63.59,26.09,3.53a.73.73,0,0,1,.89.14c4.31,0,8.22,1.58,12.11,3.16A52.1,52.1,0,0,1,516.83,359.91Z"/><path class="cls-14" d="M495.77,371.38l-.15.05.54,0Z"/><path class="cls-14" d="M501.81,354.27c-3.89-1.58-7.8-3.16-12.11-3.16a.73.73,0,0,0-.89-.14c-8.14-2.83-16.71-2.41-25.08-3.41-.09,5.64-.2,11.29-.22,16.93,0,5,2.66,8.21,7.46,8.41,3.67.16,7.36.46,11,.5a36.42,36.42,0,0,0,12.76-2,8.43,8.43,0,0,0,.86.05l.15-.05.39,0a4.5,4.5,0,0,0,3.66-2c.34,0,.67,0,1,0a3.27,3.27,0,0,0,2.3-.9c4.57-1.35,7.71-4.9,11.51-7.44l1.18-1.14A52.1,52.1,0,0,0,501.81,354.27Zm-12,4,0,0a1.69,1.69,0,0,0-.29.54,1.3,1.3,0,0,1,.18-.48l.1-.07,0,0,.11,0,.06,0Z"/><path class="cls-17" d="M482,373.4c-4,0-8-.32-12-.5-4.8-.2-7.48-3.43-7.46-8.41,0-5.68.14-11.37.22-17.05.33,0,.66.09,1,.12-.09,5.64-.2,11.29-.22,16.93,0,5,2.66,8.21,7.46,8.41C474.64,373.06,478.33,373.36,482,373.4Z"/><path class="cls-14" d="M490.73,358.27s-.35.17.11,0,0,0,0,0l0,0a1.69,1.69,0,0,0-.29.54,1.3,1.3,0,0,1,.18-.48S490.74,358.28,490.73,358.27Z"/><path class="cls-5" d="M522,199.11c0-8.56,5.69-15.15,13.46-15.1s16.29,6.62,16.07,15.2c-.22,8.86-7.61,15.3-15.76,15.75C528,215.39,522,208.1,522,199.11Z"/><path class="cls-5" d="M30.62,6.86C29.41-1.49,36.27-5.23,41.31-5.34c7.16-.17,14,6.39,13.9,13-.13,6.16-7.82,13-14.43,12.92C34.92,20.42,30.62,14.65,30.62,6.86Z"/><path class="cls-5" d="M328.87,202.47c-.24,5.53-5.53,10.8-10.66,10.62-5.46-.19-11.25-5.62-11-10.36.22-5.3,6.19-10.9,11.37-10.67S329.09,197.65,328.87,202.47Z"/><path class="cls-3" d="M243.53,392.27c2.74-1.26,5.64-1,8.36-.34s5.66.38,9.57.87c-17.7,5.47-30.16,17.11-43.2,27.89l-7.86.16c-1.27-2.3.84-2.91,2-3.78,10.33-7.51,20.24-15.6,30.73-22.9C244.34,393.36,243.7,393,243.53,392.27Z"/><path class="cls-18" d="M211.26,319c8.89,8.15,19.16,14.53,28.59,22,2.45,1.94,5.16,3.56,8.19,5.63a9,9,0,0,1-6.32.08l-35.5-27.07C208.1,318.22,209.7,318.8,211.26,319Z"/><path class="cls-19" d="M243.53,392.27l4.36.47c-13.06,9.1-25.54,18.25-37.49,28.11-1.23.07-2.56.86-4-.88l29.14-22.12Z"/><path class="cls-20" d="M510.88,391.75c1.11-3.26,4.51-1.93,6.61-3.27a63.68,63.68,0,0,1,5.71-2.9c4-1.47,8-2.95,11.07-6.21,1.71-2.66.55-4.45-1.49-6.4-5.1-4.89-11.16-8.33-17.13-11.92a1.08,1.08,0,0,1,1.18-1.14,71,71,0,0,1,19.75,12.72c3.72,3.3,3.47,6.18-.69,8.91C528.23,386.55,519.65,389.4,510.88,391.75Z"/><path class="cls-21" d="M238.35,381.32c-3.89,1.38-2.73-1.8-2.77-3.34-.2-7.92-.21-15.85-.29-23.78.41-2.11-.52-4.5,1.32-6.33,2.37.91,1.77,3,1.78,4.75C238.42,362.18,238.37,371.75,238.35,381.32Z"/><path class="cls-22" d="M422,57c5.54,2.18,11.08,4.35,16.61,6.57,1.6.65,3.35,1.58,2.22,3.64-.91,1.68-2.57,1-4,.28l-17-8.38c-.44-.76-1.56-1.5-.41-2.41A1.7,1.7,0,0,1,422,57Z"/><path class="cls-23" d="M422,57c-1.68-.27-2.61.21-2.12,2.11L397.54,48.29l.74-1.71A120.8,120.8,0,0,1,422,57Z"/><path class="cls-24" d="M230.34,739.29c6,.5,11.15,3.38,16.59,5.33,1,.35,1.95,1.07,1.47,2.25s-1.66,1-2.57.5C240.65,744.71,235.5,742,230.34,739.29Z"/><path class="cls-25" d="M591.62,519.07c.09-1.87.85-3.27,2.89-3.31,2.3,0,3.24,1.41,3.15,3.53-.09,1.92-1.11,3.11-3.13,3.05S591.71,520.94,591.62,519.07Z"/><path class="cls-25" d="M97.33,648.47a2.92,2.92,0,0,1-3-3.16c-.07-1.8.31-3.45,2.52-3.43,2,0,3.47,1,3.44,3.32A2.94,2.94,0,0,1,97.33,648.47Z"/><path class="cls-25" d="M379.3,697.05c-2.21-.19-3.49-1.07-3.22-3.14.24-1.79,1.2-3.14,3.29-2.85a3.23,3.23,0,0,1,3.06,3.3C382.43,696.48,380.77,696.93,379.3,697.05Z"/><path class="cls-26" d="M435.76,684.86c-.28,1.73-1,3.11-3.08,3.15a3,3,0,0,1-3.35-3.37,2.92,2.92,0,0,1,3.26-3C434.59,681.69,435.49,682.94,435.76,684.86Z"/><path class="cls-25" d="M498.79,227.78c.09,2.54-.79,3.88-2.75,4s-3-1.23-3.17-3.08.76-3.21,2.79-3.28S498.69,226.41,498.79,227.78Z"/><path class="cls-27" d="M133.85,493.12c-.09,2.48-1.07,3.82-3,3.83-2.2,0-3.35-1.45-3.2-3.61a3,3,0,0,1,3.27-3A2.9,2.9,0,0,1,133.85,493.12Z"/><path class="cls-28" d="M87.94,156.68c-2-.29-3.09-1.33-3.1-3.3a2.92,2.92,0,0,1,3-3.28c2.22-.06,3.42,1.27,3.31,3.46C91.06,155.48,89.79,156.47,87.94,156.68Z"/><path class="cls-28" d="M285.84,54.78c-1.92-.29-3-1.4-2.92-3.36s1.16-3.2,3.14-3.17c2.2,0,3.34,1.37,3.16,3.59C289.06,53.84,287.8,54.73,285.84,54.78Z"/><path class="cls-29" d="M541.56,472.18a2.94,2.94,0,0,1,3.35,3,2.78,2.78,0,0,1-3,3.22,3,3,0,0,1-3.33-3C538.47,473.46,539.79,472.48,541.56,472.18Z"/><path class="cls-25" d="M486.67,35.7c-.08,1.86-.89,3.41-2.82,3.54s-3-1.42-3.08-3.26c-.12-2,1-3.15,3.05-3.16C485.65,32.81,486.51,33.93,486.67,35.7Z"/><path class="cls-8" d="M229.58,714.62a3.17,3.17,0,0,1-3.14-3.18,2.8,2.8,0,0,1,2.93-3.25,2.85,2.85,0,0,1,3.18,3C232.58,713.18,231.46,714.23,229.58,714.62Z"/><path class="cls-23" d="M428.11,613.18c-.22,2.11-1.29,3.17-3.26,3s-2.73-1.57-2.69-3.43,1.14-2.6,2.9-2.53A2.8,2.8,0,0,1,428.11,613.18Z"/><path class="cls-8" d="M433,222.09c2.13.33,3.28,1.38,3.1,3.37a2.79,2.79,0,0,1-2.87,2.85,2.86,2.86,0,0,1-3.15-3.07C430.06,223.2,431.39,222.35,433,222.09Z"/><path class="cls-26" d="M72.4,658.41a3,3,0,0,1,2.9,3.35c-.08,2.23-1.41,3.36-3.57,3.12a2.92,2.92,0,0,1-2.65-3.54A3,3,0,0,1,72.4,658.41Z"/><path class="cls-8" d="M-1.57,600.16c.22-2.34,1.51-3.18,3.44-3a2.67,2.67,0,0,1,2.63,3c-.06,2-1.12,3.17-3.15,3.08A2.86,2.86,0,0,1-1.57,600.16Z"/><path class="cls-23" d="M214.83,227.3a2.71,2.71,0,0,1,2.51,3.17c-.1,1.76-1,2.88-2.89,2.65a2.76,2.76,0,0,1-2.65-3.07A3,3,0,0,1,214.83,227.3Z"/><path class="cls-30" d="M545.09,703.94c-.05,1.38-.54,2.57-2.14,2.76s-2.45-.84-2.58-2.32c-.14-1.64.45-3,2.33-3.09C544.26,701.25,545,702.37,545.09,703.94Z"/><path class="cls-26" d="M434.22,534.35c-.37,2-1.38,3.11-3.12,2.92a2.53,2.53,0,0,1-2.33-3.21,2.44,2.44,0,0,1,2.69-2.38A2.82,2.82,0,0,1,434.22,534.35Z"/><path class="cls-31" d="M621.9,250.37c-1.83-.28-2.5-1.47-2.36-3.18a2.45,2.45,0,0,1,2.63-2.46,2.57,2.57,0,0,1,2.67,3C624.78,249.5,623.7,250.34,621.9,250.37Z"/><path class="cls-32" d="M588.52,532.72a2.55,2.55,0,0,1-2.22,2.83c-1.66.24-2.46-.87-2.61-2.34-.18-1.7.52-3.11,2.36-3.16C587.57,530,588.37,531.17,588.52,532.72Z"/><path class="cls-33" d="M430.1,355.22c-.88-2.54-.68-5.17-.7-7.78l2.69-.09c.13,2.61.5,5.24-.63,7.75A1,1,0,0,1,430.1,355.22Z"/><path class="cls-14" d="M426.18,347.28c.56,2.73,1.22,5.48-.83,8.17-2.28-2.57-1.32-5.41-1.21-8.13Z"/><path class="cls-34" d="M437.33,347.29c1.1,2.66.55,5.31-.06,8a1,1,0,0,1-1.37-.23c-1.2-2.49-.78-5.1-.57-7.7Z"/><path class="cls-35" d="M443.28,347.38q-.09,4-.16,7.92A.75.75,0,0,1,442,355c-1.92-2.41-1.52-5.05-.75-7.72Z"/><path class="cls-35" d="M449.16,347.39c-.47,2,1.54,5.72-1.38,5.71s-.86-3.72-1.29-5.73Z"/><path class="cls-28" d="M407,152.38a2.31,2.31,0,0,1-.72-4.55c1.63-.33,2.49.76,2.65,2.17A2.17,2.17,0,0,1,407,152.38Z"/><path class="cls-29" d="M568.41,147.53a2,2,0,0,1,2.07,2.23c0,1.31-.58,2.27-2,2.33s-2-.89-2.07-2.2A2,2,0,0,1,568.41,147.53Z"/><path class="cls-36" d="M178.33,533.79c-1.35-.12-2.07-.7-2.08-1.86a2,2,0,0,1,2.16-2.16c1.24,0,2.26.68,2.14,2.12S179.37,533.7,178.33,533.79Z"/><path class="cls-13" d="M494.89,213.88a2.09,2.09,0,0,1-2.17-2.16,2,2,0,0,1,4.08-.3A2.12,2.12,0,0,1,494.89,213.88Z"/><path class="cls-37" d="M49.84,173.58a2.05,2.05,0,0,1-2-2.39c.1-1.25.79-2.25,2.22-2.13a2.06,2.06,0,0,1,2,2.38A2.1,2.1,0,0,1,49.84,173.58Z"/><path class="cls-19" d="M577.09,643.54c1.6.3,2.42,1,2.25,2.43a2,2,0,0,1-2.46,1.9,2,2,0,0,1-1.71-2.13A2,2,0,0,1,577.09,643.54Z"/><path class="cls-38" d="M378.78,547.74a1.94,1.94,0,0,1-2.08,2.12,1.87,1.87,0,0,1-2.05-2.16,1.81,1.81,0,0,1,1.79-1.91A2,2,0,0,1,378.78,547.74Z"/><path class="cls-39" d="M375.63,124.06c.31-1.59,1.19-2.23,2.5-2.06a1.79,1.79,0,0,1,1.63,2.07c-.08,1.29-.68,2.24-2.12,2.14S375.89,125,375.63,124.06Z"/><path class="cls-31" d="M603.58,65.76c.12-1.42.86-2.21,2.21-2.16a2.16,2.16,0,1,1-2.21,2.16Z"/><path class="cls-40" d="M135.9,13.79c-1.21-.25-2.15-.94-2-2.32a2.13,2.13,0,0,1,2.4-2,2,2,0,0,1,2,2.34C138.25,13.12,137.34,13.79,135.9,13.79Z"/><path class="cls-41" d="M13.18,1.48A1.79,1.79,0,0,1,15,3.39a1.84,1.84,0,0,1-2.21,2A1.78,1.78,0,0,1,11,3.47C11,2.09,11.81,1.44,13.18,1.48Z"/><path class="cls-41" d="M487.63,754.26a1.89,1.89,0,0,1-1.72,2.08,1.79,1.79,0,0,1-2.2-1.53,1.82,1.82,0,0,1,1.89-2.33A1.89,1.89,0,0,1,487.63,754.26Z"/><path class="cls-42" d="M230.25,620.65a1.93,1.93,0,0,1-2.16-2.15,1.87,1.87,0,0,1,1.7-2.11,2.07,2.07,0,0,1,2.51,1.88C232.46,619.68,231.64,620.43,230.25,620.65Z"/><path class="cls-43" d="M319.46,10.44c-.21,1.3-.88,2.16-2.28,2a2,2,0,0,1-1.74-2.49,1.86,1.86,0,0,1,2.05-1.67C318.93,8.27,319.51,9.08,319.46,10.44Z"/><path class="cls-3" d="M292,134.52c1.44,3-.38,4.86,0,7.63C289,139.26,290.71,137.3,292,134.52Z"/><path class="cls-41" d="M441.46,430.85c-1.5-.14-2.18-.77-2.22-1.92a1.72,1.72,0,0,1,1.7-2,1.9,1.9,0,0,1,2.14,2.14A1.79,1.79,0,0,1,441.46,430.85Z"/><path class="cls-31" d="M45.1,708c0,1.53-.6,2.32-2.05,2.31a1.94,1.94,0,0,1-2.15-1.65,2,2,0,0,1,1.85-2.46A1.92,1.92,0,0,1,45.1,708Z"/><path class="cls-44" d="M631.11,720c-.06,1.1-.48,1.94-1.7,2a2,2,0,1,1-.06-3.91C630.58,718.09,631.06,718.84,631.11,720Z"/><path class="cls-35" d="M454.3,347.33c-.21,2,1.81,5.32-1.09,5.54-1.84.14-.45-3.54-.75-5.48Z"/><path class="cls-8" d="M473.74,330.3c.78.12,1.26.62,1.15,1.34a2.26,2.26,0,0,1-2,1.93,1,1,0,0,1-1.11-1.31A2.28,2.28,0,0,1,473.74,330.3Z"/><path class="cls-45" d="M334,253.56a2.36,2.36,0,0,1-2,1.88c-.64.08-1.38-.23-1.22-1.12a2.25,2.25,0,0,1,2-1.89A1,1,0,0,1,334,253.56Z"/><path class="cls-5" d="M1265.45,587.76c1.75,12-3.13,22.93-8.86,32.71-10.21,17.42-33.14,24.14-50.67,12.57-25.1-16.57-36.07-40.55-34.89-69.78.58-14.24,5.52-28,17.87-36.86,8.93-6.38,18.93-10.4,30.62-6.73,7.21,2.27,14.24,4.18,20.52,8.91,8.87,6.69,13.93,15.68,18.06,25.48C1262.61,564.76,1266.75,575.56,1265.45,587.76Z"/><path class="cls-7" d="M881.86,447c-2.18-.11-4.36-.31-6.53-.32q-53.18,0-106.35,0a70.67,70.67,0,0,1-9.52-.7,3.53,3.53,0,0,1-3.26-3.32c-.16-2.25,1.61-2.86,3.21-3.21a25.81,25.81,0,0,1,5.49-.43q54.95,0,109.87,0c2.19,0,4.37-.12,6.55-.18,15.63.05,31.26.14,46.89.14q157.57,0,315.16,0c1.35,0,2.69,0,4,0,2.64,0,5.64.18,5.73,3.43.11,3.71-3.14,3.68-5.9,3.7h-2l-267.26,0q-44.88,0-89.75,0C886.07,446.06,883.81,445.56,881.86,447Z"/><path class="cls-5" d="M941.76,681.78c1.15,9.73,2.6,19.44,1.94,29.29,1.52,6.56-2.37,16.31-7.82,19.48a8.42,8.42,0,0,1-8.56.46c-2.13-2-3.07-4.7-3.84-7.49q-11.52-41.68-20.18-84c-.48-2.31,0-5.73-2.95-6.39s-4.7,2.13-6.69,3.86c-6.64,5.78-6.9,13.81-7.32,21.68a70.66,70.66,0,0,0,.42,13.55c.31,2.25,1,5.24-2.83,5.73-5.66-15.52-7.29-31.2-.92-46.86,2.87-7.07,10.73-13.19,17.86-9.36,10.8.86,17.46,8,22.94,16.11a122.48,122.48,0,0,1,17.44,39.56A13.61,13.61,0,0,1,941.76,681.78Z"/><path class="cls-5" d="M1156.58,581.35c-.26,5.48-.9,12.43-6.49,17.78-2.35,2.26-4.76,3.68-8.07,2.11a4.58,4.58,0,0,0-2.4-.67c-10.44,1.86-14.39-6.54-19.66-12.56-5.86-6.68-7.31-14.82-6.39-23.46s4.88-15.1,12.65-19.23a16.58,16.58,0,0,1,20.57,4.42C1153.33,558.44,1156.61,568.46,1156.58,581.35Z"/><path class="cls-5" d="M962.74,716.31c-2-6.74-3.78-13.55-3.8-20.66a14.85,14.85,0,0,1,2.75-9c2.33-3.2,5.06-3.45,8.77-1.74,6.48,3,10.2,8.31,13.62,14.07,4.91,4.66,7.27,10.54,8,17.1a47.84,47.84,0,0,1,0,8c-.26,4.41-1.8,8.33-6,10.27-4.54,2.09-8.94,1.93-13.06-1.61C967.84,728.31,963.87,723.23,962.74,716.31Z"/><path class="cls-8" d="M950.6,286.3c.25-17.5,1.73-31.79,7.53-45.24,4-9.23,9.82-17.52,18.08-23.13,13.08-8.89,20.71-8.67,34.21-.49,11.43,6.92,15.38,17.6,18.59,29.17,5.35,19.33,4.31,38.38-2.65,57.22a67.79,67.79,0,0,1-21,29c-12.63,10.26-31.32,5.11-40.05-6.29C955.55,313.82,949.08,299.88,950.6,286.3Z"/><path class="cls-5" d="M888.15,527.73c1.12-3.13,2.38-1.06,3.58-.09C897,532,899.47,538.12,902,544.12c5.95,14.37,9,29.13,3.69,44.41-1.25,3.62-2.88,7.7-8.24,6.67a3.25,3.25,0,0,1-1.67-1.77c-3.14-10.29-3.86-21-5.51-31.56-1.05-6.77-1.45-13.63-2.81-20.35-.36-1.81-.57-3.79-2.88-4.22-2.12-.4-3.46,1-4.68,2.39-5.18,5.89-5.1,13.16-5.27,20.35-.06,2.68,1.41,5.83-2.49,7.15-3-2.38-2.49-6-3-9.14a49.22,49.22,0,0,1,.46-18.3c2.16-9.63,7.59-13.39,17.13-11.67A2.55,2.55,0,0,0,888.15,527.73Z"/><path class="cls-5" d="M922.61,227.3c1.18-2.73,2.28-5.5,3.55-8.19a9.06,9.06,0,0,1,6.76-5.26c3.34-.74,4.93-.5,4,3.44a5.84,5.84,0,0,0,1.75,5.93c4.18,1.19,7.51.63,9-4.13a2.92,2.92,0,0,1,2.18-1.9c.94-.81,1.74-1.75,2,.56.66,5.54-1.47,9.59-6.13,12.46a26.06,26.06,0,0,1-3.38,15.9,17.78,17.78,0,0,1-2.65,3.64c-6.26,6.13-13.52,4.62-16.24-3.73C921.48,240,918.52,233.72,922.61,227.3Z"/><path class="cls-46" d="M1100.18,726.24a21,21,0,0,1-13.19-3.92c-17.19-12.22-26.31-28.58-26.22-49.76,0-6.47-1-13,2.12-19.29,5.28-10.54,20-15,29.64-8.32,15.42,10.72,23.89,25.76,26.9,44.22a56.44,56.44,0,0,1-.2,17.46c-.94,6.42-5.45,10.55-9.77,14.82C1106.7,724.19,1104.26,727.4,1100.18,726.24Z"/><path class="cls-46" d="M996.21,373.63c-.72-7.61,2.8-13.75,6.35-19.86.58-1,1.64-1.85,1.88-2.91.33-1.48-2.26-3.2-.32-4.5,2.16-1.45,1.7,2.19,3,2.16,2.12,0,3.9-1.8,6.22-1.41,3.07.52,3.63-1,3.26-3.77a2.12,2.12,0,0,1,2.56-2.37c1.66.41,2.72,2.26,1.92,3.53-2,3.16.39,3.82,2.24,5.07,7.9,5.29,12,12.39,12.34,22.23a53.17,53.17,0,0,1-6.75,28.91,14.72,14.72,0,0,1-10.6,7.69c-1.42.28-3.53.53-4.37-.24-5.39-4.93-12.82-8-14.35-16.53C998.57,385.58,995.56,379.89,996.21,373.63Z"/><path class="cls-46" d="M887.2,300.76c-.36-12.75,4.52-23.82,11.19-34.27,2.2-3.45,5.72-5.08,9.62-5.83,1.12-.22,2.82-.41,3.41.2,4.22,4.33,10.25,7.5,11.89,13.6,2.11,7.89,3.18,16.06,4.44,24.15,2,12.44-3.06,22.77-11.18,31.44-5.47,5.83-18.64,3.64-23.25-3C888.28,319.86,887.67,315.6,887.2,300.76Z"/><path class="cls-47" d="M897.16,593.19l.24,2c0,.7-.11,1.4-.16,2.09-3.35,1.63-6.43,1.07-9.44-1-3.78-2.57-7.28-5.5-9.65-9.37C869.3,572.54,865.3,557,868,540.1c1-6.3,4.67-10.94,9.21-15.09,3.26-3,6.71-.36,10.06-.45l.84,3.17c-.28,1.49-.37,3.1-2.67,2.52-6.67-1.68-11.68.93-13.63,7.47a49.17,49.17,0,0,0,.4,29.19c2.31,1.25,2.82,3.63,3.64,5.8a33.7,33.7,0,0,0,9.72,14.4c2.32,1.94,4.7,3.8,8,3.85A3.5,3.5,0,0,1,897.16,593.19Z"/><path class="cls-5" d="M1173.8,620.64c.24,4.2-.92,8.16-5.14,9.33-4.38,1.2-7.61-1.71-9.83-5.38a17.2,17.2,0,0,1-2.13-11.14c.65-5.55,5.34-7.9,10.33-5.27C1171.67,610.62,1173.8,614.55,1173.8,620.64Z"/><path class="cls-5" d="M976.88,455.67a17.11,17.11,0,0,1,0,3.51C976,463,974,466.24,970,467s-6-2.36-7.63-5.39-2-6.42-2.29-9.73c-.32-3.13.94-5.25,4.6-4.95,1.17.1,2.35,0,3.52,0C976.53,447,977,447.42,976.88,455.67Z"/><path class="cls-5" d="M957.86,663.31c0,2,.36,5.08-2.9,6.11-3,1-4.7-1.29-6.68-3.27-3.57-3.56-3.77-8.1-4.27-12.49-.28-2.43.49-5.11,3.23-6.26,2.94-1.23,4.89.77,6.4,2.69A19.8,19.8,0,0,1,957.86,663.31Z"/><path class="cls-46" d="M941.76,681.78c-3-7.78-4.74-15.94-8.13-23.57A128.3,128.3,0,0,0,918,632.67c-4.24-5.61-10.38-7.57-16.69-9.37a3.61,3.61,0,0,1-.46-4.95,2,2,0,0,1,.69.12c18.47,6.59,26.86,22.13,34,38.63a108,108,0,0,1,6.56,19.45C942.51,678.37,943.18,680.12,941.76,681.78Z"/><path class="cls-6" d="M932.64,344.29a11.12,11.12,0,0,1-2.9,7.31c-1.67,1.73-3.51,3.62-6,1.95-2.26-1.52-4.81-3.15-3.64-6.82.75-2.36,1.11-4.81,2-7.16s.93-5.66,4.25-5a7.55,7.55,0,0,1,6.26,6.8C932.7,342,932.64,342.67,932.64,344.29Z"/><path class="cls-29" d="M962.74,716.31c2.17,5.89,5.15,11,10.43,15,3.86,2.88,7.44,3.61,11.67,1.86,4-1.65,5.88-5,6.18-9.08.49-6.74.39-13.42-3.91-19.28a42.94,42.94,0,0,1-3-5.79c.76-2.47,1.77-.76,2.3,0,6.47,9.48,8.8,19.84,5.63,31-1.62,5.69-9.91,9.1-15.32,6.55-8-3.79-11.79-11-14.56-18.94C962,717.28,962.53,716.75,962.74,716.31Z"/><path class="cls-44" d="M933.71,101.35l3,0c-4.6,17.78-11.61,34.47-22.61,49.31-3.24,4.37-7.72,7.24-12.36,9.88a1.42,1.42,0,0,1-.57.15c-.83-1-1.63-1.92-1.4-3.32.65-2.57,3.47-2.6,5-4.2,9.78-7.59,14.94-18.35,19.87-29.2a87.06,87.06,0,0,0,6.25-17.5A8,8,0,0,1,933.71,101.35Z"/><path class="cls-29" d="M922.61,227.3c-2.58,6.44-.07,12.5,1.82,18.41,2.35,7.32,10.2,8.34,15.18,2.12A23.55,23.55,0,0,0,944.7,235c.15-1.63-.2-3.38,1-4.79,3,8.19-2,20.55-9.85,23.91-4.08,1.76-7.9,1.75-10.58-2.46-4.88-7.66-7.19-15.75-3.82-24.71.06-.15.1-.4.21-.44C922.43,226.22,922.42,226.89,922.61,227.3Z"/><path class="cls-6" d="M949.83,217.19a33.83,33.83,0,0,1-1.68,5.16c-2.42,4.82-5.79,5.07-9.5.87.35-2.13.64-4.28,1.05-6.4.59-3,1.64-6.42,5.12-6.43C948.7,210.38,949.78,213.7,949.83,217.19Z"/><path class="cls-8" d="M927.69,730c6.2.62,10.21-1.54,12.59-7.43,1.48-3.69,2.3-7.64,3.42-11.48,2.37-4.31.12-9.16,1.72-13.58,0,8,1.42,16-1,23.91-2.29,7.52-7.48,12.05-15,14a8.45,8.45,0,0,1-.85-.28c-1.44-1.33-3.08-2.58-2.2-4.94A1.2,1.2,0,0,1,927.69,730Z"/><path class="cls-48" d="M881.4,352.18c-.12-.89-.23-1.78-.34-2.66.09-2.5,0-5,.32-7.48s.94-5,4-4.74c2.72.22,4.37,2.2,4.8,5C891,347.73,887.16,352.06,881.4,352.18Z"/><path class="cls-48" d="M935.64,271.27c-.17,2.13-.82,5.58-5,6.13-2.2.28-3.75-1.35-3.76-3.78,0-4.22,3.2-9,5.86-8.84S935.83,265.68,935.64,271.27Z"/><path class="cls-49" d="M1164.68,541.13c0,2.89,0,5.53-3.36,5.5-4.07,0-5.41-3-5.55-6.43-.09-2.4.62-5.26,3.56-5.14C1163,535.21,1165,537.69,1164.68,541.13Z"/><path class="cls-50" d="M970.22,352.31c-.38,1.79.38,4.42-1.38,4.15-2.64-.4-3.72-3.07-3.7-5.76,0-1.92.68-4.31,2.84-3.9C971.24,347.41,969.24,350.76,970.22,352.31Z"/><path class="cls-51" d="M913.72,478.76c2.81,3.09,2.95,5.66,2.61,8.88C912.36,485.49,913.24,482.66,913.72,478.76Z"/><path class="cls-52" d="M939.58,152.12c.22-1.36-.22-3.11,1.39-3s1.59,1.89,1.6,3.22c0,1,0,2.33-1.19,2.42C939.27,154.9,940.07,152.92,939.58,152.12Z"/><path class="cls-8" d="M1150.43,706.08c-.12.93-.48,1.7-1.58,1.33a2.81,2.81,0,0,1-2.06-2.58c-.06-1,.5-1.59,1.57-1.25A2.55,2.55,0,0,1,1150.43,706.08Z"/><path class="cls-3" d="M844.82,282.72c1.83,3.13,3.76,6.17,7,8,2.21,1.72,5.18.26,7.45,1.75a7,7,0,0,1,2.22,2.44,123.31,123.31,0,0,1,4.58,30.19c.86,22.12-1.08,43.86-9.27,64.67-3.58,9.08-7.8,17.79-15.64,24.2-2.51,2.05-5.43,3.31-8.07,5.07-8.09,3.06-17.2.27-22.6-7.12-10.75-14.73-17.42-31-19.28-49.32a189.87,189.87,0,0,1-.21-35.52c.82-2.87-1.79-5.88.39-8.69.94-3.91.12-8,1.16-11.9a15.33,15.33,0,0,0,.95-2.87c2.7-5.39,3.69-11.41,6.31-16.88,3-6.18,7.22-11.65,9.66-18.1a1.9,1.9,0,0,1,2-1.26c3.26.16,5.22-2.18,6.81-4.34,5.18-7,13.05-8,20.6-9.8,1.59,1.2,1.39,3,1.41,4.62.05,6.86.06,13.69,3.6,20C844.68,279.26,843.82,281.22,844.82,282.72Z"/><path class="cls-3" d="M733.66,632.57q-5.19-23.6-10.36-47.18c-.11-.49-.14-1-.2-1.48-1.14-11.13-3.87-22-5.5-33-2.69-18.21-3.06-36.36,1.2-54.39,1.33-5.63,4-10.37,10.37-11.72,3.84-.07,4.8,2.91,6,5.65.18.82-.06,1.87.38,2.46,5,6.57,6.22,15.13,11.61,21.47,3,3.54,5,7.47,5,12.29,0,4.06,2.87,7.08,4.08,10.71,1.69,5.06,3,10.24,7,14.23,1.43,1.42,1.65,3.62,1.82,5.65,1.06,13.13,3,26.16,4.85,39.2.55,3.92-.72,7.64-.72,11.49,0,9.34.66,18.64,1.46,27.93-.5,3,1.7,7.26-1.73,8.73-3.93,1.68-4.66-3.24-6.69-5.33-3.83-4-6-3.66-7.69,1.41a24.07,24.07,0,0,0-1,3.35c-.61,3.38-2.48,3.88-5.47,2.64C741.36,643.85,735.81,640,733.66,632.57Z"/><path class="cls-3" d="M876.22,212.2c2.57,2.23,3.15,5.49,4.35,8.42-.91.78-1.71,1.55-1.33,3,4.68,17.85.55,34.76-5.92,51.28-2.21,5.66-6.76,9.85-11.82,13.3-3.15-.86-6.83,2.07-9.62-1.34l-6.09-7.15c-6.87-5.54-5.15-13.52-5.9-20.8.77-7.76.55-15.66,3.43-23.13,1.92-5,3.63-10.1,6-14.84,3.49-6.91,9.84-10.76,17-13.18C870.92,206.2,873.35,209.79,876.22,212.2Z"/><path class="cls-3" d="M772.24,258l0-.26a94.2,94.2,0,0,1,.71-43.22c2.62-1.55,4.86-3.12,5-6.81.2-6.74,4.4-11.43,9.49-15.07,3.75-2.69,11.28-.2,14.11,4.2,1.17,1.81,2.22,3.71,3.51,5.46.42,5.83,1.81,11.64.08,17.48-.67,7.79-3.33,15.17-4.83,22.8-.92,4.68-1.17,9.61-3.41,14A50.17,50.17,0,0,1,789.6,269c-3.47,4.3-8.67,4.44-11.71,0C775.58,265.54,773,262.22,772.24,258Z"/><path class="cls-3" d="M804.61,565.7a68.52,68.52,0,0,1-7.29-16.83c-.94-4.12-1.49-8.34-2.17-12.46-1.92-11.62-3.67-23.5,3.18-34.42,2.56-4.1,5.79-6.9,11.09-5.7,2.47,1.66,5.17,3.14,5.48,6.59a2.45,2.45,0,0,0,.23,2.37c5.46,10.56,7.8,21.92,9.16,33.63a103.87,103.87,0,0,1,.06,24c-.5,4.27-2.61,7-6.11,9.19-2.17,1.37-4.17,1.42-6.09.09C809.44,570.24,806.5,568.57,804.61,565.7Z"/><path class="cls-3" d="M688.5,292.18c-2.38-20.5-.77-40.88,2-61.19,2-15.13,4.53-30.19,10.08-44.54a23.29,23.29,0,0,1,2.19-4.52c.84-1.27,1-3.71,3.21-3.23a5.49,5.49,0,0,1,4,4.18,39.69,39.69,0,0,1,0,17.42c-1.55-1-.53-2.55-.82-3.71-.81,5.9.17,11.91,0,17.93-.34,15.36-2.3,30.52-4.76,45.67a215.38,215.38,0,0,1-6.93,30.16c-.2.65-.46,1.26-.65,1.91-.7,2.39-1.79,4.5-4.64,4.53S689.19,294.17,688.5,292.18Z"/><path class="cls-3" d="M772.21,709.8c-8.15-13.4-14.51-27.5-17.11-43.1.62-4.13-.83-8.14-.61-12.27.2-3.59.15-7.18,4-8.88s6.72.14,9.25,2.87c1.34,5.41,4.39,10.11,6.46,15.22a156.71,156.71,0,0,1,9.63,33.43,51.92,51.92,0,0,1,.27,17.93c-1.88,3.17-4.29,2.77-6.63.73C775.49,714,773.43,712.25,772.21,709.8Z"/><path class="cls-11" d="M807.59,738.9c-4.37-11-9.43-21.85-10.85-33.84-.49-4.18-.91-8.36.59-12.43,1.16-3.13,3.65-3.9,5.89-1.8,5,4.67,10,9.42,11.54,16.55-2.58-.13-1.48,1.07-.82,2.18a102.56,102.56,0,0,1,11.48,29.13,24.55,24.55,0,0,1,.65,7.43c-3.14,5-8.22,5.71-12,1.63A36.62,36.62,0,0,1,807.59,738.9Z"/><path class="cls-53" d="M733.81,490.28c-1.33-1.62-2.65-3.24-4-4.85-6.42-1.29-8.33-.22-10.12,6.41-3.6,13.3-4.32,26.9-4,40.61.05,2.58.64,5.43-1.9,7.4-3.68-8.88-2.25-18.23-1.83-27.31.52-11,2.62-21.91,7.81-32,3-5.83,3.13-5.48,8.41-1.7,14.58,10.43,20.46,26.35,28.19,41.41C767.49,542,771,565.41,773.92,589c1.3,10.57.61,21.41-.28,32.14-.76,9-1.08,18-2.47,27-.45,2.88,2.41,5.3.93,8.24-2.36.2-2.5-1.78-3.18-3.23-.53-5.35-4.84-8-8.15-11.39-1.71-1.74-3.28-1.13-4.32,1-1.5,3.07-1.57,6.42-1.88,9.71-.15,1.62.26,3.4-1.59,4.38-.09-6.06-4.39-8.18-9.14-10.32a16.86,16.86,0,0,1-10.18-13.91c2.88,6.9,9.51,9.28,15.28,12.72,2,1.17,2.84,1.07,3.28-1.46.62-3.54.77-8.29,4.95-9s6.21,3.73,8.55,6.7c.71.89,1.47,1.74,2.59,3.06,1.39-2.89.36-5.62,1-8.08,1.56-5.38.44-10.9.72-16.35,1.11-21.64-1-43.12-5.14-64.34A117.31,117.31,0,0,0,752,521.15a141.66,141.66,0,0,1-6.9-14.51,18.33,18.33,0,0,0-4.25-6.76A31.67,31.67,0,0,1,733.81,490.28Z"/><path class="cls-3" d="M782.46,294.72a78.38,78.38,0,0,1,1.35,22.39c-.53,5-1.19,10.22-6.34,13.39-2.32,1.42-3,4.31-3.67,6.94-1,3.83-2.91,3.93-5.55,1.12-2.81-3-3.43-6.77-4.3-10.5a78.39,78.39,0,0,1,1-23.66c1.26-6.16,6-9.07,10.12-12.37C778,289.76,780.76,291.71,782.46,294.72Z"/><path class="cls-54" d="M859.88,294.78l-1-2c-.29-.39-.23-.7.21-.92,7-.79,7.23-.83,8.46,6.2,5.47,31.48,6.13,62.7-5.65,93.13a82.61,82.61,0,0,1-12.78,22.71c-12.3,15.05-31.68,10.44-40.53-2.15-10.42-14.81-16.31-31.35-18.42-49.4-1.18-10.07-.53-20.1-.77-30.15-.05-1.83-.2-3.75,1.59-5,.39,12.24-.28,24.5,1.21,36.72a92.51,92.51,0,0,0,18.11,45.27c5.71,7.6,12.66,11.26,22.21,8.67,8.3-1.57,13.32-7.35,17.48-14,9.64-15.4,14.11-32.45,16-50.35,1.83-17.45,1.6-34.8-2-52C863.43,298.79,863.66,295.5,859.88,294.78Z"/><path class="cls-3" d="M723.69,247.51l.06,1.93c0,10-.11,20.08-1,30.09-.38,4-2.41,7.59-3.78,11.33-.87,2.38-1.94,5.29-4.78,5.09-3.4-.25-3.33-3.57-3.57-6.22-.28-14-.92-28,3.24-41.58.87-2.84,2-5.6,3-8.4.89-2.47,2-2.36,3.88-.71C723.48,241.39,723,244.6,723.69,247.51Z"/><path class="cls-3" d="M804.29,674.85c-5.52-8.68-9.16-18-9-28.44,0-1.49-.22-3.37,1.26-4.11,3.17-1.58,4-4.11,3.88-7.34,0-1,.31-2,1.61-2.16s1.78.68,2.41,1.49c4.7,6,7.6,12.55,6,20.41a4.33,4.33,0,0,0,0,4.77c2.34,3.92,1.22,8.15,1.68,12.22.25,2.26-.08,4.48-2.37,5.62C807,678.64,805.79,676.32,804.29,674.85Z"/><path class="cls-55" d="M803.82,219.16c2.56-5.75.91-11.44-.28-17.14A112.51,112.51,0,0,0,798,190.84c-2.4-4.21-5.26-4.87-9-2a31.37,31.37,0,0,0-11.07,16.9c-.88,3.11-1.79,6-3.77,8.54-3.75,12.12-3.86,24.49-2.51,37,.24,2.15.36,4.31.53,6.47-3.79-11.76-3.71-23.72-1.67-35.72,1.54-9.12,3.63-18.09,7.92-26.41A41.17,41.17,0,0,1,789,182.87c3.3-2.76,6.55-2.8,9.73.64,5.9,6.39,6.84,14.57,7.62,22.46a117.71,117.71,0,0,1-3.05,39c-2.35,9.83-7.41,18.33-13.82,26-3.65,4.37-9.06,3.91-12.17-.84-2.42-3.7-6.1-7-5.07-12.14,2,3.09,3.92,6.25,6,9.26,2.91,4.16,7.59,4.19,11,.33,2.82-3.23,3.57-7.57,6.17-10.89,3.47-4,3.77-9.16,4.81-13.94C801.88,235,804.3,227.27,803.82,219.16Z"/><path class="cls-56" d="M713.77,539.85c-.88-14.49.44-28.82,2.66-43.14a33.9,33.9,0,0,1,5.35-13.31c1.68-2.64,3.07-3.3,5.31-.88.9,1,1.83,1.94,2.74,2.91-8.67,4.61-10,13-11.11,21.52-3.07,23.68.95,46.88,4.58,70.12.36,2.32,1,4.59-.2,6.84-2.93-7.52-3.6-15.57-5.42-23.35C716.09,553.72,715.05,546.76,713.77,539.85Z"/><path class="cls-57" d="M804.61,565.7c1.37,1,2.77,1.88,4.09,2.89,6.19,4.74,13,2.46,13.9-5.23.65-5.58,1.23-11.31.41-17-.94-6.56-1.09-13.31-2.73-19.68-1.93-7.51-3.5-15.22-7.15-22.2-.43-.82-1.19-1.83.07-2.48.33-.17,1.12.56,1.7.89,4.1,1.84,5.22,5.72,6.65,9.47,6.5,17.07,7.45,34.59,4.11,52.37-1.73,9.19-9.8,11.91-16.86,5.82C807.25,569.21,804,569,804.61,565.7Z"/><path class="cls-58" d="M688.5,292.18c1.08,1.6,1.6,3.89,4.27,3.54s2.72-2.73,3.25-4.55a300.43,300.43,0,0,0,10.46-58.81c1-12,1.22-24.1,1.83-36.15.08-1.63-.18-3.35,1.1-5.47.21,3.58.39,6.57.56,9.55,2.33,18.38-.45,36.48-3,54.56-1.71,12-3.85,23.85-8,35.26a15.94,15.94,0,0,1-1.79,4.13c-1.57,2.08-3.1,5.41-5.84,4.82C688.26,298.42,688.71,294.82,688.5,292.18Z"/><path class="cls-56" d="M876.22,212.2c-5.34-3.59-10.63-3.82-15.83.29C856,216,851.28,219,849.64,225.12c-2,7.65-6.88,14.35-7.55,22.62-.28,3.57.79,7.39-1.23,10.77l-.63-.69c-1.59-6.19.15-12.28.56-18.41a64.07,64.07,0,0,1,12.13-29.25C859.7,201,870.73,202.11,876.22,212.2Z"/><path class="cls-11" d="M860.87,144.41a26.61,26.61,0,0,1-4.41,13,4.78,4.78,0,0,1-4.74,2.19c-2.36-.26-2.94-2-3.32-3.88a23.79,23.79,0,0,1,2.71-17c1.27-2.26,2.89-4.6,5.82-3.91s3.64,3.61,3.93,6.37C860.93,141.83,860.87,142.51,860.87,144.41Z"/><path class="cls-59" d="M861.85,287.44c9.88-8.81,13-20.53,15.83-33,2-8.72,1.14-17.08,1.16-25.6,0-2.27-1.17-4.51-1.42-6.8-.34-3.1,1.17-3,3.15-1.45,5.06,18.66,1.95,36.42-5.48,53.86-2.72,6.38-7.23,10.69-12.86,14.19C861.41,288.47,861.28,288.06,861.85,287.44Z"/><path class="cls-60" d="M809.42,496.29c-10.52,3.3-13.07,11.9-13.95,21.39a120.13,120.13,0,0,0,0,12.59,11.3,11.3,0,0,0,1.78,5.88c2.23,3.81.95,8.44.11,12.72a68.41,68.41,0,0,1-2.73-46.43C797,494.28,802.92,492.11,809.42,496.29Z"/><path class="cls-56" d="M782.46,294.72c-4.23-2.88-6.48-1.93-10.08,2.25-3.18,3.69-6.88,6.56-7,11.67s-2.2,10.12-.35,15.3a3.63,3.63,0,0,1-1,4.12,18,18,0,0,1-1.62-8.21,114.58,114.58,0,0,1,5.76-33c1.61-4.89,2.62-5.07,6.34-1.29a18.78,18.78,0,0,0,4.79,3.59C781.57,290.35,782.86,292,782.46,294.72Z"/><path class="cls-61" d="M900.89,618.35a7.94,7.94,0,0,1,.46,4.95c-3,.46-5.87-2.26-9.13-.07a24,24,0,0,0-10.83,16.64c-2.09,12.84-1.42,25.55,3.1,37.89a4.08,4.08,0,0,1,1.7,5c-.4.75-.91,1.31-1.88,1.11-4.26-12.07-6.7-24.41-6.23-37.29a48.92,48.92,0,0,1,4.48-17.84C886,620.61,892,616.93,900.89,618.35Z"/><path class="cls-62" d="M793.31,297.49c1.12-4,2.92-8,3.21-12.06.62-8.62,6.64-14.29,10.5-21.12,4.24-7.51,11.3-12,18.19-16.83,5.08-3.53,9.28-2.72,13.5,1.08,1.41,1.79.81,3-1.09,3.83a3.32,3.32,0,0,1-1.45.35c-14.2-2.17-21.64,6.9-27.95,17.23-5.22,8.53-8.81,17.91-12.22,27.32C795.15,297.92,794.29,298.55,793.31,297.49Z"/><path class="cls-63" d="M770.21,653.19c.35,1.22.68,2.46,1.89,3.17,7.23,11.57,10.76,24.43,13.18,37.68a66.6,66.6,0,0,1,.1,18.06l0,0c-.92.88-.26,2.1-.64,3.07-.44,1.17-1,1.61-1.42-.06.32-12.13-.93-23.89-6.11-35.19-1.94-4.24-1.55-9.44-3.58-14-1.84-4.12-3.17-8.45-5.86-12.18-.83-1.14-1.89-2.51-.68-4.1C769,650.12,769.58,651.66,770.21,653.19Z"/><path class="cls-53" d="M900.48,157.25a2.93,2.93,0,0,1,.66,3.46,70.44,70.44,0,0,1-7.75,2c-11.71,1.64-17.84-5.84-22.22-18.66-4.11-12-3.14-24.41-3.06-36.74,1.1-1.14.68-2.67,1-4,.49-1.83.77-.44,1,.17,2.72,2.45,1.72,5.53,1.39,8.47-1.54,13.76,1,26.7,8.13,38.59,3.48,5.78,8.68,8.11,15.45,6.43C896.92,156.52,898.77,156,900.48,157.25Z"/><path class="cls-55" d="M884.31,683.82l1-1.17c3.3.25,3.7,3.09,4.44,5.33a72.64,72.64,0,0,0,21.4,32.67c3.66,3.19,7,6.67,12.3,7.06a5.29,5.29,0,0,1,3.64,2.46c.51,1.64,1.83,3,1.48,4.93-7.18.43-12.47-3.66-17.38-7.89-11.28-9.72-19-22-23.92-36C886.37,688.74,885.3,686.29,884.31,683.82Z"/><path class="cls-11" d="M721.8,206c-.56,6.31-.84,12.69-3.63,18.57-.56,1.18-.78,2.84-2.61,2.39-1.32-.32-1.5-1.67-1.59-2.85-.55-7.94.18-15.71,3.29-23.13.5-1.18.89-2.85,2.57-2.64s1.71,1.93,1.91,3.16A28.13,28.13,0,0,1,721.8,206Z"/><path class="cls-60" d="M770.21,653.19q-1.56-1.74-3.14-3.46c-2.21-2.31-5-4-8-2.74-3.17,1.36-2.71,5-3,7.92-.4,3.93,1,8-.95,11.79q-1.07-5-2.12-9.9c.42-4.8-.51-9.72,1.35-14.41,2-5.21,4.66-5.94,8.41-2C766.18,644.08,769.35,648,770.21,653.19Z"/><path class="cls-64" d="M710.58,289.73c.22.45.44.9.63,1.37.68,1.64.77,4.12,3.12,4,2-.13,2.56-2.21,3.42-3.92,5.19-10.34,4.28-21.51,4.55-32.48.08-3.21,0-6.3,1.45-9.23,2,5.69,1.09,11.59,1,17.38-.11,7.7-.86,15.4-4,22.61a22.48,22.48,0,0,1-1.69,3.65c-1.54,2.25-2.92,6.07-6,4.85S709.5,293.07,710.58,289.73Z"/><path class="cls-65" d="M824.85,745.22c-1.94-11.2-4.77-22.07-11.47-31.58-2-2.8-1.57-6.38-1.83-10l3.21,3.76c4.93,5,5.9,11.9,8.87,17.84a55.77,55.77,0,0,1,3,16.06C826.66,742.73,827.41,744.81,824.85,745.22Z"/><path class="cls-66" d="M824.85,745.22c2.18-5.28-.36-10.4-.57-15.6a39.24,39.24,0,0,0-.65-4.4,33.72,33.72,0,0,1,3.81,20.7c-.76,6.27-7,8.79-11.78,4.65-3.58-3.11-6.83-6.77-8.07-11.66,2.19,2.53,4.23,5.19,6.59,7.56C817.74,750.06,822.4,749.42,824.85,745.22Z"/><path class="cls-3" d="M854.77,727.05c0,1.79.17,3.29-1.4,3.89s-2.56-.42-3.35-1.51c-2.52-3.51-5-7-4.49-11.74.29-2.48,1.68-3,3.28-1.38A22.1,22.1,0,0,1,854.77,727.05Z"/><path class="cls-67" d="M804.29,674.85c1.88.09,3.25,3.13,5.39,1.17,1.84-1.69,1.38-4.12.83-6.16-1-3.68,0-7.6-1.81-11.21-.63-1.27-.73-3.45,1.71-3.95,2.31,5.94,3.86,12,3.15,18.46-.3,2.79-1.61,4.9-4.29,5.45S805,677.39,804.29,674.85Z"/><path class="cls-68" d="M761.27,474c4.75,4.56,5.11,10,6.41,15.08a1.68,1.68,0,0,1-1.28,2.31,2.65,2.65,0,0,1-2.82-1.67C761.27,485,759.69,480.22,761.27,474Z"/><path class="cls-11" d="M817.79,696.1c-.2,1.41.39,3.08-1.37,3.54-1.33.35-2-.78-2.75-1.76a15.16,15.16,0,0,1-3.21-8.82c0-1.41-.63-3.33,1.35-3.85s2.53,1.31,3.38,2.48C817,690.23,817.38,693.25,817.79,696.1Z"/><path class="cls-69" d="M836.79,251.66c1.62-.43,2-1.65,1.92-3.1.32-.4.64-.79.95-1.19,1.73,3.54-.34,7.47,1.15,11l.05.11c.3,7.38.6,14.75,4.93,21.18-.94.82-.8,2-1,3-4.83-6.46-5.94-14-6.19-21.73-.08-2.47.53-5-.71-7.39A1.42,1.42,0,0,1,836.79,251.66Z"/><path class="cls-65" d="M762.67,412.9c-4.29-2.93-6.16-8.22-4.48-12.21.24-.57.71-1.29,1.21-1.43s1.24.55,1.41,1C762.21,404.31,763.69,408.34,762.67,412.9Z"/><path class="cls-70" d="M742.6,279.06c.46-2.49-.34-6.58,2.22-6.49,3,.1,2.26,4.14,2.26,6.65,0,2.12-.23,5.47-2.34,5.38C741.58,284.47,743.31,280.92,742.6,279.06Z"/><path class="cls-71" d="M803.43,144.69c-.34,1.69.61,4.46-1.8,4.49s-2.23-2.82-2.2-4.67-.38-5.3,2-5.22S803,142.74,803.43,144.69Z"/><path class="cls-61" d="M783.3,715.15c1.88-.19.5-2.6,2.06-3-.36,2.31,1.26,5.5-1.65,6.68s-5.4-1-7.37-3.06c-1.66-1.76-4.05-3.08-4.13-6,1.49,1.49,3,3,4.48,4.46A4.88,4.88,0,0,0,783.3,715.15Z"/><path class="cls-72" d="M736.08,347c-.42,1.58.54,3.95-1.68,3.75s-2.77-2.59-2.75-4.67c0-1.67.36-4.14,2-4C736.63,342.27,735.4,345.36,736.08,347Z"/><path class="cls-73" d="M893.41,757.3c-2.1,0-4.2-1.14-6.28.06-.55-1.67,2.94-1.33,1.66-3.5-.7-1.19-.87-2.88,1-3.2s2.7,1.21,3.15,2.67A22.69,22.69,0,0,1,893.41,757.3Z"/><path class="cls-74" d="M711.2,447.42c-.06.88-.09,2.49-1.34,1.88-2.36-1.13-2.24-3.87-2.8-6.07-.24-.91,0-2.56,1.23-1.94C710.6,442.42,710.71,445.07,711.2,447.42Z"/><path class="cls-64" d="M723.69,247.51c-.8-2.69-1.53-5.36-3.42-7.62-1.28-1.52-2.24-.9-3.41-.15,0-1.61.39-3.11,2.07-3.55,1.52-.4,1.58,1.4,2.4,2.1C724.25,240.83,724,244.16,723.69,247.51Z"/><path class="cls-75" d="M804.21,684.38c-2-.73-2.65-2.38-2.77-4.26-.07-1-.48-2.89,1.07-2.78,2.65.19,2.09,2.94,2.73,4.65C805.56,682.84,805.6,684,804.21,684.38Z"/><path class="cls-76" d="M873.14,387.53c-.34,1.1-.21,3-1.88,2.78-1.22-.12-2.13-1.48-2.1-3s.87-2.62,2.41-2.51S873.16,386.24,873.14,387.53Z"/><path class="cls-77" d="M793.31,297.49l2.12-.7c1.66,2.59-.22,4.74-.87,7l-1.17,2.12c-1-.75,0-2.21-1-2.93C790.9,300.86,790.69,298.93,793.31,297.49Z"/><path class="cls-78" d="M865.2,404.31c1.73.28,1.77,1.53,1.63,2.69s-.13,2.75-1.61,2.63-2-1.58-2-3A2.06,2.06,0,0,1,865.2,404.31Z"/><path class="cls-54" d="M792.35,303c1.17.69.73,1.94,1,2.93q-1,6.26-2,12.5A61.87,61.87,0,0,1,792.35,303Z"/><path class="cls-3" d="M840.81,258.4c-1.82-3.52-.42-7.39-1.15-11,.56-2.63-.41-5.48,1.13-8Q840.81,248.91,840.81,258.4Z"/><path class="cls-61" d="M785.38,712.1q-.06-9-.1-18.06A32.61,32.61,0,0,1,785.38,712.1Z"/><path class="cls-79" d="M709.6,161.9c1.37,2.33,1.59,4.09.5,5.89-.08.13-1.06,0-1.17-.19C708.07,165.91,708.07,164.21,709.6,161.9Z"/><path class="cls-69" d="M861.85,287.44c.12.41.25.82.37,1.22-2.13.22-4.29.27-6.39.69-2.26.44-3.52-.27-4-2.51C855.1,288.72,858.52,287.23,861.85,287.44Z"/><path class="cls-69" d="M859.13,291.82a6.84,6.84,0,0,1-.21.92c-2.42-.45-5.29.74-7.07-2C854.31,290.91,856.91,290,859.13,291.82Z"/><path class="cls-2" d="M1234.53,102.39c4.15-.29,8.44-1,10.88,3.72,1.52,1.52,1.21,2.75-.38,4.09-3.07,2.58-6,5.28-9,8-2.42,2.23-4.3,4.57-3,8.34.94,2.72-.58,4.24-3.42,3.91-4.23-.5-6.48,1.78-9.1,4.83-9.79,11.41-17.2,24.31-23.71,37.66A138.66,138.66,0,0,0,1186,204.55c-1.23,5.68-2.93,11.27-4.25,17.09V213c0-.64,0-1.29,0-1.93,1.49-5-.37-10.18,1-15.16-1-8.92,4-16.15,7.07-23.83,5-12.28,10.36-24.41,15.8-36.5.77-1.71.74-5.59,4.91-3.51,1.69.84,2-1.19,1.5-2.1-1.66-3,.6-4.31,2.12-5.94Q1224.33,113.19,1234.53,102.39Z"/><path class="cls-46" d="M1324,353.91c-.47-6.34,1.17-11.53,5.55-15.5,9.61-8.71,21.39-6.29,27.38,5.49,5.31,10.43,1.45,23.34-8.58,28.71-9.52,5.11-23-2.72-24.32-14.16A36.57,36.57,0,0,1,1324,353.91Z"/><path class="cls-2" d="M1249.5,117.52c.37-3,.66-5.47,1-7.94a3.44,3.44,0,0,1,4.32-3.11c3.1.5,6.64,1,8.11,4.22s-2.08,4.44-3.66,6.36a16.44,16.44,0,0,1-3.76,3.24c-1.32.86-2.59,2.53-4.44,1.6C1249,120.86,1249.56,118.77,1249.5,117.52Z"/><path class="cls-4" d="M906-6.6a3.76,3.76,0,0,1,3.46-.53c2.18.78,3.18,3.33,4.77,4.85A15.06,15.06,0,0,0,920,1c8,2.67,18.36.06,20-.35l.1,0c.33-.08.65-.21,1-.3s.59-.09.89-.16a1.81,1.81,0,0,0,.4-.18q-6.87,21.9-13.75,43.8c-3.11,1.09-5.51-.92-8-2a14.53,14.53,0,0,0-13.86.53c-14.52,7.87-23,20.49-29.24,35.2C875.14,83,874.6,89.14,871,94.11a10.36,10.36,0,0,1-4.28,1.1c-4.2.5-6.24-.86-5.79-5.44.22-2.22.63-4.67-.88-6.75-1.87-1-2.16-2.8-2.55-4.61-1.1-5.13-4.57-6.61-8.68-3.37a39,39,0,0,0-8.54,9.15c-1,1.48-1.57,3.42-3.67,3.9-2.14,6.28-6.63,8-12.91,7.17-3.29-.47-6.7-.09-10.05-.1-1.07-1.26-2.13-1.24-3.18,0q-27.68,0-55.36,0c-2.12,0-4.41.6-6.25-1.13-1.59-2.08-.19-3.87.72-5.57,11-20.46,19.11-42.11,26.84-63.95,2.62-7.42,4.78-15,6.84-22.54,6.83-1.87,13.68-3.75,20.11-6.72.55-.25,1.07-.53,1.6-.8,4.88-.49,9-3,13.07-6.71.82-.75,1.67-1.53,2.51-2.36a35.79,35.79,0,0,0,5.89-4.08c22.65,0,45.29,0,67.93.06a38.65,38.65,0,0,0,6.49,6.23c1.54,1.16,3.15,2.22,4.57,3.52S905.33-6.12,906-6.6Z"/><path class="cls-5" d="M935.5,95.08l-19.93,0c-1.77-2.55-.79-5.2-.1-7.74,2-7.6,4-15.2,5.89-22.85,1.65-6.84-2.52-10.83-9.5-9-7.91,2.05-14.19,6.74-19.34,12.89-5.3,6.32-9.11,13.61-12.5,21.09-1,2.17-1.83,4.31-3.92,5.66l-3.83,0c-1.52-2.57.25-4.85.92-7,4.27-13.89,10.3-26.86,21-37.14a50.11,50.11,0,0,1,15.54-10c5.86-2.46,14.24,1.09,16.75,6.92,5.78,6.31,8.11,13.65,8.44,22.28C935.23,78.45,935.64,86.75,935.5,95.08Z"/><path class="cls-61" d="M926.47,47.85c-11.2-8.06-13.57-7.26-23.11-2-12.89,7.07-19.59,19-25.39,31.59a90.2,90.2,0,0,0-5.7,17.72l-1.27-1c4.13-20.29,12.79-37.9,30.15-50.22,10.35-7.34,16.78-7.28,27.42-.11C928.85,45.65,928.59,47.23,926.47,47.85Z"/><path class="cls-48" d="M1283.63,45.44c.11-3.9.85-6.66,4.36-7.19,1.93-.29,6.74,5.36,6.49,7.64-.44,4-3.93,3.51-6.56,3.83C1284.15,50.18,1283.45,47.67,1283.63,45.44Z"/><path class="cls-80" d="M1017.1,59.4c.56.33.77.39.8.49.75,2.6,1,5.13-1.15,7.25-.14.14-1.07-.13-1.14-.37C1014.76,64.13,1014.91,61.65,1017.1,59.4Z"/><path class="cls-81" d="M1048.61,27.45c-.44,1.42,0,3.41-2.06,3.5-1.27.05-1.2-1.36-1.17-2.31,0-1.49.14-3.24,2-3.38C1048.84,25.17,1048.37,26.66,1048.61,27.45Z"/><path class="cls-5" d="M1182.79,195.93c-.19,5.06,1,10.21-1,15.16C1181.89,206,1181.25,200.9,1182.79,195.93Z"/><path class="cls-46" d="M1267.54,82.06c3.08-1.73,5.16-.38,6.84,2.21-1.09,2.14-2.52,4.47-5.16,3.51C1266.83,86.91,1267.55,84.16,1267.54,82.06Z"/><path class="cls-2" d="M1281.26,91.92c-.23,1.81-1.5,2.06-2.89,2.11-1.88.08-2.75-.87-2.69-2.7,0-1.3-.11-3,1.82-2.83S1280.56,90.22,1281.26,91.92Z"/><path class="cls-1" d="M-18.6,351.18a64.8,64.8,0,0,0,25.47-.05,51.2,51.2,0,0,1,25.8,1.6c4.91,1.56,9.8,2.11,14.81.39a16.65,16.65,0,0,1,13.26.62c12.33,6.26,25.09,4.45,37.79,2.13,6.3-1.15,12.07-.44,17.41,2.82a15.47,15.47,0,0,0,13.94,1.65,16.37,16.37,0,0,1,14.06,1,31,31,0,0,0,22.86,3.2c8.44-2,15.36,2,22.28,5.88,2.29,1.28,1.73,2.53-.35,3.52a2.07,2.07,0,0,1-.47.18c-12.3,2-24,7.34-36.91,6.1-8-.77-16,1-23.78,3.05a64.77,64.77,0,0,1-18.89,2.22c-7-.27-14.07,1.14-21,1.24-7.72.1-15.25,1.41-22.85,1.6a373.63,373.63,0,0,0-56.35,5.88,27.46,27.46,0,0,1-10,.11c-5.7-1.14-11.37-.61-17.06-.76Q-18.59,372.39-18.6,351.18Z"/><path class="cls-3" d="M803.37-4.76c-12.81,5.12-21.12,6.83-28.9,9.22-9,2.75-18.7,5.74-26.43,11.35a152.94,152.94,0,0,1-6.74,28.86A160,160,0,0,1,727,76.85c-2.1,3.5-.78,7.12-.74,10.2.08,6.47,1.25,6.88,7,7.65.51.07,1.29-.11,1.85-.06,4-5,5.25-10.62,7-16.66-1.23,5.68-3.37,11-5,16.6,1.9.1,3.8.18,5.7.29a13.65,13.65,0,0,0,6.53-6.33c1.12-2.11,2-4.17,3.25-6.39C769.62,50.79,778.6,23.89,807.65.62a11.3,11.3,0,0,0,4.41-6.92c.9-.33.94-.63.94-.7,0-.38-.8-.76-2-1C809.25-7.21,806.62-6.06,803.37-4.76Z"/><path class="cls-4" d="M757.27,10.55A46.83,46.83,0,0,0,744.18,19c-4,3.85-7.43,8.3-10.92,12.66-10.2,22.23-13.65,39.92-25.12,63.16,3.63-.83,5,.4,7.47-2.17.62-.66,1.28-1.62,2.35-1.38s.48,1.28.45,1.94c-.09,1.62.49,2.21,2.1,2.32a3,3,0,0,0,3.33-2.2c.53-1.61.73-3.49,1.15-5.12.12-.45.43-.4.63-.18s0,.35.15.56c1.63-3.43,2.19-7.22,3.72-10.68a10.43,10.43,0,0,0,1.11-4.81,26.87,26.87,0,0,1,1.32-10.33A194.58,194.58,0,0,1,757.27,10.55Z"/><path class="cls-82" d="M780.7,2.66c-.69,2.77-1.3,5.55-1.8,8.28-1.45,8-5.38,14.84-7.32,22.52-1.31,5.17-4.59,10-6.58,15.15-6.18,16-12.22,32.18-22,46.55A8.64,8.64,0,0,0,748.86,94a32.18,32.18,0,0,1,1.78-4.12c10-16.59,16.61-34.65,23.25-52.71,4.34-11.81,8.24-23.75,11.62-35.86Z"/><path class="cls-83" d="M1286.47,75.08c-.25,1.06-.44,2.35-1.89,2.42-1.16.06-1.7-1-1.84-2a1.76,1.76,0,0,1,1.65-2.06A1.62,1.62,0,0,1,1286.47,75.08Z"/><path class="cls-3" d="M188.46,58a8.77,8.77,0,0,0-6.25,5.63c-1.29,3.28-4.91,3.83-7.42,4.24-4.95.81-8.25,4.16-12.34,6.2-1.46.72-2.52,2.47-4.29.74a4.12,4.12,0,0,1-.92-5.09c1.31-2.28,1.35-4.8,2.13-7.16a4.41,4.41,0,0,0-1-4.62c-2.56-3-1.92-5,2.12-4.84C169.56,53.6,179,52.3,188.46,58Z"/><path class="cls-11" d="M142.93,55.86c-1.18.07-2,.08-2.85.17-1.67.17-4.13,1.53-4-1.65.08-2.31,1.2-5.3,4.19-4.4,4.78,1.43,9.47.21,14.17.58a2.42,2.42,0,0,1,1.68.67c.62,1-.29,1.46-1,1.89A19.89,19.89,0,0,1,142.93,55.86Z"/><path class="cls-49" d="M247.72,357.28c1,0,2,.07,3,0,3.75-.34,6.13.16,6.15,5.09s-2.57,5.28-6.22,5c-1-.07-2,0-3,0A10.57,10.57,0,0,1,247.72,357.28Z"/><path class="cls-76" d="M247.72,357.28q0,5-.07,10.05A6.58,6.58,0,0,1,247.72,357.28Z"/><path class="cls-84" d="M446.32,371.17c.26-1.11-.57-3,1.66-2.83,1.69.13,1.31,1.69,1.28,2.78s.38,3.05-1.67,2.91C446,373.91,446.49,372.28,446.32,371.17Z"/><path class="cls-85" d="M436.1,368.26c1.47,0,1.85.88,1.84,1.94,0,1.41.56,3.24-1.34,3.81-1.43.43-1.52-1-1.48-1.91C435.19,370.77,434.4,369.1,436.1,368.26Z"/><path class="cls-86" d="M432.33,371.33c-.27,1.3.13,3-1.65,2.66s-1.32-2-1.35-3.29.05-2.61,1.69-2.37C433,368.64,431.75,370.53,432.33,371.33Z"/><path class="cls-87" d="M430.79,361.18c1.4.08,1.46,1.13,1.41,2.11s.49,2.55-1.1,2.84-1.71-1.1-1.74-2.25S429.25,361.51,430.79,361.18Z"/><path class="cls-88" d="M447.81,366.26c-1.73-.2-1.42-1.56-1.43-2.65,0-.93-.26-2.18,1.14-2.35,1.74-.22,1.76,1.1,1.74,2.3S449.46,366,447.81,366.26Z"/><path class="cls-89" d="M438,363.91c-.11,1.16-.12,2.61-1.79,2.26-1.48-.32-1-1.82-1-2.88s0-2.23,1.38-2.08S437.92,362.76,438,363.91Z"/><path class="cls-90" d="M443.44,363.39c-.26,1.25.35,2.87-1.37,2.83-1.52,0-1.41-1.52-1.42-2.64s0-2.16,1.25-2.32C443.87,361,443,362.77,443.44,363.39Z"/><path class="cls-90" d="M430.1,355.22l1.36-.12a2.67,2.67,0,0,1,.07,3.87,1.35,1.35,0,0,1-1.32,0A2.42,2.42,0,0,1,430.1,355.22Z"/><path class="cls-91" d="M426.5,371.49c-.2,1.05.11,2.74-1.59,2.38-1.33-.29-.94-1.91-.93-3s-.28-2.73,1.51-2.35C426.91,368.82,426.33,370.42,426.5,371.49Z"/><path class="cls-85" d="M435.9,355l1.37.23c1,1.34,1.13,2.65-.27,3.77a1.35,1.35,0,0,1-1.3-.08A2.84,2.84,0,0,1,435.9,355Z"/><path class="cls-92" d="M448,355.17c1.35.24,1.31,1.29,1.25,2.28-.06,1.16-.66,1.94-1.89,1.58s-1-1.53-.94-2.48A1.27,1.27,0,0,1,448,355.17Z"/><path class="cls-93" d="M442.48,374.68a4.93,4.93,0,0,1-1.16-5.78.85.85,0,0,1,1.54-.14C443.73,370.56,443.46,372.33,442.48,374.68Z"/><path class="cls-93" d="M453.59,374.71a5.56,5.56,0,0,1-.86-5.93c.07-.22,1.09-.41,1.18-.27C455.18,370.3,454.88,372.13,453.59,374.71Z"/><path class="cls-94" d="M442,355l1.11.31c.14,1.35,1,2.88-.78,3.78a1.32,1.32,0,0,1-1.2-.5C440.45,357.19,440.09,355.79,442,355Z"/><path class="cls-95" d="M453.28,361.33c1.16,0,1.31.85,1.32,1.66,0,1.1.42,2.6-.82,3.05s-1.47-.87-1.46-1.82S451.87,361.91,453.28,361.33Z"/><path class="cls-96" d="M425.13,366.16c-1.52-.5-1.08-1.81-1.11-2.85s.09-2.22,1.48-1.88c1.17.28.95,1.56.92,2.5S426.57,366,425.13,366.16Z"/><path class="cls-2" d="M232.56,191.39c8.16-19,11.72-38.29,12.31-58.27,5.2,1.43,3,11.64,11.4,7.74-.87,7.8-4.11,14.18-8,20.18a14.41,14.41,0,0,0-2.71,8.91c.22,4.44-.9,8.41-5,10.79-2.3,1.33-1.64,3.92-2.93,5.6S235.48,190.19,232.56,191.39Z"/><path class="cls-97" d="M254.28,171.86a47.5,47.5,0,0,1-5.3,12.82,1.49,1.49,0,0,1-2.16.58c-1.18-.76-1.17-1.84-.71-3.06C247.7,177.94,250.8,174.83,254.28,171.86Z"/><path class="cls-3" d="M900.48,157.25c-12,5.05-20.22,1.63-25.51-10.44a68.73,68.73,0,0,1-5.17-37.34c.26-2,.26-4,.39-6,.71-1.73,1.9-2.34,3.85-2.32,13.47.14,26.94.15,40.41.21,1.33,2,.81,4.15.31,6.28-3.37,14.43-6.12,29-9.07,43.52a9,9,0,0,0-.33,3.45C904.17,156.31,902.06,156.29,900.48,157.25Z"/><path class="cls-3" d="M876.1,95.12c4.63-14.05,11.3-26.75,23.42-35.95a35.18,35.18,0,0,1,12.15-5.83c7.9-2.16,13.73,3.45,11.76,11.18q-3.9,15.3-7.86,30.58Z"/><path class="cls-5" d="M905.36,154.61c-2.07-.38-2.18-2-1.84-3.47,3.67-16.59,6.15-33.44,10.93-49.78h19.26c-3.26,18-10.94,34-22.11,48.28C910,151.67,907.46,153,905.36,154.61Z"/><path class="cls-3" d="M836.86,128.32c-3.18-7.53-6.51-15-4.53-23.58.59-2.54,1.38-3.71,4.19-3.6,5.83.23,11.67.14,17.51.18,3.61,5.09-.67,9.43-1.42,14.09-.26,1.58-1.76,2.8-2.26,4.41-1.37,2.94-3.42,5.5-4.67,8.51l.07,0A16.37,16.37,0,0,1,836.86,128.32Z"/><path class="cls-25" d="M855.94,95.21l-14.43.1c-6.42,0-6.42,0-4.73-6.17a30.79,30.79,0,0,1,11-14c4.73-3.46,9.63-1.82,10.57,3.89C859.25,84.57,860.17,90.35,855.94,95.21Z"/><path class="cls-53" d="M855.94,95.21c.66-4.28,1.43-8.56,1.95-12.86.34-2.79-.24-5.46-3-6.87s-5.4-.66-7.85,1.36c-4.21,3.46-7.22,7.87-10.22,12.3-.06-.35-.11-.7-.17-1,2.15-6.31,6.76-10.75,11.79-14.65,4.47-3.46,9.44-1.31,10.61,4.17.39,1.8.7,3.61,1,5.41,0,2.78-.11,5.56,0,8.33C860.17,94.32,858.88,95.59,855.94,95.21Z"/><path class="cls-59" d="M848.58,120.3c1.95-6.29,6-12,5.44-19,3.5-.46,4.56,1,3.36,4.24a21.83,21.83,0,0,0-1.55,8.64v0l-4,6.22C850.65,122.13,849.54,122.76,848.58,120.3Z"/><path class="cls-98" d="M734,101c1.53.93,4.7-.91,4.39,1.64a6.24,6.24,0,0,1-6.18,5.58c-3,0-4.07-3.1-4-5C728.43,99.05,732.19,102.36,734,101Z"/><path class="cls-99" d="M735.1,95.18c2.1-3.83,3.31-8,4.73-12.09s.47-8.61,2.22-13c2.71,4.17,0,16.7-4.93,24.94Z"/><path class="cls-100" d="M848.58,120.3c1,1.46,2.14.39,3.24.17-1.1,3.36-2.77,6.27-6.14,7.86C843.29,124.44,847.24,122.84,848.58,120.3Z"/><path class="cls-101" d="M810.47,95.18c.07-1.65-.17-4.12,1.87-4.06,2.48.06.87,2.64,1.31,4Z"/><path class="cls-100" d="M836.86,128.32c3,0,5.92-.88,8.89,0A8.26,8.26,0,0,1,836.86,128.32Z"/><path class="cls-102" d="M582.37,697.25a7.41,7.41,0,0,1,.47,14.8,7.34,7.34,0,0,1-7.51-7.19A7.2,7.2,0,0,1,582.37,697.25Z"/><path class="cls-103" d="M207,611.63a7.37,7.37,0,1,1-6.71-8A7.36,7.36,0,0,1,207,611.63Z"/><path class="cls-57" d="M652.85,62.86c3.14.4,4.66,1.88,4.57,4.72a3.78,3.78,0,0,1-4.22,4c-2.45,0-4.13-1.37-4.25-4C648.81,64.6,650.73,63.48,652.85,62.86Z"/><path class="cls-104" d="M540.08,199.19c-.41,2.68-1.89,4.31-4.68,4.2a3.9,3.9,0,0,1-4-4.3c0-2.79,1.69-4.3,4.56-4.16C538.61,195.07,539.82,196.67,540.08,199.19Z"/><path class="cls-105" d="M45.55,6.23C45.24,8,44.33,9.11,42.55,9a2.6,2.6,0,0,1-2.68-3,2.59,2.59,0,0,1,2.9-2.74C44.58,3.38,45.37,4.57,45.55,6.23Z"/><path class="cls-53" d="M322.56,202.61c-.29,2.77-1.91,4.29-4.66,4.12a3.88,3.88,0,0,1-3.86-4.4c.12-2.77,1.82-4.36,4.62-4.16C321.18,198.36,322.49,200,322.56,202.61Z"/><path class="cls-2" d="M1253,551.84c-1.68-.19-2.11-1.74-2.7-2.76-4-7-11-9.8-18-11.92-5.63-1.71-11.12-4-17.48-3.67-12.6.62-27.78,10.88-32.31,22.85-6,15.94-5.81,31.6,1.83,47,.48,1,1.52,1.9.39,3.69a36.18,36.18,0,0,1-7.52-15.93c-1.7-8.29-4.28-16.57-3.45-25.24,1.2-12.56,4.73-24.15,13.83-33.48,4.9-5,11.29-6.72,17.67-8.87,10-3.33,18.25,1.56,26.71,4.81,9,3.47,15.39,10.44,20.08,18.85C1252.86,548.59,1254,550,1253,551.84Z"/><path class="cls-3" d="M927.08,730.17c-17.06-1.78-24.65-15-32.92-27.32-4.15-6.16-5.57-13.61-8.86-20.2l-.81-4.89c1.08-1.91.6-3.87.27-5.87a72.4,72.4,0,0,1,1-26.43c1.38-6.66,6.73-11.45,12.74-14.81,2.91-1.63,5.16-.83,5.85,2.82,3.79,20.06,8.39,39.94,13.3,59.74,3.06,12.33,6.69,24.52,10.06,36.77A4.31,4.31,0,0,1,927.08,730.17Z"/><path class="cls-9" d="M1140,548.25c-12,.64-15.1,9.41-19.09,16.91-2.14,4,1.59,8.86-.57,13.25-.46,1,.33,2.72-1.23,2.9s-2.15-1.51-2.46-2.72c-3.56-14.06-1.08-25.62,13.41-32.1C1133.05,545.15,1135.93,545.69,1140,548.25Z"/><path class="cls-5" d="M1025.58,246.22c4.9,13.66,4.72,27.64,2.21,41.64a75.21,75.21,0,0,1-8.76,24.53c-6,10.33-13.82,18.9-26.23,20.89-11.29,1.81-21.08-3.12-27.2-11.87-9.42-13.47-14.87-28.77-12.8-45.79.63-5.14,1-10.31,2.93-15.2A90.72,90.72,0,0,1,967.42,239c5.09-7.08,11.2-11.82,20-14,16.13-3.92,30.93,3.89,36.05,17.85A6.37,6.37,0,0,0,1025.58,246.22Z"/><path class="cls-9" d="M1025.58,246.22c-1.17,2.45-1.25.07-1.51-.41a46.46,46.46,0,0,0-7.7-11c-8.61-8.77-18.57-10-30.32-7.32-8.25,1.92-12.9,7.07-17.23,13.18s-9,12-11.17,19.4c-.32,1.1-1.13,1-1.92.37,2.41-19.93,12.47-34.88,30.63-43.2,5.12-2.34,12.41-3.21,18.14,1.46,4.54,3.69,9.23,7.18,13.73,10.91C1023.41,233.88,1023.26,240.62,1025.58,246.22Z"/><path class="cls-3" d="M897.16,593.19c-6.15.61-10.68-2.3-14.81-6.48a38,38,0,0,1-10.1-19.8c1.47-5.52-.54-11.13.72-16.76,1.17-5.23,2.64-10,6.81-13.6s8.68-2.28,9.5,3.14c2.44,16,4.67,32,7,48.07C896.54,589.58,896.87,591.38,897.16,593.19Z"/><path class="cls-5" d="M1107.12,663.83c4.73,4.66,6.58,10.81,8.22,16.9a70.5,70.5,0,0,1,1.78,22.49c-.31,5.18-3.08,9.15-6.49,12.72-8.93,9.36-14.27,8.64-25.33,1.63-10.39-6.58-14.37-17.05-20-26.52-2.69-4.53-2.54-10.65-2.56-16.21,1.43-2.11,1.49-5.18,4.55-6.16,1.36-.44,1.13-1.43.27-2.32-2.71-2.83-1-5,.86-7.42,9.66-12.29,22-8.14,33.13-.37C1103.68,660.06,1104.17,663.23,1107.12,663.83Z"/><path class="cls-9" d="M1107.12,663.83c-1.42,2.7-2.28.06-2.72-.52-5.32-6.93-13.38-8.41-21-10.49-5.4-1.46-8.56,2.81-12,5.86-2.41,2.17-6.74,4.44-.67,7.69,1.41.75,1.25,3.72-.16,3.61-4.14-.35-5.27,3.25-7.84,4.86,0-3.69-.12-7.38.09-11.06.52-9.21,6-14.64,14.23-17.52,7.46-2.61,13.79-.3,19.25,5.09C1100.24,655.23,1104.33,659,1107.12,663.83Z"/><path class="cls-5" d="M1032.46,367.32c1.08,10.93,1,21.53-5.48,31.29-4.34,6.58-10.34,7.18-16.72,2.89-9.58-6.45-8.72-17.06-12.25-25.93,2.07-5.83,4.32-11.45,8.29-16.44,7.83-9.84,20.33-3.47,23.83,4.33A13,13,0,0,0,1032.46,367.32Z"/><path class="cls-106" d="M1032.46,367.32c-2.27-.13-2.81-2-3.81-3.55-2-3.07-4.23-5.8-8.22-6.78a13.93,13.93,0,0,0-16.14,6.86c-1,1.75.18,2.31,1,3.31,1,1.2,1.05,3.26-.71,2.79-4.23-1.12-4.32,1.34-4.75,4.13-.09.58-1.19,1-1.83,1.49-1.24-7.83,5.71-21.34,12.59-24.55a9,9,0,0,1,5.9-.35A20.49,20.49,0,0,1,1032.46,367.32Z"/><path class="cls-5" d="M922.63,281.55c3.74,13.62,5.76,27.14-2.82,39.89-4.79,7.13-11.71,10.17-19.56,7.14-6.77-2.62-10.22-9.39-10.39-15.95-.24-8.86-2-18,1.36-26.77.83-2.18,1.33-4.49,3.08-6.2,2.28-1.14,2.77-3.67,4.07-5.52,2.5-3.54,5.46-4.62,9.77-4.75,6.26-.19,9.52,2.95,12,8C920.89,278.78,920.85,280.72,922.63,281.55Z"/><path class="cls-106" d="M922.63,281.55c-.28.77-.66,1.91-1.56.77a15.47,15.47,0,0,1-2.39-4.39c-3.5-9.85-17.85-8.75-21.31,0-.54,1.34-.88,3.22-3.07,1.76,2.77-5.78,4.58-12.3,11.72-14.59,3.56-1.15,6.35-.75,8.63,2.73C917.57,272.24,923.28,275,922.63,281.55Z"/><path class="cls-107" d="M859.88,294.78c2.56-4.08,4.21-1.7,4.91,1a111.35,111.35,0,0,1,3.07,15.74c2.91,27.31,1.61,54.21-9.07,80-3.88,9.35-8.54,18.29-17.41,24.1-2.68,1.76-5.43,3.29-8.82,2.17,14.68-7.68,20.46-21.65,24.85-36.22a160.29,160.29,0,0,0,2.89-82.83A32.39,32.39,0,0,1,859.88,294.78Z"/><path class="cls-56" d="M794.56,303.82c-.63-2.45,1.15-4.61.87-7,3.53-13.43,8.73-26,17.5-37.06,3.94-5,10.16-6.11,14.82-9.92,2.36-1.93,6,1.07,9,1.85l1.13,1.94a14.64,14.64,0,0,1-10,4.7c-5.28.42-6.56,4.38-8.57,7.86-.3.52-.16,1.29-1,1.51-2.75.75-3.09,1.08-3.33,3.16-1,.51-1.51-.44-2.21-.74a16.33,16.33,0,0,1-2.36-1.61c1.4,5.36-2.71,8.55-4.83,11.76a72.42,72.42,0,0,0-9.2,21.47A2.56,2.56,0,0,1,794.56,303.82Z"/><path class="cls-107" d="M733.81,490.28c4.65,3.41,9,7.33,11.64,12.4,5.3,10.09,10.46,20.3,14.9,30.79,5.58,13.21,7.74,27.4,9.76,41.49a234.5,234.5,0,0,1,2.08,42.13c-.2,5.36-.69,10.7-1,16a4.11,4.11,0,0,1-1.87,3.38A317.45,317.45,0,0,1,767.54,599c0-8.37-.44-17.3-2.6-25.74a5,5,0,0,0-.24-1c-3.36-6.66,1.15-15.18-4.42-21-5.41-5.7-6.37-13.35-8.8-20-2.69-7.32-5.15-14.26-9.58-20.86-2.76-4.12-3.85-9.55-6.94-13.79C733.54,494.63,734,492.41,733.81,490.28Z"/><path class="cls-56" d="M774.17,214.26c1.77-9.28,4.15-18.3,11.23-25.18s12.14-5.89,15.67,3.31c1.18,3.09,2.7,6.15,2.47,9.63-3.22-3.23-5.19-7.8-10.69-8.52-2.63-.34-4.73-.42-6.23,1.75-3.16,4.58-9,8-6.49,15.15.55,1.55-.74,4.25-2.46,3.07C775.52,212,775.8,217.05,774.17,214.26Z"/><path class="cls-57" d="M803.82,219.16c2.21,13.56-1.42,26.05-7.11,38.12-.43.92-1.05,0-1.32-.62,1.36-6.18,2.71-12.37,4.1-18.54C800.91,231.79,802.37,225.48,803.82,219.16Z"/><path class="cls-83" d="M1234.22,114.94c-.06,1.07-.32,2.1-1.6,2.14a2,2,0,0,1-2.16-2.22,2.13,2.13,0,0,1,2.31-2.16C1234.09,112.77,1234.2,113.89,1234.22,114.94Z"/><path class="cls-5" d="M1356.26,353.54c0,9.9-6.94,17.37-16.31,17.53-6.9.12-13.72-8.33-13.85-17.17-.13-8.46,7.1-17.51,14.08-17.61C1348.92,336.17,1356.25,344,1356.26,353.54Z"/><path class="cls-83" d="M874.29,64.76a9.27,9.27,0,0,1-3.7,7.81,1.6,1.6,0,0,1-2.25-.37c-2.13-2.9-.45-5.82.29-8.6.46-1.71,1.85-3.55,4-3.07S874.24,63.13,874.29,64.76Z"/><path class="cls-108" d="M808.31,70.42c1.93,2.64,1.22,5,1.06,7.28-.07,1-.57,2.06-1.84,1.91s-1.28-1.39-1.3-2.35C806.16,74.92,806.14,72.57,808.31,70.42Z"/><path class="cls-1" d="M824.14,8.86c.6.25.84.27.9.38,1.27,2.63.49,4.86-1.48,6.76a.93.93,0,0,1-1.62-.3C821,12.81,822.37,10.73,824.14,8.86Z"/><path class="cls-71" d="M778.94,81.18c.86,3.47.66,5.89-1,8.76C775.45,86.47,776.32,84.14,778.94,81.18Z"/><path class="cls-74" d="M805.56,51.06c1.58.82,1.19,2.07,1.05,3.16s-.35,2.25-1.69,1.89-1.25-1.78-1-2.94A2.42,2.42,0,0,1,805.56,51.06Z"/><path class="cls-109" d="M744.88,18.36c-1,5.12-2.71,10.09-3.94,15.16a159.75,159.75,0,0,1-12.07,33.91c-.9-1.16-1.12-2.26-2.2-2.62-2.73,4.72.37,9,1.12,13.37,7.4-11.76,11.29-24.91,15.15-38.07,2.39-8.15,4.89-16.3,5.78-24.79A38.52,38.52,0,0,0,744.88,18.36Z"/><path class="cls-3" d="M744.18,19a73.8,73.8,0,0,0-5.92,6.46,150,150,0,0,0-11.59,39.37c.14,2.41.29,4.82.44,7.45,2-.59,2.48-1.84,3.07-3A153.88,153.88,0,0,0,742.8,34.06c1.36-5.81,4-11.41,4.19-17.47C746,17.34,745.08,18.13,744.18,19Z"/><path class="cls-48" d="M975.17,306.08c-.28,3.27-.82,6.54-5,6.68a3.48,3.48,0,0,1-3.69-4.28c.49-3,.87-6.81,4.85-7.15C973.94,301.11,975.33,303.29,975.17,306.08Z"/><path class="cls-1" d="M608.31,769H489.6c11.66-20.33,33.75-34.44,61-34A68.16,68.16,0,0,1,608.31,769Z"/><path class="cls-3" d="M932,45c9.37,5.13,23.83-15.9,40.26-11.52,7.7,2.05,12.49,8.78,15,13.15,31-12.55,49-28.29,50.69-44.24,0-.12-.13-.75-.2-1.63-.39-4.37.8-5.74.23-6.76-1.26-2.26-9.31.57-18,2-3.36.55-7.57.7-16,1-24.44.87-58.63-6.6-60-2a6.39,6.39,0,0,1-1,3,5.86,5.86,0,0,1-3,2c-3,1-5.78,0-8,0-11.86,0-11.39.05-12,0-5.14-.41-6.34-1.19-10.3-.83-1.83.17-6.31.58-6.53,2-.33,2.16,9.75,2.91,16.53,8.77C932.25,20.75,923.4,40.29,932,45Z"/></g></svg>