<svg xmlns="http://www.w3.org/2000/svg" viewBox="0 0 31.09 52.06"><defs><style>.cls-1{fill:#fccbc4;}.cls-2{fill:#bd2126;}.cls-3{fill:#c52d30;}.cls-4{fill:#a92e39;}.cls-5{fill:#fa928c;}</style></defs><g id="Layer_2" data-name="Layer 2"><g id="_0G" data-name="0G"><path class="cls-1" d="M2.15,20.78c2.74-8,8-13.93,15-18.42C20.57.15,24-1.5,27.75,2.13c3.49,3.37,4.6,6.72,1.58,10.93-.48.68-.38,1.78-.55,2.68a37.82,37.82,0,0,0-8.65,14.89c-.91,1.36-1,3-1.51,4.5-1.19,1.53-.75,3.88-2.56,5.11-.41,1.31-.78,2.64-1.24,3.94C13.67,47.44,13,51.78,9,52.05c-4.62.3-6.54-3.92-7.95-7.66-2.59-6.87.74-13.8.08-20.72A3.66,3.66,0,0,1,2.15,20.78Z"/><path class="cls-2" d="M18.92,30.17c1.49-6,3.49-11.73,9.86-14.43l-4,9.31c-.14.45-.28.89-.43,1.34l-3.86,7C17.65,33.47,18.58,31.67,18.92,30.17Z"/><path class="cls-3" d="M18.92,30.17c.21,1.23.28,2.54,1.58,3.25l-1.42,4.2c-2.62.07-2.09-1.43-1.49-3Z"/><path class="cls-4" d="M17.59,34.64c.24,1.13.22,2.38,1.49,3l-2.2,4.32c-.27-.57-.54-1.14-.82-1.71C16.3,38.3,16.28,36.29,17.59,34.64Z"/><path class="cls-5" d="M23.13,6c1.18.06,1.47.92,1.44,1.82a1.67,1.67,0,0,1-1.68,1.7c-.9,0-1.87-.24-1.84-1.41S21.92,6.15,23.13,6Z"/></g></g></svg>