<svg xmlns="http://www.w3.org/2000/svg" viewBox="0 0 165.56 116.97"><defs><style>.cls-1{fill:#6e2025;}.cls-2{fill:#fd1e26;}.cls-3{fill:#380913;}.cls-4{fill:#390a13;}.cls-5{fill:#3f1118;}.cls-6{fill:#931830;}.cls-7{fill:#9c6568;}.cls-8{fill:#491b20;}.cls-9{fill:#7c494f;}.cls-10{fill:#7b353b;}.cls-11{fill:#794d51;}.cls-12{fill:#5b1019;}.cls-13{fill:#d36f6a;}.cls-14{fill:#f82228;}.cls-15{fill:#732f35;}.cls-16{fill:#6a2a30;}.cls-17{fill:#52252a;}.cls-18{fill:#491d22;}.cls-19{fill:#712c31;}.cls-20{fill:#7d4b55;}.cls-21{fill:#44060c;}.cls-22{fill:#461b21;}.cls-23{fill:#8d5358;}.cls-24{fill:#762a31;}.cls-25{fill:#5e252b;}.cls-26{fill:#71323b;}.cls-27{fill:#4b1920;}</style></defs><g id="Layer_2" data-name="Layer 2"><g id="_0G" data-name="0G"><path class="cls-1" d="M94.24,38.33a.54.54,0,0,0,.91-.06,3.65,3.65,0,0,1,3.66-1.16c4.36.81,9,6.79,12.92-.65.23-.61.5-1.19.78-1.77,2.79-6.06,6-11.79,12.14-15.16,2.26,0,4.1.55,4.46,3.19-4.14,4.44-8.32,8.77-6.56,15.79a5,5,0,0,1-2.2,4.92c-5.25,3.28-5.73,8.5-6.23,13.81A33.31,33.31,0,0,1,106.61,61c-1.93-.42-3.2-1.78-4.52-3.11-8-8.08-17.63-6.31-21.93,4.3-1.83,4.53-4,8.29-8.82,10.11-6.65,2.51-10.5,1-13.44-5.39-.72-1.58-.7-4.35-3-4-2.52.38-2.37,3.11-2.53,5.16-.21,2.79,0,5.6-.62,8.35-.82,3.75-2.4,7.06-5.64,9.33-5.66,4-10.47,1.93-11.41-4.83-.23-1.61-.27-3.24-.47-4.86.1-3.54,2-6.57,3.07-9.8,2.24-6.68.37-11.63-4.81-15.9-4.68-3.86-7.4-8.59-5.75-14.94,2.59-5.15,4.85-10.6,11.16-12.4,3,.51,5.92.75,8.43-1.46,2.52-.74,4.6.95,6.93,1.25C58.39,25,60.3,29.52,61.4,34.59l-.1.47.36.31c2.29,2,1.69,5,2.55,7.51a.56.56,0,0,0,.29.86c9.71,7.9,10.15,7.95,19.93-.73C87.32,40.45,90.74,39.41,94.24,38.33Z"/><path class="cls-2" d="M113.65,35.19c-.16.65-.33,1.29-.5,1.94-7.13-3-3-8.69-3.27-13.34.51-1.78.51-3.83,2.47-4.88l-.09.1c.11-.21.17-.56.32-.6C122.81,15.3,130,7.32,138.74,1.92,140,1.31,141.17.71,142.42.17c9.39-1.16,15.91,3.61,20.46,14.94.27,1.86-1.3,3.19-1.29,4.79-.67.91.66.73-.08.17-.08-.06.23-.8.47-1.15a1.2,1.2,0,0,1,1.66-.32c.25,1.92-.41,4.08,1.41,5.61,1.7,2.6-1.47,4.73-.7,7.24a15.51,15.51,0,0,1-.36,1.9c-.58,2.56.12,5.21-.55,7.77-1.44,2.67-2.76,5.43-5.39,7.2-1.74,0-2.23-1.23-2.45-2.68a20.81,20.81,0,0,1,.6-3.75c-3.38,3-5.95,5.29-5.82,9.43a3.57,3.57,0,0,1-3.18,2c-5.42-.42-9.73,5.6-15.59,2.7a4.49,4.49,0,0,0-.31-1.25c.06-2.55,2.26-2.61,3.89-3.2,3.67-1.34,5.69-3.79,5.62-7.79-.17-6.52-3.72-11.35-7.89-15.86-1.54-1.66-3.91-2.71-4-5.44l-4.46-2.22C115.93,21.67,112.73,26.93,113.65,35.19Z"/><path class="cls-3" d="M35.09,75.9c1.58,1.15,1.23,2.85,1.3,4.45.08,2-.51,4.39,2,5.46,2.65,1.16,5,0,7.06-1.53,3.81-2.94,4.84-7.17,5-11.72.07-2.78-.12-5.58.14-8.34a5,5,0,0,1,4.32-4.79c3.08-.4,3.51,2,4.15,4.42,1,3.59,1,8.5,6.76,7.84,5.15-.59,10.21-1.62,11.74-7.8C78.81,58.46,81.38,54.18,87,52c6.71-2.63,11.28-1.65,15.78,4,1.43,1.8,2.78,3.75,5.22,4.37a5.84,5.84,0,0,1,4.72.8A3,3,0,0,1,114,63.71c-3.86,4.67-5.8,4.92-10.68-.48-3.68-4.09-7-4.55-11.17-1.45l0,0C88.76,69.28,81.6,73.29,75.78,78.47c-2.29,2-4.32,5-7.77,5.64-1.06,0-2,.14-2.3,1.42-3,3.54-6.23,6.69-11.2,7.13-1.73-.42-2.79.82-4,1.64-4.84,4.33-10,4-15.34,1l-.15.18c-5.19-.71-5.91-4.46-5.77-8.67C29.4,82.29,29.24,77.47,35.09,75.9Z"/><path class="cls-4" d="M113.41,63.58l-1.68-1.73c-.67-1.85.37-3,1.61-4.14-.66-5.92-1.43-11.73,5.59-15a4.76,4.76,0,0,0,2.18-5.47c-2.56-7.75,1.72-11.69,7.83-14.73,7.43,5.21,12.94,11.66,13.66,21.2-5.35,8.79-7.82,9.71-20.11,7.44-3.5,2-3.42,6-5.08,9.09C116.49,61.86,116.07,64.06,113.41,63.58Z"/><path class="cls-5" d="M54.4,106.62C51.32,109,48,110.53,44,109.29c-5.73-3.35-5.93-4.21-2.32-9.7,1.26-.62,2.32.08,3.41.49,1.65-.59.28-1.86.62-2.74a1.85,1.85,0,0,1,1.38-1.16,5.14,5.14,0,0,1,4.73.6l3.73,3.08C58,102.6,55.86,104.55,54.4,106.62Z"/><path class="cls-6" d="M122.49,51.16c-1.31-1.74-.37-4,1.12-2.71,9,7.84,13.25-1,19-4.73.8,8.35-6.21,8.74-11.3,11.09C127.68,55.24,125.92,51.18,122.49,51.16Z"/><path class="cls-7" d="M46.28,21.53c-2.14,4.37-4.77,5.88-8.43,1.46C40.24,20.06,43.31,21.08,46.28,21.53Z"/><path class="cls-8" d="M32.28,111.14c2.74-.46,3.33,1.46,2.6,3.19-1.29,3.07-4,3.06-6.77,2l.09-2.57C29.26,112.4,30.81,111.84,32.28,111.14Z"/><path class="cls-9" d="M1.57,67.81c1.79,0,3.83-.27,4.28,2.19a2.59,2.59,0,0,1-2,3.13c-2.27.59-3.22-1-3.89-2.8Z"/><path class="cls-10" d="M5.48,115.5c-1.63-.23-2.73-.91-2.38-2.62a2.67,2.67,0,0,1,3-2.19c1.57.07,2.55.94,2.28,2.58S6.8,115.33,5.48,115.5Z"/><path class="cls-11" d="M32.28,111.14c-.75,1.83-2.36,2.29-4.08,2.6l.06-2.38C29.57,110.78,30.89,110.34,32.28,111.14Z"/><path class="cls-12" d="M113.65,35.19c-4-11.07-.26-16.27,10.83-14.89A66.31,66.31,0,0,0,113.65,35.19Z"/><path class="cls-13" d="M113.34,57.71c.38,1.73-.57,3-1.61,4.14L108,60.37C108.42,56.75,110.14,55.74,113.34,57.71Z"/><path class="cls-14" d="M149.52,51.07l7.16-5.91A2.87,2.87,0,0,0,158.19,48c-2.61,5-6.16,7.51-11.79,4.34Z"/><path class="cls-15" d="M23.74,62c-3.23-3.15-1.16-5.53,1.45-7.27,2.09-1.39,4.85-2.64,5.65,1.63C32.07,62.75,27.47,61.81,23.74,62Z"/><path class="cls-16" d="M15.52,50.53c-3.38-2.11-1.29-4.08.66-5,2.46-1.12,6-1.58,7.73.57s-.33,4-2.84,4.64C19.25,50,17.37,50.53,15.52,50.53Z"/><path class="cls-17" d="M15.5,55.33c3.05.15,3,2.37,2.67,4.42a4.11,4.11,0,0,1-3.92,3.33c-2.52.16-4.44-.93-4.42-3.92C11.75,57.93,14,57.17,15.5,55.33Z"/><path class="cls-18" d="M23.74,62c2.44-1.8,7-.88,7.1-5.64,2.81,1.53,2.23,4,.71,5.58C29.29,64.21,26.36,64.71,23.74,62Z"/><path class="cls-19" d="M15.5,55.33c.31,4.54-2.19,4.92-5.67,3.83C9.18,54.12,12.46,54.92,15.5,55.33Z"/><path class="cls-20" d="M17.06,75c1,.13,2.07.33,2,1.42a2.26,2.26,0,0,1-2.33,1.94,1.82,1.82,0,0,1-1.35-1.08C15,75.86,15.87,75.23,17.06,75Z"/><path class="cls-21" d="M15.52,50.53c1.93-1.71,3.79-1.82,5.55.25C19.14,52.46,17.31,52,15.52,50.53Z"/><path class="cls-22" d="M78,44.19c-.44,2-1.1,3.55-3.43,3.76-2.07.19-4-.34-4.38-2.38s1.16-3.39,3.42-3.2C75.22,42.51,77.46,41.4,78,44.19Z"/><path class="cls-23" d="M112.63,76.72c.35-3.1,2.24-4.49,5.05-4.61a1.37,1.37,0,0,1,1.13,2C117.52,76.58,115.66,78,112.63,76.72Z"/><path class="cls-24" d="M46.31,98.09c1,.35,2.54.21,2.42,1.69-.2,2.26-2.09,2.55-3.92,2.7C43.4,100.36,44.79,99.2,46.31,98.09Z"/><path class="cls-25" d="M46.31,98.09l-1.5,4.39c-1.27-.72-1.41-2-1.56-3.24a.9.9,0,0,1,.19-.89l2.85-1A3.76,3.76,0,0,1,46.31,98.09Z"/><path class="cls-26" d="M103.69,36.47a.53.53,0,0,0,0-.75c1.73-2.39,3.67-1,5.36-.09A1.46,1.46,0,0,1,109,38C106.75,39.41,105.08,38.28,103.69,36.47Z"/><path class="cls-27" d="M61.5,95.37c-1.45.16-3.15,1.5-4.21-.29a1.77,1.77,0,0,1,1.41-2.51c2.24-.43,2.38,1.37,2.75,2.85Z"/></g></g></svg>