<svg xmlns="http://www.w3.org/2000/svg" viewBox="0 0 94.28 49.36"><defs><style>.cls-1{fill:#fcafaf;}.cls-2{fill:#fbadae;}.cls-3{fill:#c47178;}.cls-4{fill:#c5737a;}.cls-5{fill:#c16970;}.cls-6{fill:#c26b72;}.cls-7{fill:#fb8486;}</style></defs><g id="Layer_2" data-name="Layer 2"><g id="_0G" data-name="0G"><path class="cls-1" d="M48.5,38.72c-.92,1-1.77,2.14-2.75,3.11-10,9.93-10.58,10.22-19.79-.2-7.52-8.52-15.49-16.54-23.6-24.44-3.1-3-3.42-4.84.69-7.24C8.48,6.77,13.74,3.48,20.3,3.48c1.45-1.06,2.58-.56,3.55.72a4.76,4.76,0,0,1,.36,2A4.09,4.09,0,0,1,23.41,8c-.21.68-1.79.52-1.33.76,6.27,3.32,10.82,8.61,15.8,13.41,2.62,2.84,5.61,5.35,7.76,8.62C46.88,33.32,49.72,35.3,48.5,38.72Z"/><path class="cls-2" d="M23.17,7.79l.09-1.64c6.34-.47,9.65,4.81,14.32,7.52,3.48,2.3,6,5.62,10.1,9.4-3.91-3.75-6.45-6.82-9.63-9.22-4.72-3.3-9-7.31-14.8-8.8-.6-1.25-1.73-1.49-2.95-1.57C21.41,2,23.09,2.28,24.61,2c1.1-1.91,2.93-2,4.85-2,8.6.19,17.21-.38,25.8.33l0,.59c-.78,3.52-3.79,2.69-6.12,3.09-4.89.85-9.57-1.37-14.42-1.16-.74.41-1.34,1-2.08,1.45C33.75,4.35,34,3.09,35,2.89c7.62,0,13.86,3.43,19.35,8.27,3.3,2.92,6,3.17,9.75.5C70.57,7,78.22,4.92,86,3.56c1,0,2.09,0,3.13,0a8.27,8.27,0,0,1,5.11,1.27c-15.89,7-28.77,18.11-40.72,30.43-1.44,1.49-2.86,3.08-5.07,3.48l-4.34-7.19c.81-5.12-4.52-6-6.38-9.32C33.87,18.37,30,14.49,25.38,11.5,24.11,10.68,22.5,9.86,23.17,7.79Z"/><path class="cls-3" d="M23.17,7.79c4.52,5.28,11.72,7.63,15.3,14a2.26,2.26,0,0,1-1.29,1.33L19.47,8C20.7,6.35,22,8.12,23.17,7.79Z"/><path class="cls-4" d="M37.18,23.07l1.29-1.33c2.32,2.1,4.74,4.11,7,6.32,1.81,1.81,1.53,3.18-1.27,3.47Z"/><path class="cls-4" d="M23.25,5.05C29.88,5,34,9.58,38.57,13.3a2.47,2.47,0,0,1-1.37,1.34c-4.62-2.87-8.35-7.21-13.94-8.49C23.26,5.78,23.25,5.42,23.25,5.05Z"/><path class="cls-5" d="M37.2,14.64l1.37-1.34c4.69,3.62,9,7.55,11.58,13.26Z"/><path class="cls-6" d="M44.18,10.49c4.34,3.43,9.38,6.13,11.66,11.81l-13-10.45C42.48,10.6,42.71,9.92,44.18,10.49Z"/><path class="cls-7" d="M44.18,10.49l-1.37,1.36L35,6.69C40.18,6.21,42,8.82,44.18,10.49Z"/></g></g></svg>