<svg xmlns="http://www.w3.org/2000/svg" viewBox="0 0 100.78 92.16"><defs><style>.cls-1{fill:#fbadae;}.cls-2{fill:#fdafaf;}.cls-3{fill:#c26d74;}.cls-4{fill:#c36f76;}.cls-5{fill:#c47178;}.cls-6{fill:#c26b72;}.cls-7{fill:#c6757c;}.cls-8{fill:#f98787;}</style></defs><g id="Layer_2" data-name="Layer 2"><g id="_0G" data-name="0G"><path class="cls-1" d="M12.45,46C8.59,41.36,4.67,36.72.88,32c-1.45-1.82-1.2-3.48,1.41-4,3.35-.63,6.73-1.11,10.09-1.65,7.18-.05,8.29,1.35,6.57,8.42a30.66,30.66,0,0,0-1.15,4C17.11,45.4,20.37,49,27,49.15c2.41.05,5.17-.87,6.91,1.82.18,1.88,1,1.43,2.15.67C46.05,45,55.72,38,64.88,30.82c-6.2,4-11.49,9.69-18.43,13.14-3.39.2-4.17-1.41-4.09-4.68.13-5,.1-10.11-2.76-14.76-.63,1-.45,2.55-1.8,2.73a61.12,61.12,0,0,1-16.49.16C18,26.93,20,25,20.67,23.55A165.08,165.08,0,0,0,58.27,0l2,0A514.57,514.57,0,0,1,99.17,62.72c2.54,4.76,2.52,7-3.28,8.55-11.47,3-21.29,9.27-30,17.19-4.75,4.32-7.92,5.47-13.61.13C38.55,75.68,24.76,62.93,13.74,47.51,13.77,46.62,13.4,46.07,12.45,46Z"/><path class="cls-2" d="M33.44,51.72c-1.45-2.46-3.93-.94-5.64-1-10.24-.22-14.56-5.83-10.74-15.2,2.18-5.33.87-8.16-4.68-9.19a16,16,0,0,1,8.29-2.8c1.76.21-1.9,3.27,1.61,2.84,3.77-.47,7.83-1.18,11.38-.28C39,27.44,38,24.54,37.14,21.16c7.85,4.67,7.58,11.78,6.52,18.43-.49,3,1.41,2.57,2.34,3.64C43.22,48.14,39.49,51.64,33.44,51.72Z"/><path class="cls-3" d="M33.44,51.72c5-1.61,8.66-5.24,12.56-8.49,8-4.71,14.51-11.78,23.3-15.38C57,37.4,45.87,48.59,31.52,55.94,30.82,53.1,33,53,33.44,51.72Z"/><path class="cls-4" d="M55.75,74C65.41,66,74.85,57.72,87.24,54a238.66,238.66,0,0,0-30,21.41C55.89,75.79,55.37,75.33,55.75,74Z"/><path class="cls-5" d="M75.34,47.35,45.92,69.62l-1-1.33c9.25-8,18.52-15.88,29-22.29C75.4,45.39,75.61,46.12,75.34,47.35Z"/><path class="cls-3" d="M60,43.2C52.57,49.66,45,55.89,36.61,61l-1.07-1.38L58.59,41.85C60,41.29,60.32,41.92,60,43.2Z"/><path class="cls-3" d="M57.22,65.67c8-6.61,16-13.07,25.86-16.94C75,55,66.39,60.46,58.57,67,57.12,67.59,56.9,66.91,57.22,65.67Z"/><path class="cls-4" d="M64.2,47.45,41.94,65.63l-1.45-1.74L62.82,46.14A2.43,2.43,0,0,1,64.2,47.45Z"/><path class="cls-3" d="M56.17,10.52a30.63,30.63,0,0,1-15,10.77A43.72,43.72,0,0,1,56.17,10.52Z"/><path class="cls-4" d="M60.26,15.91a27.13,27.13,0,0,1-13.08,9.88C50.33,21,55,18.13,60.26,15.91Z"/><path class="cls-6" d="M64.2,47.45l-1.38-1.31,13.32-9.56,1.42,1.87Z"/><path class="cls-4" d="M60,43.2l-1.37-1.35c4.37-3.65,8.59-7.53,16-10.39C69.51,37.34,64.16,39.56,60,43.2Z"/><path class="cls-7" d="M57.22,65.67,58.57,67l-8.18,7C51.34,69.89,54.25,67.75,57.22,65.67Z"/><path class="cls-7" d="M75.34,47.35,73.91,46c1.86-1.53,3.57-3.35,6.68-3.67C80.19,46,77.31,46.18,75.34,47.35Z"/><path class="cls-8" d="M55.75,74l1.47,1.47c-.87,1.17-1.8,3.43-3.35,1.88S54.62,74.86,55.75,74Z"/></g></g></svg>